<svg
		xmlns="http://www.w3.org/2000/svg"
		viewBox="0 0 267.06 241.8">
		<path
			d="M186.66 108.3h33.7v46.9h-33.7z"
			fill="#f28159"
		/>
		<path
			d="M190.46 148.7a4.8 4.8 0 1 1-4.8-4.8 4.87 4.87 0 0 1 4.8 4.8"
			fill="#bcbec0"
		/>
		<path
			d="M187.76 146.3a1.4 1.4 0 1 1-1.4-1.4 1.37 1.37 0 0 1 1.4 1.4"
			fill="#fff"
		/>
		<path
			d="M185.66 152.6a4.78 4.78 0 1 1-1.4-3.4 4.74 4.74 0 0 1 1.4 3.4"
			fill="#bcbec0"
		/>
		<path
			d="M183.16 150.1a1.4 1.4 0 1 1-1.4-1.4 1.43 1.43 0 0 1 1.4 1.4"
			fill="#fff"
		/>
		<path
			d="M231.46 144.1a5.65 5.65 0 0 1-3.5 5.3 5.71 5.71 0 0 1-7.5-7.4 5.74 5.74 0 0 1 9.3-2 5.83 5.83 0 0 1 1.7 4.1"
			fill="#bcbec0"
		/>
		<path
			d="M228.26 141.2a1.6 1.6 0 1 1-1.6-1.6 1.58 1.58 0 0 1 1.6 1.6"
			fill="#fff"
		/>
		<path
			d="M221.36 241.6l-35.6.2.9-99.9 33.6-12.6z"
			fill="#f28159"
		/>
		<path
			d="M220.53 149.8c-1.7.7-2.4 2.1-2.8 4a5.08 5.08 0 0 0-1.7-.3 5.67 5.67 0 0 0-5.4 4 6 6 0 0 0-4-1.6 5.69 5.69 0 0 0-5.6 4.7 5.94 5.94 0 0 0-3.8-1.4 5.7 5.7 0 0 0-5.6 4.9 5.83 5.83 0 0 0-4.1-1.7 4.48 4.48 0 0 0-2 .4v10.7a4.48 4.48 0 0 0 2 .4 5.7 5.7 0 0 0 5.6-4.9 5.63 5.63 0 0 0 5.8 1.4 5.77 5.77 0 0 0 4-4.4 5.94 5.94 0 0 0 3.8 1.4 5.67 5.67 0 0 0 5.4-4 6 6 0 0 0 4 1.6 5 5 0 0 0 4.5-2.8l-.1-12.4z"
			fill="#231f20"
			opacity=".4"
		/>
		<path
			d="M183.86 160.5a5.65 5.65 0 0 1-3.5 5.3 5.52 5.52 0 0 1-6.2-1.2 5.72 5.72 0 0 1 3.9-9.8 5.35 5.35 0 0 1 4.1 1.6 5.83 5.83 0 0 1 1.7 4.1"
			fill="#bcbec0"
		/>
		<path
			d="M180.76 157.6a1.6 1.6 0 1 1-1.6-1.6 1.58 1.58 0 0 1 1.6 1.6"
			fill="#fff"
		/>
		<path
			d="M229.06 150.9a5.65 5.65 0 0 1-3.5 5.3 5.71 5.71 0 0 1-7.5-7.4 5.76 5.76 0 0 1 5.2-3.6 5.35 5.35 0 0 1 4.1 1.6 5.83 5.83 0 0 1 1.7 4.1"
			fill="#bcbec0"
		/>
		<path
			d="M225.86 148a1.6 1.6 0 1 1-1.6-1.6 1.58 1.58 0 0 1 1.6 1.6"
			fill="#fff"
		/>
		<path
			d="M221.66 155.3a5.65 5.65 0 0 1-3.5 5.3 5.71 5.71 0 0 1-7.5-7.4 5.76 5.76 0 0 1 5.2-3.6 6.2 6.2 0 0 1 4.1 1.6 5.66 5.66 0 0 1 1.7 4.1"
			fill="#bcbec0"
		/>
		<path
			d="M218.56 152.3a1.6 1.6 0 1 1-1.6-1.6 1.72 1.72 0 0 1 1.6 1.6"
			fill="#fff"
		/>
		<path
			d="M212.36 157.7a5.65 5.65 0 0 1-3.5 5.3 5.71 5.71 0 0 1-7.5-7.4 5.76 5.76 0 0 1 5.2-3.6 6.2 6.2 0 0 1 4.1 1.6 5.66 5.66 0 0 1 1.7 4.1"
			fill="#bcbec0"
		/>
		<path
			d="M209.26 154.7a1.6 1.6 0 1 1-1.6-1.6 1.72 1.72 0 0 1 1.6 1.6"
			fill="#fff"
		/>
		<path
			d="M202.86 161a5.65 5.65 0 0 1-3.5 5.3 5.48 5.48 0 0 1-6.2-1.2 5.55 5.55 0 0 1-1.3-6.2 5.76 5.76 0 0 1 5.2-3.6 6.2 6.2 0 0 1 4.1 1.6 5.66 5.66 0 0 1 1.7 4.1"
			fill="#bcbec0"
		/>
		<path
			d="M199.96 158.1a1.6 1.6 0 1 1-1.6-1.6c.7-.1 1.4.6 1.6 1.6"
			fill="#fff"
		/>
		<path
			d="M193.26 164.2a5.65 5.65 0 0 1-3.5 5.3 5.71 5.71 0 0 1-7.5-7.4 5.76 5.76 0 0 1 5.2-3.6 6.2 6.2 0 0 1 4.1 1.6 5.83 5.83 0 0 1 1.7 4.1"
			fill="#bcbec0"
		/>
		<path
			d="M190.16 161.4a1.6 1.6 0 1 1-1.6-1.6 1.5 1.5 0 0 1 1.1.4 1.22 1.22 0 0 1 .5 1.2"
			fill="#fff"
		/>
		<path
			d="M186.66 130l18.6-.7h15v-15.2l-33.6 2.1z"
			fill="#dd603a"
		/>
		<path
			d="M186.66 124.5l-9-14.8 4.9-26.1 45.5-19.1 8 .6c2.5 15 8.5 30.1 2 44.6-3.7 7.9-10 19.3-19.9 19.2-3.8 0-8.3-2.7-12.3-3.1-3.1-.4-17.7 1.3-19.2-1.3"
			fill="#f28159"
		/>
		<path
			d="M182.56 83.6l-2 10.4 7.8 12.8c29.5 4.4 45.2-8.9 51.8-16.8l-4.2-25-8-.6z"
			fill="#dd603a"
		/>
		<path
			d="M204.96 100.9l6.1 7.8s26.3-5.8 27.3-11.2z"
			fill="#dd603a"
		/>
		<path
			d="M240.26 125l-28.9 8.7-28.2-80.3 29-8.7z"
			fill="#43bdd7"
		/>
		<path
			d="M225.86 129.3l-14.5 4.3-28.2-80.2 14.5-4.4z"
			fill="#39a1b7"
		/>
		<path
			d="M183.06 53.4l-4.5-6 33.2-10 .2 7.4z"
			fill="#43bdd7"
		/>
		<path
			d="M183.06 53.4l-4.5-6 16.6-4.9 2.3 6.6z"
			fill="#39a1b7"
		/>
		<path
			d="M211.26 133.8l.2 7.3 33.1-10-4.5-6.1z"
			fill="#43bdd7"
		/>
		<path
			d="M211.26 133.8l.2 7.3 16.6-5-2.4-6.7z"
			fill="#39a1b7"
		/>
		<path
			d="M214.36 51.4l-28.9 8.7-2.3-6.7 28.8-8.7z"
			fill="#ffcd00"
		/>
		<path
			d="M199.96 55.8l-14.5 4.3-2.3-6.7 14.4-4.3z"
			fill="#edab07"
		/>
		<path
			d="M240.16 125l-28.9 8.7-2.4-6.7 28.9-8.7z"
			fill="#ffcd00"
		/>
		<path
			d="M225.66 129.3l-14.4 4.4-2.4-6.7 14.5-4.4z"
			fill="#edab07"
		/>
		<path
			d="M242.36 75.3a6.78 6.78 0 0 1-3.2 8.8l-8.3 3.8a6.62 6.62 0 1 1-5.6-12l8.3-3.8a6.91 6.91 0 0 1 5.1-.2 6.48 6.48 0 0 1 3.7 3.4"
			fill="#f28159"
		/>
		<path
			d="M241.06 86a5.16 5.16 0 0 1-.1 7.2l-5.1 4.9a5.11 5.11 0 0 1-5 1.3 4.88 4.88 0 0 1-3.5-3.7 5.22 5.22 0 0 1 1.4-4.9l5.1-4.9a5.26 5.26 0 0 1 7.2.1"
			fill="#f28159"
		/>
		<path
			d="M244.16 99a5.16 5.16 0 0 1-.1 7.2l-5.1 4.9a5.11 5.11 0 0 1-5 1.3 4.88 4.88 0 0 1-3.5-3.7 5.22 5.22 0 0 1 1.4-4.9l5.1-4.9a5.08 5.08 0 0 1 3.6-1.5 4.84 4.84 0 0 1 3.6 1.6"
			fill="#f28159"
		/>
		<path
			d="M231.56 91.5c-3.1 3.5-4.6 7.2-3.4 8.2s4.7-.8 7.8-4.4a23.72 23.72 0 0 0 2.3-3l-4-3.4c-.8.8-1.7 1.6-2.7 2.6"
			fill="#ffcd00"
		/>
		<path
			d="M228.76 77.3c-5.5 2.7-9.2 6.4-8.2 8.2.8 1.8 6.1 1.3 11.4-1.4a22.18 22.18 0 0 0 4.2-2.5l-3-6.1a22.7 22.7 0 0 0-4.4 1.8"
			fill="#ffcd00"
		/>
		<path
			d="M235.66 62.3a6.78 6.78 0 0 1-3.2 8.8l-8.3 3.8a6.69 6.69 0 0 1-8.8-3.2 6.61 6.61 0 0 1 3.2-8.8l8.4-3.9a6.68 6.68 0 0 1 8.7 3.3"
			fill="#f28159"
		/>
		<path
			d="M221.96 64.3c-5.5 2.7-9.2 6.4-8.2 8.2.8 1.8 6.1 1.3 11.4-1.4a22.18 22.18 0 0 0 4.2-2.5l-3-6.1a22.7 22.7 0 0 0-4.4 1.8"
			fill="#ffcd00"
		/>
		<path
			d="M234.66 104.2c-3.5 3.1-5.5 6.5-4.4 7.8 1 1.1 4.8-.3 8.2-3.4a16 16 0 0 0 2.5-2.7l-3.4-4c-.9.8-1.9 1.5-2.9 2.3"
			fill="#ffcd00"
		/>
		<path
			d="M189.46 57.5s4.5 2.3 4.5 8.6l-2.3 10.9-.3 9.3 1.4 4.8c4.1 3.7 4.1 4.5 4.8 9.9.7 4.9 3.5 13-1 16.8-4 3.4-11.2 2.2-14.6-1.6-5.8-6.4-6.8-16.8-4.9-24.9l4.1-18.9z"
			fill="#f28159"
		/>
		<path
			d="M187.66 63.8l3.1-8.9-6.5 9.9s1.2 2.4 3.4-1"
			fill="#ffcd00"
		/>
	</svg>
