<?xml version="1.0" encoding="utf-8"?>
<svg version="1.1" xmlns="http://www.w3.org/2000/svg" viewBox="0 0 140 140">
  <path d="M124.78,89l7.14,2V49l-6.49,1.83a62.65,62.65,0,0,1-16.89,2.29H30.11a52.94,52.94,0,0,1-14.29-1.94L8.08,49v42.1l9.6-2.7a38.84,38.84,0,0,1,10.43-1.41h81.13A57.7,57.7,0,0,1,124.78,89Z" fill="#1e1e1e" />
  <path d="M30.11,53.06a52.94,52.94,0,0,1-14.29-1.94L8.08,49v42.1l9.6-2.7a38.84,38.84,0,0,1,10.43-1.41H70V53.06Z" fill="#282828" />
  <path d="M8.08,48.95H.15a2.39,2.39,0,0,0,.71,1.71l1.43,1.43a1.45,1.45,0,0,1,.42,1,1.47,1.47,0,0,1-.42,1L.77,55.65a2.43,2.43,0,0,0,0,3.42l1.41,1.41a1.44,1.44,0,0,1,0,2L.75,64a2.43,2.43,0,0,0,0,3.42l1.47,1.47a1.44,1.44,0,0,1,0,2.05L.7,72.42A2.47,2.47,0,0,0,0,74.15a2.4,2.4,0,0,0,.71,1.72l1.52,1.52a1.44,1.44,0,0,1,0,2.05L.76,80.91a2.43,2.43,0,0,0,0,3.42l1.43,1.43a1.44,1.44,0,0,1,0,2.05L.78,89.22A2.39,2.39,0,0,0,.08,91h8Z" fill="#333" />
  <path d="M131.92,91.05h7.94a2.39,2.39,0,0,0-.71-1.71l-1.43-1.43a1.45,1.45,0,0,1-.42-1,1.47,1.47,0,0,1,.42-1l1.51-1.51a2.43,2.43,0,0,0,0-3.42l-1.41-1.41a1.44,1.44,0,0,1,0-2.05L139.24,76a2.43,2.43,0,0,0,0-3.42l-1.47-1.47a1.44,1.44,0,0,1,0-2.05l1.52-1.52a2.44,2.44,0,0,0,0-3.44l-1.52-1.52a1.44,1.44,0,0,1,0-2l1.47-1.47a2.43,2.43,0,0,0,0-3.42l-1.43-1.43a1.44,1.44,0,0,1,0-2l1.41-1.41a2.39,2.39,0,0,0,.7-1.81h-8V91.05Z" fill="#333" />
  <path d="M25.5,57.5c2.42-3.25,5.17-2.83,9.5-2.83,1.47,0,18.36,4.33,24.38,4.46s57.2-4.46,59.29-4.46c3.17,0,5,1.31,5.33,3.83.5,3.63-5,15.17-6.67,17.5s-3,2.67-6,3.5S18,85.7,14.5,85.83c-4.33.17-2.67-4.14-1.83-5.92C15.92,73,22.36,61.73,25.5,57.5Z" fill="#edda54" />
  <path d="M70,58.54c-5.26.38-9.22.61-10.62.58-6-.13-22.91-4.46-24.37-4.46-4.33,0-7.08-.42-9.5,2.83C22.36,61.73,15.92,73,12.67,79.92c-.83,1.77-2.5,6.08,1.83,5.92,1.92-.07,30-1.73,55.49-3.34Z" fill="#ffeb5a" />
  <path d="M14.48,80.77c3.22-6.85,9.59-18,12.63-22.07,1.3-1.75,2.5-2,5.43-2,.36,0,22.65,4.57,26.8,4.48,10.89-.25,58.61-4.45,59.34-4.46,3.06,0,3.25,1.42,3.35,2.11.38,2.77-4.62,13.69-6.31,16.06-1.22,1.71-3.54,2.4-4.91,2.74-3.53.87-93.76,6.14-95.92,6.26C14.11,83.88,13.65,82.53,14.48,80.77Z" fill="#cf0c11" />
  <path d="M70,60.54c-4.63.31-8.42.53-10.66.59-4.15.1-26.44-4.48-26.8-4.48-2.93,0-4.13.3-5.43,2-3,4.08-9.41,15.22-12.63,22.07-.83,1.76-.37,3.11.4,3.07,1.2-.07,29.54-1.72,55.12-3.33Z" fill="#df0814" />
</svg>
