<svg version="1.1" xmlns="http://www.w3.org/2000/svg" viewBox="0 0 140 140">
  <path d="M124.78,89l7.14,2V49l-6.49,1.83a62.65,62.65,0,0,1-16.89,2.29H30.11a52.94,52.94,0,0,1-14.29-1.94L8.08,49v42.1l9.6-2.7a38.84,38.84,0,0,1,10.43-1.41h81.13A57.7,57.7,0,0,1,124.78,89Z" fill="#759e28" />
  <path d="M30.11,53.07a52.94,52.94,0,0,1-14.29-1.94L8.08,49V91l9.6-2.7a38.84,38.84,0,0,1,10.43-1.41H70V53.07Z" fill="#7da82b" />
  <path d="M29,79.5A28.41,28.41,0,0,0,20.29,59a28.66,28.66,0,0,0,4.83-6.17,52,52,0,0,1-9.3-1.7L8.08,49H.15a2.39,2.39,0,0,0,.71,1.71l1.43,1.43a1.45,1.45,0,0,1,.42,1,1.47,1.47,0,0,1-.42,1L.77,55.65a2.43,2.43,0,0,0,0,3.42l1.41,1.41a1.44,1.44,0,0,1,0,2L.75,64a2.43,2.43,0,0,0,0,3.42l1.47,1.47a1.44,1.44,0,0,1,0,2L.7,72.42A2.47,2.47,0,0,0,0,74.15a2.4,2.4,0,0,0,.71,1.72l1.52,1.52a1.44,1.44,0,0,1,0,2L.76,80.91a2.43,2.43,0,0,0,0,3.42l1.43,1.43a1.44,1.44,0,0,1,0,2L.78,89.22A2.39,2.39,0,0,0,.08,91h8v0l9.6-2.7A38.82,38.82,0,0,1,28,86.94,28.52,28.52,0,0,0,29,79.5Z"
  fill="#a3b214" />
  <path d="M8.08,49H.15a2.39,2.39,0,0,0,.71,1.71l1.43,1.43a1.45,1.45,0,0,1,.42,1,1.47,1.47,0,0,1-.42,1L.77,55.65a2.43,2.43,0,0,0,0,3.42l1.41,1.41a1.44,1.44,0,0,1,0,2L.75,64a2.43,2.43,0,0,0,0,3.42l1.47,1.47a1.44,1.44,0,0,1,0,2.05L.7,72.42A2.47,2.47,0,0,0,0,74.15a2.4,2.4,0,0,0,.71,1.72l1.52,1.52a1.44,1.44,0,0,1,0,2.05L.76,80.91a2.43,2.43,0,0,0,0,3.42l1.43,1.43a1.44,1.44,0,0,1,0,2.05L.78,89.22A2.39,2.39,0,0,0,.08,91h8Z"
  fill="#abc213" />
  <path d="M131.92,91.05h7.94a2.39,2.39,0,0,0-.71-1.71l-1.43-1.43a1.45,1.45,0,0,1-.42-1,1.47,1.47,0,0,1,.42-1l1.51-1.51a2.43,2.43,0,0,0,0-3.42l-1.41-1.41a1.44,1.44,0,0,1,0-2.05L139.25,76a2.43,2.43,0,0,0,0-3.42l-1.47-1.47a1.44,1.44,0,0,1,0-2.05l1.52-1.52a2.44,2.44,0,0,0,0-3.44l-1.52-1.52a1.44,1.44,0,0,1,0-2l1.47-1.47a2.43,2.43,0,0,0,0-3.42l-1.43-1.43a1.44,1.44,0,0,1,0-2l1.41-1.41a2.39,2.39,0,0,0,.7-1.81h-8V91.05Z"
  fill="#abc213" />
  <rect x="46.52" y="75.82" width="53.43" height="7.46" rx="1.86" ry="1.86" transform="translate(-5.37 5.3) rotate(-4)" fill="#a3b214" />
  <path d="M70,76,48.19,77.56a1.86,1.86,0,0,0-1.73,2l.26,3.72a1.86,1.86,0,0,0,2,1.73L70,83.51Z" fill="#abc213" />
  <rect x="48.39" y="77.68" width="49.7" height="3.73" rx="0.93" ry="0.93" transform="matrix(1, -0.07, 0.07, 1, -5.37, 5.3)" fill="#ececec" />
  <path d="M70,77.9,49.25,79.35a.93.93,0,0,0-.86,1l.13,1.86a.93.93,0,0,0,1,.86L70,81.64Z" fill="#fff" />
  <rect x="44.91" y="56.63" width="53.43" height="17.4" rx="3.11" ry="3.11" transform="translate(-4.38 5.16) rotate(-4)" fill="#ececec" />
  <path d="M70,56.73,47.46,58.3a3.11,3.11,0,0,0-2.88,3.32l.78,11.16a3.11,3.11,0,0,0,3.32,2.88L70,74.16Z" fill="#fff" />
</svg>
