<svg xmlns="http://www.w3.org/2000/svg" viewBox="0 0 140 140"><title>propercorn-fiery-worcester</title><g id="propercorn-fiery-worcester"><path d="M112,8H28s3,17,3,24v78c0,5.92-3,22-3,22h84s-3-17.68-3-22V31C109,24.57,112,8,112,8Z" fill="#ed3751"/><path d="M28,132H70V8H28s3,17,3,24v78C31,115.92,28,132,28,132Z" fill="#f93448"/><path d="M72,122s-9-10-11-12-10-5-10-5S46,93,38,91c-1.78-.45-4.46,0-7,.64V110c0,5.92-3,22-3,22v8h84v-8s-.62-3.63-1.29-8c-5.31-2.37-14.32-6-19.71-6C86,118,72,122,72,122Z" fill="#e0e0e0"/><path d="M70,119.78c-2.77-3.07-7.6-8.38-9-9.78-2-2-10-5-10-5S46,93,38,91c-1.78-.45-4.46,0-7,.64V110c0,5.92-3,22-3,22v8H70Z" fill="#ececec"/><rect x="28" y="132" width="84" height="8" fill="#c6c6c6"/><rect x="28" y="132" width="42" height="8" fill="#d1d1d1"/><rect x="28" width="84" height="8" fill="#dd4566"/><rect x="28" width="42" height="8" fill="#e54871"/><rect x="48" y="9" width="44" height="44" rx="2" ry="2" fill="#ececec"/><path d="M70,9H50a2,2,0,0,0-2,2V51a2,2,0,0,0,2,2H70Z" fill="#fff"/><rect x="52" y="30" width="36" height="17" rx="2" ry="2" fill="#db9d4b"/><path d="M70,30H54a2,2,0,0,0-2,2V45a2,2,0,0,0,2,2H70Z" fill="#e8a84c"/><rect x="52" y="16" width="36" height="12" rx="2" ry="2" fill="#1e1e1e"/><path d="M70,16H54a2,2,0,0,0-2,2v8a2,2,0,0,0,2,2H70Z" fill="#282828"/></g></svg>