<svg xmlns="http://www.w3.org/2000/svg" width="131" height="220" viewBox="0 0 131 220">
<g fill="none" fill-rule="evenodd" transform="translate(8 1)">
<polygon fill="#F28159" fill-rule="nonzero" points="33.352 53.304 12.426 50.955 10 91.471 30.926 93.904" transform="scale(-1 1) rotate(-5 0 568.892)"/>
<polygon fill="#C1E9F7" fill-rule="nonzero" points="0 90 42.282 90 42.282 210.038 0 210.038" transform="matrix(-1 0 0 1 42.282 0)"/>
<path fill="#F28159" fill-rule="nonzero" d="M11.5642971,55.2291939 L11.5642971,26.4997289 L13.4863532,18.258412 C15.2576857,19.3004156 16.1445507,19.501192 16.146948,18.8607411 C16.1563199,16.3570818 14.9816106,15.4696916 16.8054328,15.8641794 C22.619705,17.1217907 22.0460707,13.4573765 22.6595632,14.8349997 C24.1789356,18.2468141 43.379594,40.9518067 40.301255,53.8699886 C38.6863886,61.0001539 41.4057442,69.3972646 36.2583577,69.7328018 C34.2397747,69.8166861 25.149501,68.1568778 23.0740654,67.2552068 C18.1080229,65.0977145 14.2714335,61.0890435 11.5642971,55.2291939 Z" transform="matrix(-1 0 0 1 52.2 0)"/>
<g transform="matrix(-1 0 0 1 115 14)">
<rect width="75" height="43" y="4" fill="#43BDD7"/>
<rect width="75" height="15" y="18" fill="#FFCD00"/>
<rect width="37.5" height="43" y="4" fill="#39A1B7"/>
<rect width="37.5" height="15" y="18" fill="#EDAB07"/>
<rect width="18" height="4" x="47" fill="#BCBEC0"/>
<circle cx="37.5" cy="25.5" r="15.5" fill="#BCBEC0"/>
<circle cx="37.5" cy="25.5" r="12.5" fill="#313131"/>
<circle cx="37.5" cy="25.5" r="11.5" fill="#4C4C4C" opacity=".1"/>
<circle cx="37.5" cy="25.5" r="10.5" fill="#0F0F0F" opacity=".1"/>
<ellipse cx="37.5" cy="21" fill="#FFF" fill-opacity=".3" rx="8.5" ry="6"/>
</g>
<g fill-rule="nonzero" transform="scale(-1 1) rotate(5 -193.778 -723.872)">
<path fill="#F28159" d="M26.5478401,10.8315333 L16.2833569,14.2154356 C13.1802851,15.2441151 11.2484853,14.593677 9.86877296,12.0983331 C9.20212662,10.9139996 9.16066508,9.55747292 9.75412677,8.34737196 C10.3798684,7.14937333 11.5224222,6.18145307 12.9642203,5.62792511 L20.6455155,2.90847826 C22.0937696,2.36430034 24.5931914,1.85373354 26.0728806,2.33803921 C27.7162654,2.73438491 28.1924696,4.21933384 28.7853955,5.53415108 C30.0667192,8.04604698 29.6068371,9.76027153 26.5478401,10.8315333 Z" transform="rotate(9 19.396 8.414)"/>
<path fill="#F28159" d="M26.2184929,21.5814617 L19.4131418,23.5137351 C17.1379516,24.4339266 15.9314376,23.4226603 14.9198245,21.1904839 C14.4310355,20.1310543 14.4006357,18.9175916 14.8357653,17.835112 C15.2945626,16.7634585 14.3059801,16.0789806 15.3631148,15.5838296 L22.8213947,12.9698228 C23.883263,12.4830357 25.0988484,12.4527094 26.183765,12.8859385 C27.3887043,13.2404842 28.3548653,14.142431 28.789602,15.3185831 C29.729076,17.5655658 28.4613673,20.6231788 26.2184929,21.5814617 Z" transform="rotate(9 21.816 18.217)"/>
<path fill="#F28159" d="M29.3755883,43.5543599 C28.2425886,42.7966464 27.1990281,41.8504181 26.2449066,40.7156751 C25.7582488,40.1368898 24.361934,37.7121116 22.0559623,33.4413406 C19.780772,34.3615321 17.1834273,33.3247566 16.1718142,31.0925803 C15.6830253,30.0331506 15.6526254,28.8196879 16.087755,27.7372084 C16.5465523,26.6655548 17.3842795,25.7997147 18.4414142,25.3045637 L25.0824307,24.0031133 C26.144299,23.5163263 28.6444721,23.4887712 29.7293888,23.9220003 C30.9343281,24.2765461 30.3421741,24.5631684 30.7769108,25.7393204 C31.7163848,27.9863032 31.6184627,42.596077 29.3755883,43.5543599 Z" transform="rotate(-4 23.56 33.585)"/>
<g transform="translate(.826 5.008)">
<path fill="#F28159" d="M11.963528,9.24910487 L6.33155778,11.6817495 C4.05636757,12.601941 1.45902284,11.5651655 0.447409749,9.33298917 C-0.0413792217,8.2735595 -0.0717790626,7.06009682 0.363350492,5.97761727 C0.822147864,4.9059637 1.65987501,4.04012364 2.7170097,3.54497264 L8.34897997,1.11232801 C9.41084827,0.625540971 10.6264336,0.595214591 11.7113503,1.02844372 C12.9162896,1.38298944 13.8824506,2.28493625 14.3171873,3.46108834 C15.2566613,5.70807106 14.2064024,8.29082203 11.963528,9.24910487 Z"/>
<path fill="#F5A78B" d="M2.38783494,9.75989315 L5.3036176,8.58027946 C6.12937982,8.19313563 6.71655743,7.43139353 6.87971634,6.53561572 C7.03538411,5.61628225 6.6338947,4.69169668 5.85525216,4.17638833 C5.13764541,3.61421389 4.16769075,3.49322192 3.33349418,3.86182468 L0.417711523,5.12007929 L2.38783494,9.75989315 Z"/>
</g>
</g>
<g transform="rotate(-23 46.915 -62.227)">
<g fill-rule="nonzero" transform="matrix(-1 0 0 1 33 0)">
<path fill="#F28159" d="M32.319385,3.37828729 C32.9075987,4.65625603 31.0082859,5.80473774 30.4200722,7.08270648 C29.8628391,8.37960213 26.6178477,10.2917193 25.3349412,10.8851424 C24.8256449,9.68531569 24.4913733,8.89782113 24.3321263,8.5226587 C20.3404105,9.18100369 15.9999585,9.1115303 15.2262811,9.22116609 C12.6408145,9.83023809 10.6147687,10.4699872 9.14814355,11.1404133 C6.47845345,12.2363359 2.42101149,13.7482307 1.25626046,11.1123912 C0.19260041,8.42472891 1.22477788,6.72083694 3.84735878,5.49573803 L18.2914855,0.449027458 C19.6018877,-0.135928671 25.1772927,0.0792945244 25.7981585,0.144675821 C26.4190242,0.210057118 32.0180795,0.944444546 32.5214835,2.22824985 L32.319385,3.37828729 Z"/>
<path fill="#F5A78B" d="M2.83910395,10.8520428 L6.53771128,9.34212549 C7.32249178,8.96081101 7.96883656,8.34512969 8.38701495,7.58055524 C8.64962689,7.0469422 8.62160714,6.20809923 8.30295569,5.06402632 L1.59149932,7.91287053 L2.83910395,10.8520428 Z" transform="rotate(3 5.078 7.958)"/>
</g>
</g>
<g transform="rotate(-26 92.806 -78.124)">
<g fill-rule="nonzero" transform="matrix(-1 0 0 1 14 0)">
<path fill="#F28159" d="M12.06611,1.75909091 C12.8809936,2.6207924 13.313566,3.77380993 13.2661122,4.95768531 C13.2186584,6.14156068 12.6951819,7.25641585 11.8139322,8.05041322 L7.35879154,12.0768595 C6.50432916,12.8404179 5.39555162,13.2590822 4.24859901,13.2512397 C3.0753248,13.2586747 1.96212987,12.7340935 1.22246574,11.8252066 C0.407582127,10.9635051 -0.0249902483,9.81048759 0.0224635365,8.62661222 C0.0699173213,7.44273684 0.593393812,6.32788167 1.47464351,5.5338843 L5.92978416,1.33966942 C6.77991197,0.577839397 7.89916887,0.185405483 9.0399767,0.249173554 C10.2161103,0.307212472 11.3139018,0.854965759 12.06611,1.75909091"/>
<path fill="#F5A78B" d="M4.26476009,11.4723316 L6.70247856,9.12357122 C7.52271718,8.49291016 7.91363149,7.45264171 7.71118965,6.4392737 C7.50658169,5.45392742 6.75563181,4.67195853 5.77782673,4.42605056 C4.79970476,4.1290263 3.73710548,4.38608996 3.00387122,5.09712494 L0.566152753,7.44588527 L4.26476009,11.4723316 Z"/>
</g>
</g>
<g transform="rotate(-34 93.282 -47.094)">
<g fill-rule="nonzero" transform="matrix(-1 0 0 1 14 0)">
<path fill="#F28159" d="M12.5038284,1.91570248 C13.3187121,2.77740397 13.7512844,3.9304215 13.7038306,5.11429688 C13.6563769,6.29817225 13.1329004,7.41302742 12.2516507,8.20702479 L7.79651001,12.4012397 C6.94204763,13.1647981 5.83327009,13.5834623 4.68631748,13.5756198 C3.51304327,13.5830549 2.39984834,13.0584736 1.66018421,12.1495868 C0.845300598,11.2878853 0.412728223,10.1348678 0.460182007,8.95099238 C0.507635792,7.76711701 1.03111228,6.65226183 1.91236198,5.85826446 L6.36750264,1.66404959 C7.22196502,0.900491143 8.33074256,0.481826915 9.47769517,0.489669421 C10.6378798,0.538164282 11.7291992,1.05243692 12.5038284,1.91570248"/>
<path fill="#F5A78B" d="M5.05795538,9.62561493 L7.1807852,7.58025221 C7.87863445,7.03871694 8.21546877,6.15393181 8.05396772,5.28660559 C7.89246667,4.41927938 7.25961017,3.71430531 6.41340088,3.45908688 C5.56719158,3.20386844 4.64899496,3.44104176 4.03314098,4.07391613 L1.91031116,6.11927884 L5.05795538,9.62561493 Z"/>
</g>
</g>
</g>
</svg>