	<svg
		xmlns="http://www.w3.org/2000/svg"
		viewBox="0 0 267.06 241.8">
		<path
			d="M90.86 220.8l-34.7.2-.4-127.7 34.7-.1z"
			fill="#f28159"
		/>
		<path
			d="M93.66 55.2l-34.5-2.8-4 48.3 34.5 2.9z"
			fill="#f28159"
		/>
		<path
			d="M47.86 98.5h50.3v143.1h-50.3z"
			fill="#c1e9f7"
		/>
		<path
			d="M57.36 74.7l19.2.8 15.4 1.4 1.2-15.8-34.6-.7z"
			fill="#dd603a"
		/>
		<path
			d="M56.36 72.3l-9.9-15 3.7-27.2 45.6-22 8.2.3c3.4 15.4 10.3 30.6 4.2 46-3.2 8.5-9.3 20.5-19.5 20.9-4 .1-8.6-2.4-12.8-2.7-3-.2-17.8 2.4-19.5-.3"
			fill="#f28159"
		/>
		<path
			d="M49.96 30.1l-1.4 10.8 8.6 13c30.4 3.1 45.9-11.4 52.3-20l-5.7-25.7-8.2-.3z"
			fill="#dd603a"
		/>
		<path
			d="M102.66 11.3l.5-4.4-53.4 14 2.4 3.2a25.79 25.79 0 0 1 4.3 9l6.9 26.2a24.28 24.28 0 0 1 .6 8.5l-.6 4.8 53.5-14-3.6-4.9a19.33 19.33 0 0 1-2.7-5.6l-7.4-27.7a25.41 25.41 0 0 1-.5-9.1z"
			fill="#39a1b7"
		/>
		<path
			d="M49.66 20.8l2.4 3.2a26.65 26.65 0 0 1 4.3 9l6.9 26.2a24.28 24.28 0 0 1 .6 8.5l-.6 4.9 26.8-7-13.6-51.8z"
			fill="#43bdd7"
		/>
		<path
			d="M118.66 65.2l-53.5 14-1.8-6.7 53.5-14z"
			fill="#3793a5"
		/>
		<path
			d="M118.66 65.2l-26.7 7-1.8-6.7 26.7-7z"
			fill="#328193"
		/>
		<path
			d="M103.16 6.7l-53.5 14-1.8-6.7 53.5-14z"
			fill="#3793a5"
		/>
		<path
			d="M103.16 6.7l-26.8 7-1.7-6.7 26.7-7z"
			fill="#328193"
		/>
		<path
			d="M104.66 54l-32.9 8.6-9.8-37.2 32.8-8.6z"
			fill="#ffcd00"
		/>
		<path
			d="M104.66 54l-16.4 4.3-9.9-37.2 16.4-4.3z"
			fill="#edab07"
		/>
		<path
			d="M111.86 21.8a5.29 5.29 0 0 1-2.8 6.9l-6.7 2.9a5.44 5.44 0 0 1-7-2.8 5.06 5.06 0 0 1-.1-4 5.66 5.66 0 0 1 2.8-2.9l6.7-2.9a5.07 5.07 0 0 1 4-.1 4.73 4.73 0 0 1 3.1 2.9"
			fill="#f28159"
		/>
		<path
			d="M101.38 29.24l3.7-1.5a3.58 3.58 0 0 0 2-2.6 3 3 0 0 0-1.3-3 3.13 3.13 0 0 0-3.2-.4l-3.7 1.6z"
			fill="#fff"
			opacity=".3"
		/>
		<path
			d="M106.76 7.4a5.75 5.75 0 0 1 0 4.8 6.82 6.82 0 0 1-3.4 3.5l-8.1 3.5a6.33 6.33 0 0 1-8.2-3.3 6.52 6.52 0 0 1 3.3-8.3l8.2-3.6a6 6 0 0 1 4.9 0 6.12 6.12 0 0 1 3.3 3.4"
			fill="#f28159"
		/>
		<path
			d="M94.22 16.6l4.4-1.8a5 5 0 0 0 2.2-2.1 3.19 3.19 0 0 0-.1-3 3.7 3.7 0 0 0-5.1-2.1l-4.4 1.8z"
			fill="#fff"
			opacity=".3"
		/>
		<path
			d="M112.76 31.9a5.25 5.25 0 0 1-.3 7.5l-5.3 4.8a5.49 5.49 0 0 1-3.7 1.4 4.6 4.6 0 0 1-3.6-1.7 5.25 5.25 0 0 1 .3-7.5l5.3-5a5.11 5.11 0 0 1 3.7-1.3 5 5 0 0 1 3.6 1.8"
			fill="#f28159"
		/>
		<path
			d="M105.58 42.36l2.9-2.8a3.24 3.24 0 0 0 1.2-3.2 3.13 3.13 0 0 0-2.3-2.4 3.34 3.34 0 0 0-3.3.8l-2.9 2.8z"
			fill="#fff"
			opacity=".3"
		/>
		<path
			d="M115.66 45.2a5.25 5.25 0 0 1-.3 7.5l-5.3 5a5.49 5.49 0 0 1-3.7 1.4 4.6 4.6 0 0 1-3.6-1.7 5.25 5.25 0 0 1 .3-7.5l5.3-5a5.49 5.49 0 0 1 3.7-1.4 5.12 5.12 0 0 1 3.6 1.7"
			fill="#f28159"
		/>
		<path
			d="M108.44 55.89l2.9-2.8a3.23 3.23 0 1 0-4.3-4.8l-2.9 2.8z"
			fill="#fff"
			opacity=".3"
		/>
		<path
			d="M56.26 2.7s4.8 2.1 4.9 8.6l-1.8 11.4.1 9.7c1.1 1.5.8 15.9 1.7 20.5.8 5.1-6.2 14.6-10 10.9-6.3-6.1-7.8-16.9-6.3-25.3l3.2-19.8z"
			fill="#f28159"
		/>
	</svg>