<svg xmlns="http://www.w3.org/2000/svg" viewBox="1259 -318.865 161.023 54.865"><defs><style>.cls-1 { fill: #003f94; } .cls-2 { fill: #0047a6; } .cls-3 { fill: #031d7c; } .cls-4 { fill: #02196e; } .cls-5 { fill: #2d3a5e; } .cls-6 { fill: #283354; } .cls-7 { fill: #fbd626; } .cls-8 { fill: #e6e6f0; } .cls-9 { fill: #e0bf21; } .cls-10 { fill: #cdcdd6; }</style></defs><g id="Group_62" data-name="Group 62"><g id="Group_61" data-name="Group 61"><path id="Path_236" d="M142.42,52.129l8.172,2.606V0L143.11,2.346a66.007,66.007,0,0,1-19.452,3H33.422A54.878,54.878,0,0,1,16.963,2.867L8.1,0V54.865l11.049-3.519a41.748,41.748,0,0,1,11.97-1.824h93.345A64.5,64.5,0,0,1,142.42,52.129Z" data-name="Path 236" class="cls-1" transform="translate(1260.223 -318.865)"/><path id="Path_237" d="M79.306,5.343H33.422A54.878,54.878,0,0,1,16.963,2.867L8.1,0V54.865l11.049-3.519a41.748,41.748,0,0,1,11.97-1.824H79.306Z" data-name="Path 237" class="cls-2" transform="translate(1260.223 -318.865)"/><path id="Path_238" d="M9.323,0H.23a3.646,3.646,0,0,0,.806,2.215L2.647,4.04a1.8,1.8,0,0,1,.46,1.3,2.492,2.492,0,0,1-.46,1.3L.921,8.732a3.547,3.547,0,0,0,0,4.431l1.611,1.825a2.183,2.183,0,0,1,0,2.606L.921,19.548a3.547,3.547,0,0,0,0,4.431l1.726,1.955a1.9,1.9,0,0,1,0,2.606h0L.921,30.5A3.191,3.191,0,0,0,0,32.841a3.646,3.646,0,0,0,.806,2.215l1.726,1.955a1.9,1.9,0,0,1,0,2.606h0L.921,41.7a3.547,3.547,0,0,0,0,4.431l1.611,1.825a1.9,1.9,0,0,1,0,2.606h0L.921,52.389a3.377,3.377,0,0,0-.806,2.346H9.323Z" data-name="Path 238" class="cls-3" transform="translate(1259 -318.865)"/><path id="Path_239" d="M131.9,54.744h9.093a3.646,3.646,0,0,0-.806-2.215L138.576,50.7a1.8,1.8,0,0,1-.46-1.3,2.492,2.492,0,0,1,.46-1.3l1.726-1.955a3.547,3.547,0,0,0,0-4.431l-1.611-1.824a1.9,1.9,0,0,1,0-2.606h0l1.611-1.955a3.547,3.547,0,0,0,0-4.431l-1.726-1.955a1.9,1.9,0,0,1,0-2.606h0l1.726-1.955a3.546,3.546,0,0,0,0-4.431l-1.726-1.955a2.183,2.183,0,0,1,0-2.606l1.726-1.955A3.547,3.547,0,0,0,140.3,9l-1.611-1.825a2.183,2.183,0,0,1,0-2.606L140.3,2.746A3.377,3.377,0,0,0,141.108.4H131.9V54.744Z" data-name="Path 239" class="cls-4" transform="translate(1278.915 -318.744)"/></g><path id="Path_297" d="M0,2.9c11-6.741,33-5.955,44,0s8.143,17.864-2.857,23.819S11.887,31.464,1.6,25.509-11,9.646,0,2.9Z" data-name="Path 297" class="cls-5" transform="translate(1318 -304.14)"/><path id="Path_298" d="M21.6-1.847C29.658-1.783,38.445-.1,44,2.9c11,5.955,8.143,17.864-2.857,23.819-5.2,2.817-12.459,4.046-19.593,3.905C21.55,19.217,21.6,7.52,21.6-1.847Z" data-name="Path 298" class="cls-6" transform="translate(1318 -304.14)"/><path id="Path_242" d="M5.948.836l2.027-.5L12.286,7.8l1.756,4.088,4.922,1.5-1.3,2.568s-2.406,3.3-4.849,3.947-4.391-2.074-4.391-2.074S2.577,9.233,1.962,5.8,5.948.836,5.948.836Z" data-name="Path 242" class="cls-7" transform="rotate(30 1208.68 2236.23)"/><g id="Group_75" data-name="Group 75"><path id="Path_294" d="M5.948.836l2.027-.5L12.286,7.8l1.756,4.088,4.922,1.5-1.3,2.568s-2.406,3.3-4.849,3.947-4.391-2.074-4.391-2.074S2.577,9.233,1.962,5.8,5.948.836,5.948.836Z" data-name="Path 294" class="cls-7" transform="rotate(30 1208.127 2236.377)"/><path id="Path_245" d="M22.318,15.3c.178-3.293-.006-5.718,2.119-7.628s5.649-1.605,8.5-1.681c1.694-.045,14.123,1.784,26.024,2.768C68.822,9.572,78.9,9.6,78.9,9.6s.211,17.63.211,20.96c0,0-12.459-.117-23.672.739-8.756.669-17.181.96-17.97,1.045-1.745.188-9.646,1.087-11.8.526a3.914,3.914,0,0,1-3.35-3.678C22.055,26.909,22.2,17.563,22.318,15.3Z" data-name="Path 245" class="cls-8" transform="translate(1261.093 -309.987)"/></g><g id="Group_74" data-name="Group 74"><path id="Path_296" d="M5.948.836l2.027-.5L12.286,7.8l1.756,4.088,4.922,1.5-1.3,2.568s-2.406,3.3-4.849,3.947-4.391-2.074-4.391-2.074S2.577,9.233,1.962,5.8,5.948.836,5.948.836Z" data-name="Path 296" class="cls-9" transform="rotate(-150 662.06 -325.57)"/><path id="Path_295" d="M22.318,15.3c.178-3.293-.006-5.718,2.119-7.628s5.7-1.15,8.551-1.225c1.492-.04,11.355.611,21.63,1.225,11,.658,22.433.836,23,.836,0,0-.015,17.611-.015,20.94,0,0-10.829.765-21.509,1.528-8.941.639-17.809,1.281-18.631,1.37-1.745.188-9.646,1.087-11.8.526a3.914,3.914,0,0,1-3.35-3.678C22.055,26.909,22.2,17.563,22.318,15.3Z" data-name="Path 295" class="cls-10" transform="rotate(180 708.58 -135.474)"/></g></g></svg>