<svg xmlns="http://www.w3.org/2000/svg" viewBox="1259 -408.501 161.023 54.501"><defs><style>.cls-1 { fill: #e6e6f0; } .cls-2 { fill: #cdcdd6; } .cls-3 { fill: #43297e; } .cls-4 { fill: #3b2470; } .cls-5 { fill: #2c1a6b; } .cls-6 { fill: #011662; } .cls-7 { fill: #e2d400; } .cls-8 { fill: #ffeb00; } .cls-9 { fill: #db5025; } .cls-10 { fill: #0091e3; } .cls-11 { fill: #452b80; } .cls-12 { fill: #371f6c; } .cls-13 { fill: #d53201; } .cls-14 { fill: #ba0b00; } .cls-15 { fill: #008be0; } .cls-16 { fill: #007cc8; }</style></defs><g id="Group_84" data-name="Group 84"><g id="Group_81" data-name="Group 81"><g id="Group_80" data-name="Group 80"><path id="Path_327" d="M1404.912-356.719l8.47 2.589v-54.371l-7.754 2.33a71.152 71.152 0 0 1-20.161 2.977h-93.53a59.162 59.162 0 0 1-17.059-2.46l-9.186-2.847v54.5l11.453-3.5a45.006 45.006 0 0 1 12.407-1.812h96.75a69.555 69.555 0 0 1 18.61 2.594z" data-name="Path 327" class="cls-1"/><path id="Path_328" d="M1404.912-356.719l8.47 2.589v-54.371l-7.754 2.33a71.153 71.153 0 0 1-20.161 2.977l-46.314.076v43.9l47.149-.091a69.555 69.555 0 0 1 18.61 2.59z" data-name="Path 328" class="cls-2"/><path id="Path_329" d="M1274.072-405.829a67.794 67.794 0 0 0-8.38-2.672v54.5c1.612-.633 2.773-.863 4.184-1.38a44.861 44.861 0 0 1 4.69-1.478s-2.394-9.418-2.394-24.726 1.9-24.244 1.9-24.244z" data-name="Path 329" class="cls-3"/><path id="Path_330" d="M1404.412-356.867l9.177 2.867v-54.5s-2.314.6-3.547 1.052c-.991.328-4.607 1.169-4.607 1.169s2.31 9.59 2.31 25.364a83.421 83.421 0 0 1-3.333 24.048z" data-name="Path 330" class="cls-4"/><path id="Path_331" d="M1265.692-408.501h-6.527a4.537 4.537 0 0 0 .579 2.2l1.156 1.813a2.235 2.235 0 0 1 .33 1.295 3.126 3.126 0 0 1-.33 1.292l-1.239 2.073a4.621 4.621 0 0 0 0 4.4l1.157 1.812a2.859 2.859 0 0 1 0 2.589l-1.157 1.944a4.621 4.621 0 0 0 0 4.4l1.239 1.944a2.437 2.437 0 0 1 0 2.589l-1.239 1.941a3.914 3.914 0 0 0-.661 2.331 4.537 4.537 0 0 0 .578 2.2l1.239 1.942a2.437 2.437 0 0 1 0 2.589l-1.156 2.072a4.621 4.621 0 0 0 0 4.4l1.157 1.812a2.437 2.437 0 0 1 0 2.589l-1.157 1.814a4.225 4.225 0 0 0-.578 2.33h6.609z" data-name="Path 331" class="cls-5"/><path id="Path_332" d="M1413.413-354.001h6.527a4.615 4.615 0 0 0-.578-2.222l-1.157-1.83a2.273 2.273 0 0 1-.33-1.307 3.181 3.181 0 0 1 .33-1.307l1.239-1.96a4.7 4.7 0 0 0 0-4.444l-1.157-1.83a2.48 2.48 0 0 1 0-2.614l1.157-1.96a4.7 4.7 0 0 0 0-4.444l-1.239-1.96a2.48 2.48 0 0 1 0-2.614l1.239-1.96a4.7 4.7 0 0 0 0-4.444l-1.239-1.96a2.912 2.912 0 0 1 0-2.614l1.239-1.96a4.7 4.7 0 0 0 0-4.444l-1.157-1.826a2.912 2.912 0 0 1 0-2.614l1.157-1.83a4.3 4.3 0 0 0 .578-2.356h-6.609v54.5z" data-name="Path 332" class="cls-6"/></g></g><g id="Group_85" data-name="Group 85"><g id="Group_82" data-name="Group 82"><path id="Path_333" d="M1393.296-370.477c-3.111-.667-4.762-4.792-4.824-5.128-.107.3-.341.374-.485.71-.457 1.066-1.286 1.357-2.377 1.727a5.149 5.149 0 0 1-3.126 0c-1.5-.389-2.631-2.558-2.837-2.181a4.575 4.575 0 0 1-3.1 2.181 8.046 8.046 0 0 1-4.635 0c-2.849-.583-4.109-3.747-4.109-3.747s-.065-.225-.834 1.069c-1.523 2.563-5.446 3.261-8.556 2.678a7.826 7.826 0 0 1-4.228-2.678 13.814 13.814 0 0 1-4.32 2.338 15.788 15.788 0 0 1-6.512.34c-1.641-.252-4.915-3.093-4.915-3.093l-1.363 2.309v-15.222a6.7 6.7 0 0 0 3.34-1.135c1.752-1.139 3.323-1.167 5.991-1.019s3.08.058 5.068 1.019 2.536 1.519 2.712 2.075c.42-1.257 1.024-1.911 3-2.7a8.847 8.847 0 0 1 5.26-.6 9.23 9.23 0 0 1 3.559.935 5.216 5.216 0 0 1 1.8 2.022 8.081 8.081 0 0 1 2.548-2.022 7.372 7.372 0 0 1 4.95-.935s3.208.188 4.351 2.361c.177.336 1.178-1.32 2.837-1.76a5.955 5.955 0 0 1 4.681.334 3.787 3.787 0 0 1 2.006 2.022 5.587 5.587 0 0 1 1.983-2.022 8.192 8.192 0 0 1 5.428-.935s4.052.187 5.3 2.673 1.18 3.473 1.453 6.94.069 5.291-1.453 8.223c-1.258 2.422-4.487 3.395-6.981 3.395a7.653 7.653 0 0 1-1.612-.174z" data-name="Path 333" class="cls-7"/><path id="Path_334" d="M1337.021-374.085c-1.523 2.933-5.525 3.754-8.636 3.087a6.1 6.1 0 0 1-4.255-4.105 4.184 4.184 0 0 1-2.043 1.557 5.116 5.116 0 0 1-3.688 0 4.407 4.407 0 0 1-2.869-3.3 10.19 10.19 0 0 1-1.1 1.9c-.741 1.248-2.852 1.529-4.555 1.783a10.175 10.175 0 0 1-3.676-.216c-2.254-.423-2.379-1.512-3.372-2.946-1.523 2.563-4.411 3.529-7.522 2.946-1.347-.252-3.239-.692-4.042-1.8-1.925 2.077-6.611 2.185-9.975 1.657-3.711-.583-5.527-5.064-5.527-5.064a16.442 16.442 0 0 1-.583-6.19c.444-2.8 1.26-3.614 3.628-5.359a10.3 10.3 0 0 1 5.907-1.527s4.232-.087 6.056 1.527a10.737 10.737 0 0 1 6.14-1.229c3.015.339 4.67.413 5.919 2.586.275.479 1.024-1.438 3.254-2.24 3.611-.935 4.152-.453 5.044-.346a5.546 5.546 0 0 1 4.41 2.586c.517.9-.019-.888 2.141-1.638a6.723 6.723 0 0 1 2.963-.6c.4.064 3.483.237 4.362 2.41.935-.715.585-.633 1.475-1.527a7.137 7.137 0 0 1 4.369-.883s4.933-.587 6.181 1.9z" data-name="Path 334" class="cls-8"/></g><g id="Group_83" data-name="Group 83"><path id="Path_335" d="M1280.197-388.843c2.338-1.443 5.943-.963 5.943-.963s4.409.345 5.878 2.143 1.068 2.409 1.389 4.917.4 3.647-1.389 5.768-5.281 3.042-8.944 2.559-5.71-4.49-5.71-4.49a11.545 11.545 0 0 1-.575-5.123c.438-2.318 1.071-3.365 3.408-4.811z" data-name="Path 335" class="cls-9"/><path id="Path_336" d="M1292.259-388.843c1.96-1.443 4.982-.963 4.982-.963s3.7.345 4.928 2.143.9 2.409 1.165 4.917.339 3.647-1.165 5.768-4.427 3.042-7.5 2.559-4.787-4.49-4.787-4.49a13.6 13.6 0 0 1-.482-5.123 6.083 6.083 0 0 1 2.859-4.811z" data-name="Path 336" class="cls-10"/><path id="Path_337" d="M1304.889-388.843c1.96-1.443 4.982-.963 4.982-.963s3.7.345 4.928 2.143.9 2.409 1.165 4.917.339 3.647-1.165 5.768-4.427 3.042-7.5 2.559-4.787-4.49-4.787-4.49a13.6 13.6 0 0 1-.482-5.123 6.083 6.083 0 0 1 2.859-4.811z" data-name="Path 337" class="cls-11"/><path id="Path_338" d="M1341.135-388.843c2.394-1.443 6.085-.963 6.085-.963s4.514.345 6.019 2.143 1.094 2.409 1.422 4.917.414 3.647-1.422 5.768-5.408 3.042-9.159 2.559-5.846-4.49-5.846-4.49a11.3 11.3 0 0 1-.589-5.123c.448-2.318 1.096-3.365 3.49-4.811z" data-name="Path 338" class="cls-12"/><path id="Path_339" d="M1317.401-388.843a4 4 0 0 1 3.506-.963s2.6.345 3.468 2.143.63 2.409.82 4.917.238 3.647-.82 5.768a4.588 4.588 0 0 1-5.277 2.559c-2.161-.483-3.368-4.49-3.368-4.49a19.051 19.051 0 0 1-.34-5.123c.258-2.318.632-3.365 2.011-4.811z" data-name="Path 339" class="cls-13"/><path id="Path_340" d="M1356.556-388.843c1.96-1.443 4.982-.963 4.982-.963s3.7.345 4.928 2.143.9 2.409 1.165 4.917.339 3.647-1.165 5.768-4.427 3.042-7.5 2.559-4.787-4.49-4.787-4.49a13.6 13.6 0 0 1-.482-5.123 6.083 6.083 0 0 1 2.859-4.811z" data-name="Path 340" class="cls-14"/><path id="Path_341" d="M1326.704-388.691c1.96-1.651 4.982-1.1 4.982-1.1s3.7.395 4.928 2.452.9 2.756 1.165 5.625.339 4.172-1.165 6.6a7.078 7.078 0 0 1-7.5 2.928c-3.071-.552-4.787-5.137-4.787-5.137a17.678 17.678 0 0 1-.482-5.861c.368-2.659.899-3.859 2.859-5.507z" data-name="Path 341" class="cls-15"/><path id="Path_342" d="M1370.086-388.843a6.443 6.443 0 0 1 4.564-.963s3.385.345 4.514 2.143.82 2.409 1.067 4.917.31 3.647-1.067 5.768a6.63 6.63 0 0 1-6.869 2.559c-2.813-.483-4.385-4.49-4.385-4.49a14.784 14.784 0 0 1-.442-5.123 6.2 6.2 0 0 1 2.618-4.811z" data-name="Path 342" class="cls-16"/><path id="Path_343" d="M1380.998-388.843a4.187 4.187 0 0 1 3.6-.963s2.669.345 3.558 2.143.647 2.409.841 4.917.245 3.647-.841 5.768a4.744 4.744 0 0 1-5.414 2.559c-2.218-.483-3.456-4.49-3.456-4.49a18.583 18.583 0 0 1-.349-5.123c.261-2.318.644-3.365 2.061-4.811z" data-name="Path 343" class="cls-12"/><path id="Path_344" d="M1391.001-388.691c1.96-1.651 4.982-1.1 4.982-1.1s3.7.395 4.928 2.452.9 2.756 1.165 5.625.339 4.172-1.165 6.6a7.078 7.078 0 0 1-7.5 2.928c-3.071-.552-4.787-5.137-4.787-5.137a17.678 17.678 0 0 1-.482-5.861c.368-2.659.899-3.859 2.859-5.507z" data-name="Path 344" class="cls-14"/></g></g></g></svg>