<svg xmlns="http://www.w3.org/2000/svg" viewBox="1283 -175 114 140"><defs><style>.cls-1 { fill: #753028; } .cls-2 { fill: #83362d; } .cls-3 { fill: #d7c69e; } .cls-4 { fill: #f1deb1; } .cls-5 { fill: #5f2c28; } .cls-6 { fill: #542723; } .cls-7 { fill: #191516; } .cls-8 { fill: #1d1819; } .cls-9 { fill: #d9c49c; } .cls-10 { fill: #cbd1d1; } .cls-11 { fill: #e4eaea; }</style></defs><g id="Group_90" data-name="Group 90" transform="translate(-89 -437)"><g id="Group_89" data-name="Group 89"><g id="Group_88" data-name="Group 88"><path id="Path_347" d="M1482.6 285.1l3.4-8.6h-114l3.1 7.8a54.805 54.805 0 0 1 3.9 20.4v56.2a46.66 46.66 0 0 1-3.3 17.3l-3.7 9.4h114l-4.6-11.6a33.993 33.993 0 0 1-2.4-12.6v-59.5a50.285 50.285 0 0 1 3.6-18.8z" data-name="Path 347" class="cls-1"/><path id="Path_370" d="M1429.049 276.527L1372 276.5l3.1 7.8a54.805 54.805 0 0 1 3.9 20.4v56.2a46.66 46.66 0 0 1-3.3 17.3l-3.7 9.4 56.937.019V332c0-21.615.112-55.473.112-55.473z" data-name="Path 370" class="cls-2"/><path id="Path_349" d="M1482.6 285.1l3.4-8.6h-114l3.1 7.8a54.805 54.805 0 0 1 3.9 20.4v35.823l19.873-8.523 69.09-4.415 11.037-6.076V303.9a50.285 50.285 0 0 1 3.6-18.8z" data-name="Path 349" class="cls-3"/><path id="Path_365" d="M1428.892 276.5H1372l3.1 7.8a54.805 54.805 0 0 1 3.9 20.4v35.823l19.873-8.523 30.383-1.942z" data-name="Path 365" class="cls-4"/><path id="Rectangle_152" d="M1372 387.6h114V402h-114z" data-name="Rectangle 152" class="cls-5"/><path id="Rectangle_161" d="M1429 387.6h57V402h-57z" data-name="Rectangle 161" class="cls-6"/><path id="Rectangle_154" d="M1372 262h114v14.4h-114z" data-name="Rectangle 154" class="cls-5"/><path id="Rectangle_160" d="M1429 262h57v14.4h-57z" data-name="Rectangle 160" class="cls-6"/></g></g><circle id="Ellipse_9" cx="31.5" cy="31.5" r="31.5" data-name="Ellipse 9" class="cls-7" transform="translate(1397.5 301)"/><path id="Path_366" d="M1429 301c0 19.074.036 16.621 0 32.69-.034 15.431 0 13.025 0 30.31a31.5 31.5 0 0 1 0-63z" data-name="Path 366" class="cls-8"/><ellipse id="Ellipse_10" cx="23.5" cy="24" data-name="Ellipse 10" class="cls-9" rx="23.5" ry="24" transform="translate(1405.5 309)"/><path id="Path_367" d="M1429 309c0 7.144-.362 12.019 0 23.531.391 12.407 0 12.964 0 24.469a23.754 23.754 0 0 1-23.5-24 23.754 23.754 0 0 1 23.5-24z" data-name="Path 367" class="cls-4"/><path id="Path_353" d="M1379.1 322.7l100.012-13.65-.089 28.864-99.923 13.702z" data-name="Path 353" class="cls-7"/><path id="Path_368" d="M1379.1 322.7l49.738-6.769v15.848c0 8.155-.032 13.091-.032 13.091l-49.842 6.794z" data-name="Path 368" class="cls-8"/><path id="Path_355" d="M1401.740028 326.186032l58.052446-8.607974-3.846454 18.120566-58.708158 8.81973z" data-name="Path 355" class="cls-10"/><path id="Path_369" d="M1401.740028 326.186032l27.838716-4.16012.003226 17.64141-32.344178 4.85203z" data-name="Path 369" class="cls-11"/></g></svg>