<svg xmlns="http://www.w3.org/2000/svg" viewBox="0 0 71.74 81.81">
  <path fill="#da5700" d="M69.6 13.5l2.14-5H-.03l2 4.54a30 30 0 0 1 2.45 11.92V57.8a25.56 25.56 0 0 1-2.07 10.11L-.03 73.4h71.77l-2.89-6.78a18.62 18.62 0 0 1-1.51-7.36V24.49A27.55 27.55 0 0 1 69.6 13.5z"/>
  <path fill="#c34d00" d="M69.6 13.5l2.14-5H35.56v64.9h36.18l-2.89-6.78a18.62 18.62 0 0 1-1.51-7.36V24.49A27.55 27.55 0 0 1 69.6 13.5z"/>
  <path fill="#cb3b00" d="M0 73.39h71.74v8.41H0z"/>
  <path fill="#b53400" d="M35.61 73.39h36.14v8.41H35.61z"/>
  <path fill="#cb3b00" d="M0 0h71.74v8.41H0z"/>
  <path fill="#b53400" d="M35.61 0h36.14v8.41H35.61z"/>
  <path fill="#f1c670" d="M35.87 18.54a22.11 22.11 0 0 1 22.1 22.11 22.11 22.11 0 0 1-22.1 22.11 22.11 22.11 0 0 1-22.11-22.11 22.11 22.11 0 0 1 22.11-22.11z"/>
  <path fill="#d7b164" d="M35.8 18.54h.42a22.11 22.11 0 0 1 22.11 22.11 22.11 22.11 0 0 1-22.11 22.11h-.42V18.54z"/>
  <path fill="#46381b" d="M21.37 33.2h29a4.85 4.85 0 0 1 4.6 5v6.49a4.85 4.85 0 0 1-4.61 5h-29a4.85 4.85 0 0 1-4.61-5V38.2a4.85 4.85 0 0 1 4.62-5z"/>
</svg>
