<?xml version="1.0" encoding="utf-8"?>
<svg version="1.1" xmlns="http://www.w3.org/2000/svg" viewBox="0 0 140 140">
  <path d="M122.13,98.08l8.09,1.91V40l-7.35,1.74a83.51,83.51,0,0,1-19.12,2.18h-69a71.15,71.15,0,0,1-16.18-1.84L9.78,40v60l10.87-2.57a51.52,51.52,0,0,1,11.81-1.34h72.08A77.12,77.12,0,0,1,122.13,98.08Z" fill="#759e28" />
  <path d="M34.73,43.9a71.15,71.15,0,0,1-16.18-1.84L9.78,40v60l10.87-2.57a51.52,51.52,0,0,1,11.81-1.34H70V43.9Z" fill="#7da82b" />
  <path d="M6.5,40H.18A2.82,2.82,0,0,0,1,42l1.74,1.71A1.68,1.68,0,0,1,3.28,45a1.69,1.69,0,0,1-.51,1.22L.94,48A2.85,2.85,0,0,0,.94,52l1.71,1.68a1.7,1.7,0,0,1,0,2.44L.92,57.86a2.85,2.85,0,0,0,0,4.07L2.7,63.69a1.7,1.7,0,0,1,0,2.44L.86,67.94a2.87,2.87,0,0,0,0,4.1L2.7,73.85a1.7,1.7,0,0,1,0,2.44L.92,78a2.85,2.85,0,0,0,0,4.07l1.73,1.7a1.7,1.7,0,0,1,0,2.44L.94,87.93A2.85,2.85,0,0,0,.94,92l1.83,1.8a1.71,1.71,0,0,1,0,2.44L1,98a2.86,2.86,0,0,0-.85,2h9.6V40Z" fill="#abc213" />
  <path d="M133.5,100h6.33a2.82,2.82,0,0,0-.85-2l-1.74-1.71a1.71,1.71,0,0,1,0-2.44l1.83-1.8a2.85,2.85,0,0,0,0-4.07l-1.71-1.68a1.7,1.7,0,0,1,0-2.44l1.73-1.7a2.85,2.85,0,0,0,0-4.07L137.3,76.3a1.7,1.7,0,0,1,0-2.44L139.14,72a2.87,2.87,0,0,0,0-4.1l-1.84-1.81a1.7,1.7,0,0,1,0-2.44l1.78-1.75a2.85,2.85,0,0,0,0-4.07l-1.73-1.7a1.7,1.7,0,0,1,0-2.44l1.71-1.68a2.85,2.85,0,0,0,0-4.07l-1.83-1.8a1.71,1.71,0,0,1,0-2.44L139,42a2.82,2.82,0,0,0,.85-2h-9.61v60h3.28Z" fill="#abc213" />
  <path d="M20.66,97.42a51.52,51.52,0,0,1,11.81-1.34h72.07a77.12,77.12,0,0,1,17.59,2l8.09,1.91V80.22H9.78V100Z" fill="#8e361b" />
  <path d="M70,80.22V96.07h34.54a77.12,77.12,0,0,1,17.59,2l8.09,1.91V80.22Z" fill="#822b1a" />
  <path d="M2.65,83.82a1.7,1.7,0,0,1,0,2.44L.94,87.94A2.85,2.85,0,0,0,.94,92l1.83,1.8a1.71,1.71,0,0,1,0,2.44L1,98a2.82,2.82,0,0,0-.85,2h9.6V80.22H.07a2.81,2.81,0,0,0,.84,1.89Z" fill="#93361c" />
  <path d="M130.22,100h9.61a2.82,2.82,0,0,0-.85-2l-1.74-1.71a1.71,1.71,0,0,1,0-2.44l1.83-1.8a2.85,2.85,0,0,0,0-4.07l-1.71-1.68a1.7,1.7,0,0,1,0-2.44l1.73-1.7a2.81,2.81,0,0,0,.84-1.89h-9.71V100Z" fill="#93361c" />
  <path d="M86.18,90.11H70V85.78H86.18a2.16,2.16,0,0,1,2.16,2.16h0A2.15,2.15,0,0,1,86.18,90.11Z" fill="#ececec" />
  <path d="M53.82,85.78H70v4.33H53.82A2.16,2.16,0,0,1,51.66,88h0A2.15,2.15,0,0,1,53.82,85.78Z" fill="#fff" />
  <path d="M86.18,74.92H70V70.59H86.18a2.16,2.16,0,0,1,2.16,2.16h0A2.15,2.15,0,0,1,86.18,74.92Z" fill="#822b1a" />
  <path d="M53.82,70.59H70v4.33H53.82a2.16,2.16,0,0,1-2.16-2.16h0A2.15,2.15,0,0,1,53.82,70.59Z" fill="#8e361b" />
  <path d="M107,51.25H33a3.24,3.24,0,0,0-3.26,3.2v1.76h0l.18,13.64c0,1.65,1.58,2.41,3.49,1.78a115.18,115.18,0,0,1,73.2,0c1.9.64,3.46-.13,3.49-1.78l.18-13.63h0V54.44A3.25,3.25,0,0,0,107,51.25Z" fill="#ffe800" />
  <path d="M107,51.25H70V65.67a115.06,115.06,0,0,1,36.6,6c1.9.64,3.46-.13,3.49-1.78l.18-13.63h0V54.45A3.25,3.25,0,0,0,107,51.25Z" fill="#efd700" />
</svg>
