<?xml version="1.0" encoding="utf-8"?>
<svg version="1.1" xmlns="http://www.w3.org/2000/svg" viewBox="0 0 140 140">
	<path fill="#759E28" d="M122.13,98.09l8.09,1.91V40l-7.35,1.74c-6.09,1.44-12.57,2.18-19.12,2.18H70H34.73 c-5.54,0-11.03-0.63-16.18-1.84L9.78,40v60l10.87-2.57c3.76-0.89,7.76-1.34,11.81-1.34H70h34.54 C110.56,96.09,116.53,96.77,122.13,98.09z"/>
	<path fill="#7DA82B" d="M34.73,43.91c-5.54,0-11.03-0.63-16.18-1.84L9.78,40v60l10.87-2.57c3.76-0.89,7.76-1.34,11.81-1.34H70V43.91 H34.73z"/>
	<path fill="#ABC213" d="M6.5,40L6.5,40H0.18c0,0.77,0.3,1.49,0.85,2.03l1.74,1.71c0.33,0.32,0.51,0.75,0.51,1.22 c0,0.46-0.18,0.9-0.51,1.22l-1.83,1.8c-1.14,1.12-1.14,2.95,0,4.07l1.71,1.68c0.69,0.67,0.69,1.77,0,2.44l-1.73,1.7 c-1.14,1.12-1.14,2.95,0,4.07L2.7,63.7c0.69,0.67,0.69,1.77,0,2.44l-1.84,1.81C0.28,68.51,0,69.26,0,70s0.28,1.49,0.86,2.05 l1.84,1.81c0.69,0.67,0.69,1.77,0,2.44l-1.78,1.75c-1.14,1.12-1.14,2.95,0,4.07l1.73,1.7c0.69,0.67,0.69,1.77,0,2.44l-1.71,1.68 c-1.14,1.12-1.14,2.95,0,4.07l1.83,1.8c0.33,0.32,0.51,0.76,0.51,1.22s-0.18,0.9-0.51,1.22l-1.74,1.71 c-0.55,0.55-0.85,1.27-0.85,2.04H6.5h3.28V40H6.5z"/>
	<path fill="#ABC213" d="M133.5,100L133.5,100h6.33c0-0.77-0.3-1.49-0.85-2.03l-1.74-1.71c-0.33-0.32-0.51-0.76-0.51-1.22 s0.18-0.9,0.51-1.22l1.83-1.8c1.14-1.12,1.14-2.95,0-4.07l-1.71-1.68c-0.69-0.67-0.69-1.77,0-2.44l1.73-1.7 c1.14-1.12,1.14-2.95,0-4.07l-1.78-1.75c-0.69-0.67-0.69-1.77,0-2.44l1.84-1.81c0.58-0.57,0.86-1.31,0.86-2.05s-0.28-1.49-0.86-2.05 l-1.84-1.81c-0.69-0.67-0.69-1.77,0-2.44l1.78-1.75c1.14-1.12,1.14-2.95,0-4.07l-1.73-1.7c-0.69-0.67-0.69-1.77,0-2.44l1.71-1.68 c1.14-1.12,1.14-2.95,0-4.07l-1.83-1.8c-0.33-0.32-0.51-0.76-0.51-1.22c0-0.46,0.18-0.9,0.51-1.22l1.74-1.71 c0.55-0.54,0.85-1.26,0.85-2.03h-6.33h-3.28v60h3.28V100z"/>
	<path fill="#007A43" d="M20.66,97.43c3.76-0.89,7.76-1.34,11.81-1.34H70h34.54c6.02,0,11.99,0.68,17.59,2l8.09,1.91V80.23H9.78V100 L20.66,97.43z"/>
	<path fill="#00713E" d="M70,80.23v15.85l0,0h34.54c6.02,0,11.99,0.68,17.59,2l8.09,1.91V80.23H70z"/>
	<path fill="#008249" d="M2.65,83.83c0.69,0.67,0.69,1.77,0,2.44l-1.71,1.68c-1.14,1.12-1.14,2.95,0,4.07l1.83,1.8 c0.33,0.32,0.51,0.76,0.51,1.22s-0.18,0.9-0.51,1.22l-1.74,1.71c-0.55,0.54-0.85,1.26-0.85,2.03H6.5h3.28V80.23H0.07 c0.03,0.69,0.31,1.37,0.84,1.89L2.65,83.83z"/>
	<path fill="#007A43" d="M130.22,100h3.28l0,0h6.33c0-0.77-0.3-1.49-0.85-2.03l-1.74-1.71c-0.33-0.32-0.51-0.76-0.51-1.22 s0.18-0.9,0.51-1.22l1.83-1.8c1.14-1.12,1.14-2.95,0-4.07l-1.71-1.68c-0.69-0.67-0.69-1.77,0-2.44l1.73-1.7 c0.53-0.52,0.81-1.2,0.84-1.89h-9.71L130.22,100L130.22,100z"/>
	<path fill="#ECECEC" d="M86.18,90.12H70v-4.33h16.18c1.19,0,2.16,0.97,2.16,2.16l0,0C88.35,89.15,87.38,90.12,86.18,90.12z"/>
	<path fill="#FFFFFF" d="M53.82,85.79H70v4.33H53.82c-1.19,0-2.16-0.97-2.16-2.16l0,0C51.65,86.76,52.62,85.79,53.82,85.79z"/>
	<path fill="#007A43" d="M86.18,74.93H70V70.6h16.18c1.19,0,2.16,0.97,2.16,2.16l0,0C88.35,73.96,87.38,74.93,86.18,74.93z"/>
	<path fill="#008249" d="M53.82,70.6H70v4.33H53.82c-1.19,0-2.16-0.97-2.16-2.16l0,0C51.65,71.57,52.62,70.6,53.82,70.6z"/>
	<path fill="#FFE800" d="M107.01,51.26h-74c-1.79,0-3.26,1.44-3.26,3.2v1.76h-0.02c0.06,4.55,0.12,9.1,0.18,13.64 c0.02,1.65,1.58,2.41,3.49,1.78c23.72-7.96,49.47-7.96,73.2,0c1.9,0.64,3.46-0.13,3.49-1.78c0.06-4.54,0.12-9.09,0.18-13.63l0,0 v-1.78C110.26,52.7,108.8,51.26,107.01,51.26z"/>
	<path fill="#EFD700" d="M107.01,51.26H70v14.42c12.37,0,24.74,1.99,36.6,5.97c1.9,0.64,3.46-0.13,3.49-1.78 c0.06-4.54,0.12-9.09,0.18-13.63l0,0v-1.78C110.26,52.7,108.8,51.26,107.01,51.26z"/>
</svg>
