<svg xmlns="http://www.w3.org/2000/svg" viewBox="1557 -583 114 140"><defs><style>.cls-1 { fill: #f6f1e8; } .cls-2 { fill: #dcd7cf; } .cls-3 { fill: #b86088; } .cls-4 { fill: #d26d9c; } .cls-5 { fill: #db71a2; } .cls-6 { fill: #c36590; } .cls-7 { fill: #800051; } .cls-8 { fill: #720048; } .cls-9 { fill: #711378; } .cls-10 { fill: #65106b; } .cls-11 { fill: #e9e9e9; } .cls-12 { fill: #d0d0d0; }</style></defs><g id="Group_92" data-name="Group 92"><g id="Group_30" data-name="Group 30"><g id="Group_29" data-name="Group 29"><g id="Group_28" data-name="Group 28"><path id="Path_115" d="M1667.6-559.9l3.4-8.6h-114l3.1 7.8a54.805 54.805 0 0 1 3.9 20.4v56.2a46.66 46.66 0 0 1-3.3 17.3l-3.7 9.4h114l-4.6-11.6a33.993 33.993 0 0 1-2.4-12.6v-59.5a50.285 50.285 0 0 1 3.6-18.8z" data-name="Path 115" class="cls-1"/><path id="Path_384" d="M1667.6-559.9l3.4-8.6h-56.455c-51.845 14.3.1 111.1.1 111.1H1671l-4.6-11.6a33.993 33.993 0 0 1-2.4-12.6v-59.5a50.285 50.285 0 0 1 3.6-18.8z" data-name="Path 384" class="cls-2"/><path id="Rectangle_18" d="M1557-457.4h114v14.4h-114z" data-name="Rectangle 18" class="cls-3"/><path id="Rectangle_22" d="M1557-457.4h58v14.4h-58z" data-name="Rectangle 22" class="cls-4"/><path id="Rectangle_19" d="M1557-583h114v14.4h-114z" data-name="Rectangle 19" class="cls-3"/><path id="Rectangle_21" d="M1557-583h58v14.4h-58z" data-name="Rectangle 21" class="cls-4"/></g></g></g><path id="Path_374" d="M1586.358-569.228h53.18s9.368 8.863 8.732 21.516-9.4 13.516-8.732 29.1 9.561 17.712 11.406 33.226a61.329 61.329 0 0 1-4.027 28.83h-68.282a58.135 58.135 0 0 1-3.725-28.83c2.217-15.514 12.43-17.567 12.9-33.226s-8.564-15.5-9.177-28.152 7.725-22.464 7.725-22.464z" data-name="Path 374" class="cls-5"/><path id="Path_375" d="M1615.014-569.228h24.528s9.368 8.863 8.732 21.516-9.4 13.516-8.732 29.1 9.561 17.712 11.406 33.226a61.329 61.329 0 0 1-4.027 28.83h-32.059z" data-name="Path 375" class="cls-6"/><path id="Path_376" d="M1601-545h27a5 5 0 0 1 0 10h-27a5 5 0 0 1 0-10z" data-name="Path 376" class="cls-7"/><path id="Path_377" d="M1615.015-545H1628a5 5 0 0 1 0 10h-12.985z" data-name="Path 377" class="cls-8"/><path id="Path_380" d="M1601-515h27a5 5 0 0 1 5 5v9a5 5 0 0 1-5 5h-27a5 5 0 0 1-5-5v-9a5 5 0 0 1 5-5z" data-name="Path 380" class="cls-9"/><path id="Path_381" d="M1614.934-515H1628a5 5 0 0 1 5 5v9a5 5 0 0 1-5 5l-13.1-.02z" data-name="Path 381" class="cls-10"/><path id="Path_382" d="M1599.5-490h30a3.5 3.5 0 0 1 0 7h-30a3.5 3.5 0 0 1 0-7z" data-name="Path 382" class="cls-11"/><path id="Path_383" d="M1614.886-490.025l14.614.025a3.5 3.5 0 0 1 0 7l-14.616.019z" data-name="Path 383" class="cls-12"/><path id="Path_378" d="M1599.5-530h30a3.5 3.5 0 0 1 0 7h-30a3.5 3.5 0 0 1 0-7z" data-name="Path 378" class="cls-11"/><path id="Path_379" d="M1614.918-530h14.582a3.5 3.5 0 0 1 0 7h-14.582z" data-name="Path 379" class="cls-12"/></g></svg>