<svg xmlns="http://www.w3.org/2000/svg" viewBox="1522 -398.433 184.307 56"><defs><style>.cls-1 { fill: #ebe8d4; } .cls-2 { fill: #5d8e2f; } .cls-3 { fill: #070208; } .cls-4 { fill: #36352e; } .cls-5 { fill: #302f29; } .cls-6 { fill: #080309; } .cls-7 { fill: #fff; } .cls-8 { fill: #e4e4e4; }</style></defs><g id="panda"><g id="Group_122" data-name="Group 122"><path id="Path_527" d="M1686.414-345.733l9.354 2.635v-55.335l-8.563 2.371a84.791 84.791 0 0 1-22.265 3.029h-103.286a70.517 70.517 0 0 1-18.839-2.5l-10.144-2.9v55.463l12.647-3.557a53.64 53.64 0 0 1 13.7-1.844h106.844a82.937 82.937 0 0 1 20.552 2.638z" data-name="Path 527" class="cls-1"/><path id="Path_528" d="M1667.03008556-358.75852244l10.42421967-2.61444912a.969.969 0 0 1 1.2142325.5853379l.65783258 3.09485902a.969.969 0 0 1-.8711782 1.02860563l-8.32260956 1.92033167z" data-name="Path 528" class="cls-2"/><path id="Path_529" d="M1649.99702-348.43253383l9.57979264-28.94652522a3.022 3.022 0 0 1 3.904268-1.7382921l10.8164628 4.15205106a3.022 3.022 0 0 1 1.73829212 3.904268l-8.17804688 22.8113717z" data-name="Path 529" class="cls-3"/><path id="Path_530" d="M1663.142-393.033H1561.26a68.671 68.671 0 0 1-18.583-2.5l-10.006-2.9v55.463l12.475-3.557a52.237 52.237 0 0 1 13.515-1.844h94.828s-6.942-4.046-6.869-17.783c.088-16.325 16.522-26.879 16.522-26.879z" data-name="Path 530" class="cls-4"/><path id="Path_534" d="M1663.143-393.032h-49.164l.7 44.66h38.814s-6.945-4.042-6.872-17.782c.087-16.325 16.522-26.878 16.522-26.878z" data-name="Path 534" class="cls-5"/><path id="Path_531" d="M1532.671-398.433h-10.408a3.437 3.437 0 0 0 .922 2.24l1.845 1.844a1.691 1.691 0 0 1 .527 1.316 2.341 2.341 0 0 1-.527 1.319l-1.976 2.108a3.265 3.265 0 0 0 0 4.479l1.846 1.844a2 2 0 0 1 0 2.635l-1.846 1.976a3.265 3.265 0 0 0 0 4.479l1.976 1.977a1.759 1.759 0 0 1 0 2.635l-1.976 1.976a3.03 3.03 0 0 0-1.054 2.372 3.437 3.437 0 0 0 .922 2.24l1.978 1.975a1.759 1.759 0 0 1 0 2.635l-1.846 2.107a3.265 3.265 0 0 0 0 4.479l1.846 1.845a1.759 1.759 0 0 1 0 2.635l-1.846 1.844a3.175 3.175 0 0 0-.922 2.371h10.539z" data-name="Path 531" class="cls-6"/><path id="Path_532" d="M1695.767-342.97h10.408a3.437 3.437 0 0 0-.922-2.24l-1.844-1.844a1.691 1.691 0 0 1-.527-1.317 2.341 2.341 0 0 1 .527-1.317l1.976-1.976a3.265 3.265 0 0 0 0-4.479l-1.844-1.844a1.759 1.759 0 0 1 0-2.635l1.844-1.976a3.265 3.265 0 0 0 0-4.479l-1.976-1.976a1.759 1.759 0 0 1 0-2.635l1.976-1.976a3.264 3.264 0 0 0 0-4.479l-1.976-1.976a2 2 0 0 1 0-2.635l1.976-1.976a3.265 3.265 0 0 0 0-4.479l-1.844-1.844a2 2 0 0 1 0-2.635l1.844-1.844a3.175 3.175 0 0 0 .921-2.374h-10.539v54.936z" data-name="Path 532" class="cls-3"/></g><path id="Path_533" d="M1568.295-378.888h56.341a3.2 3.2 0 0 1 3.347 3.022v11.078a3.2 3.2 0 0 1-3.347 3.022h-56.341a3.2 3.2 0 0 1-3.347-3.022v-11.078a3.2 3.2 0 0 1 3.347-3.022z" data-name="Path 533" class="cls-7"/><path id="Path_535" d="M1614.236-378.888h10.4a3.2 3.2 0 0 1 3.347 3.022v11.078a3.2 3.2 0 0 1-3.347 3.022h-10.478z" data-name="Path 535" class="cls-8"/></g></svg>