<?xml version="1.0" encoding="utf-8"?>
<svg version="1.1" xmlns="http://www.w3.org/2000/svg" viewBox="0 0 140 140">
  <path d="M123.57,23.09,127,14.45H13l3.11,7.85A55.3,55.3,0,0,1,20,42.71v56.2a46.88,46.88,0,0,1-3.3,17.28L13,125.55H127l-4.61-11.61A34.22,34.22,0,0,1,120,101.33V41.87A50.93,50.93,0,0,1,123.57,23.09Z" fill="#e0e0e0" />
  <path d="M20,98.91a46.88,46.88,0,0,1-3.3,17.28L13,125.55H70V14.45H13l3.11,7.85A55.3,55.3,0,0,1,20,42.71v56.2Z" fill="#ececec" />
  <path d="M20,98.91a46.88,46.88,0,0,1-3.3,17.28L13,125.55H34.91A84.8,84.8,0,0,0,56.06,69.41a84.79,84.79,0,0,0-20.13-55H13l3.11,7.85A55.3,55.3,0,0,1,20,42.71v56.2Z" fill="#2fa33f" />
  <rect x="13" y="125.55" width="114" height="14.45" fill="#d1d1d1" />
  <rect x="13" y="125.55" width="57" height="14.45" fill="#e0e0e0" />
  <path d="M13,125.55V140h5.55a85.59,85.59,0,0,0,16.36-14.45Z" fill="#30963a" />
  <rect x="13" width="114" height="14.45" fill="#d1d1d1" />
  <rect x="13" width="57" height="14.45" fill="#e0e0e0" />
  <path d="M13,14.45H35.93A85.61,85.61,0,0,0,20.21,0H13Z" fill="#30963a" />
  <rect x="62.22" y="70.03" width="44" height="18" rx="2" ry="2" transform="translate(-12.44 15.82) rotate(-10)" fill="#30963a" />
  <path d="M70,72.39l-7,1.24A2,2,0,0,0,61.33,76l2.43,13.79a2,2,0,0,0,2.32,1.62L70,90.67Z" fill="#2fa33f" />
  <rect x="34" y="40" width="72" height="18" rx="5" ry="5" fill="#1e1e1e" />
  <path d="M70,40H39a5,5,0,0,0-5,5v8a5,5,0,0,0,5,5H70Z" fill="#282828" />
</svg>
