<svg xmlns="http://www.w3.org/2000/svg" viewBox="0 0 140 140"><title>popchips-ridges-smokey-bacon</title><g id="popchips-ridges-smokey-bacon"><path d="M123.57,23.09,127,14.45H13l3.11,7.85A55.3,55.3,0,0,1,20,42.71v56.2a46.88,46.88,0,0,1-3.3,17.28L13,125.55H127l-4.61-11.61A34.22,34.22,0,0,1,120,101.33V41.87A50.93,50.93,0,0,1,123.57,23.09Z" fill="#1e1e1e"/><path d="M20,98.91a46.88,46.88,0,0,1-3.3,17.28L13,125.55H70V14.45H13l3.11,7.85A55.3,55.3,0,0,1,20,42.71v56.2Z" fill="#282828"/><path d="M13,14.45l3.11,7.85A55.3,55.3,0,0,1,20,42.71v56.2a46.88,46.88,0,0,1-3.3,17.28L13,125.55V140H24.65c2.13-2.74.83-8.94,3.12-11.53s9.41-1.91,11.5-4.93-1.13-9.24.58-12.5,8.67-4.1,10-7.55-3.33-8.68-2.44-12.28,7.42-6,7.88-9.73S50,73.76,50,70.14s5.77-7.71,5.34-11.32-7-6.21-7.86-9.74,3.75-8.86,2.46-12.27-8.27-4.33-10-7.57,1.53-9.49-.55-12.5-9.06-2.22-11.49-5S27,2.62,24.64,0H13Z" fill="#d31b76"/><rect x="13" y="125.55" width="114" height="14.45" fill="#262626"/><rect x="13" y="125.55" width="57" height="14.45" fill="#333"/><path d="M35.91,125.55H13V140H24.65c2.13-2.74.83-8.94,3.12-11.53C29.39,126.65,33,126.41,35.91,125.55Z" fill="#e22496"/><rect x="13" width="114" height="14.45" fill="#262626"/><rect x="13" width="57" height="14.45" fill="#333"/><path d="M27.92,11.76C25.57,9.1,27,2.62,24.64,0H13V14.45H35.07C32.4,13.78,29.36,13.39,27.92,11.76Z" fill="#e22496"/><rect x="63.99" y="73.98" width="32" height="18" rx="1" ry="1" fill="#bf1d7e"/><path d="M70,74H65a1,1,0,0,0-1,1V91a1,1,0,0,0,1,1h5Z" fill="#d31b76"/><rect x="65" y="56" width="38" height="12" rx="2" ry="2" fill="#efd700"/><path d="M70,56H67a2,2,0,0,0-2,2v8a2,2,0,0,0,2,2h3Z" fill="#ffcd00"/><path d="M102,40H39a5,5,0,0,0-5,5v8a5,5,0,0,0,5,5H61a2,2,0,0,0,2-2,2,2,0,0,1,2-2h37a5,5,0,0,0,5-5V45A5,5,0,0,0,102,40Z" fill="#ececec"/><path d="M70,40H39a5,5,0,0,0-5,5v8a5,5,0,0,0,5,5H61a2,2,0,0,0,2-2,2,2,0,0,1,2-2h5Z" fill="#fff"/></g></svg>