<?xml version="1.0" encoding="utf-8"?>
<svg version="1.1" xmlns="http://www.w3.org/2000/svg" viewBox="0 0 140 140">
  <path d="M122.13,97.13,130.22,99V41l-7.35,1.68A86.32,86.32,0,0,1,103.75,45h-69a73.54,73.54,0,0,1-16.18-2L9.78,41V99L20.65,96.5A53.26,53.26,0,0,1,32.46,95h72.08A79.71,79.71,0,0,1,122.13,97.13Z" fill="#826a55" />
  <path d="M34.73,45a73.54,73.54,0,0,1-16.18-2L9.78,41V99L20.65,96.5A53.26,53.26,0,0,1,32.46,95H70V45Z" fill="#8e755b" />
  <path d="M6.5,41H.18A2.68,2.68,0,0,0,1,43l1.74,1.65a1.62,1.62,0,0,1,0,2.36L.94,48.71a2.69,2.69,0,0,0,0,3.93l1.71,1.62a1.6,1.6,0,0,1,0,2.36L.92,58.27a2.69,2.69,0,0,0,0,3.93L2.7,63.9a1.6,1.6,0,0,1,0,2.36L.86,68a2.71,2.71,0,0,0,0,4L2.7,73.72a1.6,1.6,0,0,1,0,2.36L.92,77.77a2.69,2.69,0,0,0,0,3.93l1.73,1.64a1.6,1.6,0,0,1,0,2.36L.94,87.33a2.69,2.69,0,0,0,0,3.93L2.77,93a1.62,1.62,0,0,1,0,2.36L1,97a2.72,2.72,0,0,0-.85,2h9.6V41Z" fill="#998067" />
  <path d="M133.5,99h6.33a2.68,2.68,0,0,0-.85-2l-1.74-1.65a1.62,1.62,0,0,1,0-2.36l1.83-1.74a2.69,2.69,0,0,0,0-3.93l-1.71-1.62a1.6,1.6,0,0,1,0-2.36l1.73-1.64a2.69,2.69,0,0,0,0-3.93l-1.78-1.69a1.6,1.6,0,0,1,0-2.36L139.14,72a2.71,2.71,0,0,0,0-4l-1.84-1.75a1.6,1.6,0,0,1,0-2.36l1.78-1.69a2.69,2.69,0,0,0,0-3.93l-1.73-1.64a1.6,1.6,0,0,1,0-2.36l1.71-1.62a2.69,2.69,0,0,0,0-3.93L137.24,47a1.62,1.62,0,0,1,0-2.36L139,43a2.68,2.68,0,0,0,.85-2h-9.61V99h3.28Z" fill="#998067" />
  <path d="M103.74,45h-69a73.54,73.54,0,0,1-16.18-2L9.78,41V56.36C16.7,63.12,26.1,72,30,72c6,0,66,8,73,6s8-8,15-7c6.61.94,9.21,3.67,12.22,4V41l-7.35,1.68A86.32,86.32,0,0,1,103.74,45Z" fill="#90cedd" />
  <path d="M70,45H34.73a73.54,73.54,0,0,1-16.18-2L9.78,41V56.36C16.7,63.12,26.1,72,30,72c3.23,0,22.15,2.32,40,4.15Z" fill="#94d6e9" />
  <path d="M.17,41A2.68,2.68,0,0,0,1,43l1.74,1.65a1.62,1.62,0,0,1,0,2.36L1.12,48.54A5.53,5.53,0,0,1,2,49c1,.7,4.05,3.72,7.78,7.36V41H.17Z" fill="#7dbcc9" />
  <path d="M125.86,42c-15,6-40.42,16.86-46.86,19-9,3-35,10-35,10v2.33c19.9,2.18,53.84,6.14,59,4.67,7-2,8-8,15-7,6.61.94,9.21,3.67,12.22,4V41Z" fill="#e0e0e0" />
  <path d="M137.3,66.27a1.6,1.6,0,0,1,0-2.36l1.78-1.69a2.69,2.69,0,0,0,0-3.93l-1.73-1.64a1.6,1.6,0,0,1,0-2.36l1.71-1.62a2.69,2.69,0,0,0,0-3.93L137.23,47a1.62,1.62,0,0,1,0-2.36L139,43a2.68,2.68,0,0,0,.85-2h-9.61V75c.18,0,.35,0,.53,0h6a1.6,1.6,0,0,1,.51-1.27L139.15,72a2.71,2.71,0,0,0,0-4Z" fill="#d1d1d1" />
  <path d="M36,52c-1,1-1,4-3,5s-3,1-3,2,1,4,1,6,3,9,1,9,3,10,3,13a12,12,0,0,0,3.76,8H62.24c1-1.81,1.24-4,1.76-5,1-2,5-1,8-2a27.69,27.69,0,0,1,9-1c3,0,3,5,6,5s8-2,12-3,7-5,8-7a42,42,0,0,0,3-14c0-5-2-7-4-9s2-2,2-5,2-7,0-6-3,2-6,2-1-3-7-3-11,2-15,2-7-4-10-4-3,3-7,4-8-3-13-4H46.84C42.93,45.7,39.15,48.85,36,52Z" fill="#9e5600" />
  <path d="M50,45H46.84c-3.91.7-7.68,3.85-10.84,7-1,1-1,4-3,5s-3,1-3,2,1,4,1,6,3,9,1,9,3,10,3,13a12,12,0,0,0,3.76,8H62.24c1-1.81,1.24-4,1.76-5,.79-1.58,3.44-1.29,6-1.59V45c-3,0-3,3-7,4S55,46,50,45Z" fill="#a96300" />
  <rect x="40.96" y="77.04" width="60" height="8" rx="3" ry="3" transform="translate(-6.79 6.49) rotate(-5)" fill="#ececec" />
  <path d="M71,77,43.72,79.41A3,3,0,0,0,41,82.66l.17,2a3,3,0,0,0,3.25,2.73L71,85.05Z" fill="#fff" />
  <rect x="35.48" y="54.1" width="68" height="20" rx="3" ry="3" transform="translate(-5.32 6.3) rotate(-5)" fill="#ececec" />
  <path d="M71,53.93,37.73,56.84A3,3,0,0,0,35,60.09L36.22,74a3,3,0,0,0,3.25,2.73L71,74Z" fill="#fff" />
</svg>
