<svg xmlns="http://www.w3.org/2000/svg" viewBox="1522 -317.326 184.307 65.94"><defs><style>.cls-1 { fill: #d6aa3d; } .cls-2 { fill: #bf9836; } .cls-3 { fill: #bd9235; } .cls-4 { fill: #a9822f; } .cls-5 { fill: #653231; } .cls-6 { fill: #7c4330; } .cls-7 { fill: #fff; } .cls-8 { fill: #e4e4e4; } .cls-9 { fill: #d91426; } .cls-10 { fill: #c21121; }</style></defs><g id="twix"><g id="Group_104" data-name="Group 104"><g id="Group_103" data-name="Group 103"><path id="Path_408" d="M161.843,58.436l9.354,2.922V0l-8.563,2.63a77.017,77.017,0,0,1-22.264,3.36H37.083A64.035,64.035,0,0,1,18.244,3.214L8.1,0V61.5l12.647-3.944a48.713,48.713,0,0,1,13.7-2.045H141.291A75.274,75.274,0,0,1,161.843,58.436Z" data-name="Path 408" class="cls-1" transform="translate(1524.57 -317.326)"/><path id="Path_415" d="M389.769,58.436l9.354,2.922V0l-8.563,2.63a77.017,77.017,0,0,1-22.264,3.36l-50.759.023-.049,49.506,51.731-.005A75.274,75.274,0,0,1,389.769,58.436Z" data-name="Path 415" class="cls-2" transform="translate(1296.645 -317.326)"/><path id="Path_409" d="M10.671,0H.263a4.036,4.036,0,0,0,.922,2.484L3.03,4.529A1.987,1.987,0,0,1,3.557,5.99,2.758,2.758,0,0,1,3.03,7.451L1.054,9.788a3.913,3.913,0,0,0,0,4.967L2.9,16.8a2.407,2.407,0,0,1,0,2.922L1.054,21.913a3.913,3.913,0,0,0,0,4.967L3.03,29.072a2.1,2.1,0,0,1,0,2.922h0L1.054,34.185A3.537,3.537,0,0,0,0,36.815,4.036,4.036,0,0,0,.922,39.3L2.9,41.489a2.1,2.1,0,0,1,0,2.922h0L1.054,46.749a3.913,3.913,0,0,0,0,4.967L2.9,53.761a2.1,2.1,0,0,1,0,2.922h0L1.054,58.728a3.737,3.737,0,0,0-.922,2.63H10.671Z" data-name="Path 409" class="cls-3" transform="translate(1522 -317.326)"/><path id="Path_410" d="M131.9,61.9h10.408a4.1,4.1,0,0,0-.922-2.507l-1.844-2.065a2.017,2.017,0,0,1-.527-1.475,2.8,2.8,0,0,1,.527-1.475l1.976-2.212a3.98,3.98,0,0,0,0-5.015l-1.844-2.065a2.129,2.129,0,0,1,0-2.95h0l1.844-2.212a3.979,3.979,0,0,0,0-5.015L139.541,32.7a2.129,2.129,0,0,1,0-2.95h0l1.976-2.212a3.978,3.978,0,0,0,0-5.015l-1.976-2.212a2.449,2.449,0,0,1,0-2.95l1.976-2.212a3.979,3.979,0,0,0,0-5.015L139.673,8.07a2.449,2.449,0,0,1,0-2.95l1.844-2.065A3.8,3.8,0,0,0,142.439.4H131.9V61.9Z" data-name="Path 410" class="cls-4" transform="translate(1563.867 -317.726)"/></g></g><path id="Path_411" d="M0,0,32.455.875a4.483,4.483,0,0,1,4.43,4.408l.042,4.156a4.27,4.27,0,0,1-4.342,4.32l-15.8-.159Z" data-name="Path 411" class="cls-5" transform="rotate(-38 444.1 -2527.326)"/><path id="Path_412" d="M0,0,40.1.649a4.481,4.481,0,0,1,4.4,4.432l.041,4.18a4.272,4.272,0,0,1-4.317,4.346L9.5,13.071Z" data-name="Path 412" class="cls-6" transform="rotate(-53.985 565.39 -1746.296)"/><path id="Path_413" d="M8.581,0,44.824.192,103.464.5c4.764.025,8.646,3.6,8.671,7.981l.1,17.407c.025,4.383-3.817,7.915-8.58,7.89l-94.884-.5C4.007,33.253.125,29.68.1,25.3L0,7.89C-.025,3.507,3.817-.025,8.581,0Z" data-name="Path 413" class="cls-7" transform="matrix(.998 -.07 .07 .998 1549.92 -301.71)"/><path id="Path_417" d="M2.325,0,41.406.193c4.764.025,8.646,3.6,8.671,7.981l.1,17.407c.025,4.383-3.817,7.915-8.58,7.89L0,33.251Z" data-name="Path 417" class="cls-8" transform="matrix(.998 -.07 .07 .998 1611.848 -305.732)"/><path id="Path_414" d="M5.78,0,28.632.112l15.8.077L96.247.442c3.209.016,5.823,2.166,5.839,4.8l.082,13.186c.016,2.637-2.571,4.762-5.78,4.746L5.921,22.735C2.713,22.72.1,20.569.082,17.932L0,4.746C-.016,2.109,2.572-.016,5.78,0Z" data-name="Path 414" class="cls-9" transform="matrix(.998 -.07 .07 .998 1555.114 -296.605)"/><path id="Path_416" d="M1.592,0,38.641.181c3.209.016,5.823,2.166,5.839,4.8l.082,13.186c.016,2.637-2.571,4.762-5.78,4.746L0,22.774c.96-13.733.463-5.924.654-9.348C1.023,6.747,1.592,0,1.592,0Z" data-name="Path 416" class="cls-10" transform="matrix(.998 -.07 .07 .998 1612.6 -300.364)"/></g></svg>