<svg
		xmlns="http://www.w3.org/2000/svg"
		viewBox="0 0 267.06 241.8">
		<path
			d="M219.36 176.3c26.1 0 47.5 14.3 47.5 29.1v8.2s-.4 7.4-1.9 9.8c-5.1 8.9-27.1 6.7-45.6 6.7H47.66c-19.3 0-38.1-2-45.7-11.7-2.5-3.1-1.9-7.6-1.9-11.5a22.64 22.64 0 0 1 7.6-16.5c5.7-4.9 22.1-14.3 40-14.3z"
			fill="#3f5d73"
		/>
		<path
			d="M219.36 187.3c26.3 0 47.7 13 47.7 27.8a24.1 24.1 0 0 1-11.6 20c-10.9 6.4-27.6 6.4-36 6.4H47.66c-9.7 0-26.7-1.6-36.2-8a26.16 26.16 0 0 1-11.1-18.9c0-14.9 21.2-27 47.3-27h171.7z"
			fill="#0e2a3e"
		/>
	</svg>
	