<svg xmlns="http://www.w3.org/2000/svg" viewBox="0 0 75 74">
  <g fill="none" fillRule="evenodd">
    <circle cx="37.5" cy="37.5" r="9.643" fill="#FFF" fillRule="nonzero" />
    <path fill="#FFF" fillRule="nonzero" d="M28.1785714,6.42857143 L22.4925,12.6190476 L12.6428571,12.6190476 C9.225,12.6190476 6.42857143,15.4047619 6.42857143,18.8095238 L6.42857143,55.952381 C6.42857143,59.3571429 9.225,62.1428571 12.6428571,62.1428571 L62.3571429,62.1428571 C65.775,62.1428571 68.5714286,59.3571429 68.5714286,55.952381 L68.5714286,18.8095238 C68.5714286,15.4047619 65.775,12.6190476 62.3571429,12.6190476 L52.5075,12.6190476 L46.8214286,6.42857143 L28.1785714,6.42857143 Z M37.5,52.8571429 C28.9242857,52.8571429 21.9642857,45.9238095 21.9642857,37.3809524 C21.9642857,28.8380952 28.9242857,21.9047619 37.5,21.9047619 C46.0757143,21.9047619 53.0357143,28.8380952 53.0357143,37.3809524 C53.0357143,45.9238095 46.0757143,52.8571429 37.5,52.8571429 Z"
    />
    <polygon points="0 0 75 0 75 75 0 75" />
  </g>
</svg>