<svg viewBox="0 0 75 74" xmlns="http://www.w3.org/2000/svg">
  <g fill="none" fillRule="evenodd">
    <polygon points="0 0 75 0 75 75 0 75" />
    <path fill="#FFF" fillRule="nonzero" d="M56.25,25 L53.125,25 L53.125,18.75 C53.125,10.125 46.125,3.125 37.5,3.125 C28.875,3.125 21.875,10.125 21.875,18.75 L21.875,25 L18.75,25 C15.3125,25 12.5,27.8125 12.5,31.25 L12.5,62.5 C12.5,65.9375 15.3125,68.75 18.75,68.75 L56.25,68.75 C59.6875,68.75 62.5,65.9375 62.5,62.5 L62.5,31.25 C62.5,27.8125 59.6875,25 56.25,25 Z M37.5,53.125 C34.0625,53.125 31.25,50.3125 31.25,46.875 C31.25,43.4375 34.0625,40.625 37.5,40.625 C40.9375,40.625 43.75,43.4375 43.75,46.875 C43.75,50.3125 40.9375,53.125 37.5,53.125 Z M47.1875,25 L27.8125,25 L27.8125,18.75 C27.8125,13.40625 32.15625,9.0625 37.5,9.0625 C42.84375,9.0625 47.1875,13.40625 47.1875,18.75 L47.1875,25 Z"
    />
  </g>
</svg>