<?xml version="1.0" encoding="utf-8"?>
<svg version="1.1" xmlns="http://www.w3.org/2000/svg" viewBox="0 0 242 141">
<g>
	<polygon fill="#F28159" points="110.53,67.51 106.53,101.3 153.54,106.85 157.54,73.07 	"/>
	<polygon fill="#DD603A" points="124.18,103.09 125.69,84.54 127.58,69.64 111.86,67.82 109.96,101.46 	"/>
</g>
<polygon fill="#C1E9F7" points="242,68.5 142.06,58 136,115.68 242,126.82 "/>
<g>
	<path fill="#F28159" d="M123.16,100.56l1.89-29.5L97.24,35.04l-83.27,5.97l-11.5,7.1c7.89,24.68,10.73,52.31,31.98,69.28
		c11.65,9.29,30.22,21.65,45.03,13.87c5.72-3,10.4-10.55,16.08-14.32C99.6,114.26,122.83,105.72,123.16,100.56"/>
	<path fill="#DD603A" d="M97.56,34.79l11.11,14.37l-1.65,25.63C66.21,104.2,32.22,96.15,16.1,89.14L2.89,47.86l11.49-7.1
		L97.56,34.79z"/>
</g>
</svg>
