<svg version="1.1" xmlns="http://www.w3.org/2000/svg" viewBox="0 0 2200 152">
	<path fill="#FFCD00" d="M110.16,10.55c-5.73-17.02-41.65-9.94-62.02-3.08C27.83,14.34-5.07,30.49,0.66,47.5
		c4.48,13.34,27.5,11.88,47,7.35V40.32c-17.93,4.65-29.71,4-33.22,2.48c2.21-4,14.26-13.99,38.19-22.04s39.54-7.4,43.7-5.56
		c-2,3.57-11.94,11.94-31.22,19.5v15.02C85.58,42.43,115.67,26.92,110.16,10.55z"/>
	<path fill="#43BDD7" d="M494.03,104.98c2.11-2.11,4.7-3.13,7.78-3.13s5.67,1.03,7.78,3.13
		c2.11,2.11,3.13,4.65,3.13,7.67c0,3.08-1.03,5.67-3.13,7.78c-2.11,2.11-4.7,3.13-7.78,3.13s-5.67-1.03-7.78-3.13
		c-2.11-2.11-3.13-4.7-3.13-7.78C490.89,109.63,491.92,107.09,494.03,104.98L494.03,104.98z M524.01,118.54
		c6.54,3.4,13.45,5.13,20.85,5.13c6.59,0,12.26-1.89,16.91-5.62s6.97-8.43,6.97-14.1c0-3.67-0.86-6.97-2.59-9.78
		c-1.73-2.86-3.84-5.08-6.27-6.64c-2.48-1.57-4.92-2.97-7.35-4.21c-2.43-1.19-4.48-2.43-6.21-3.67c-1.73-1.24-2.59-2.59-2.59-4
		c0-2.86,1.94-4.27,5.78-4.27c4,0,8.05,0.97,12.15,2.92l5.02-13.45c-6.37-2.92-12.59-4.38-18.58-4.38c-6.37,0-11.72,1.78-15.99,5.4
		c-4.32,3.62-6.48,8.21-6.48,13.83c0,3.94,0.86,7.29,2.59,10.1c1.73,2.81,3.78,4.97,6.21,6.48c2.43,1.51,4.86,2.81,7.35,3.89
		c2.48,1.08,4.59,2.27,6.27,3.51c1.73,1.24,2.59,2.65,2.59,4.16c0,3.35-2.21,5.02-6.64,5.02c-4,0-9.35-1.46-15.94-4.38L524.01,118.54
		z M582.14,102.5c0,7.13,2.05,12.42,6.1,15.94c4.05,3.51,9.67,5.29,16.75,5.29c4.11,0,8.37-0.7,12.8-2.11l-3.03-14.59
		c-3.24,1.08-6.32,1.62-9.18,1.62c-2.27,0-3.84-0.54-4.7-1.67c-0.86-1.13-1.3-3.03-1.3-5.73V69.33h14.05V58.04h-14.05V40.86
		l-17.45,3.24v13.94h-8.16v11.29h8.16V102.5z M630.59,113.84c6.21,6.59,14.21,9.89,24.09,9.89c9.89,0,17.93-3.3,24.09-9.89
		c6.21-6.59,9.29-14.53,9.29-23.82c0-9.18-3.13-17.12-9.4-23.71c-6.27-6.59-14.26-9.94-23.99-9.94c-9.72,0-17.72,3.3-23.99,9.94
		s-9.4,14.53-9.4,23.71C621.3,99.31,624.43,107.25,630.59,113.84L630.59,113.84z M665.54,103.47c-3.03,3.46-6.64,5.13-10.8,5.13
		c-4.21,0-7.78-1.73-10.8-5.13c-3.03-3.4-4.54-7.89-4.54-13.45c0-5.51,1.51-9.99,4.59-13.45s6.64-5.13,10.75-5.13
		c4.11,0,7.67,1.73,10.75,5.13c3.08,3.46,4.59,7.89,4.59,13.45C670.03,95.58,668.57,100.07,665.54,103.47L665.54,103.47z
		 M699.41,122.05h17.45V95.04c0-7.51,1.51-13.34,4.59-17.45c3.08-4.11,7.62-6.16,13.72-6.16V56.36c-8.48,0-14.8,3.13-19.07,9.4
		l-1.62-7.78l-15.07,1.24V122.05L699.41,122.05z M792.98,104.5c-6.64,2.76-12.8,4.16-18.58,4.16c-9.94,0-15.72-4.97-17.34-14.96H800
		c0-11.4-2.59-20.47-7.83-27.17c-5.24-6.75-12.64-10.1-22.15-10.1c-9.29,0-16.69,3.24-22.15,9.78c-5.51,6.54-8.21,14.53-8.21,23.99
		c0,9.56,3.03,17.5,9.08,23.93c6.05,6.37,14.48,9.62,25.17,9.62c7.94,0,15.5-1.62,22.58-4.92L792.98,104.5z M757.59,82.24
		c1.67-7.18,5.83-10.8,12.42-10.8c3.08,0,5.73,0.7,7.89,2.16c2.16,1.4,3.73,4.32,4.65,8.64H757.59z"/>
	<path fill="#FFFFFF" d="M47.71,32l17.45-3.03v34.52c4.43-4.75,10.48-7.18,18.1-7.18c6.43,0,11.56,2.21,15.34,6.59
		c3.78,4.38,5.67,10.43,5.67,18.04V122H86.82V82.83c0-7.62-2.48-11.45-7.4-11.45c-4.59,0-8.1,1.89-10.53,5.73
		c-2.43,3.84-3.62,9.08-3.62,15.77V122H47.82V32H47.71z M124.15,113.84c6.21,6.59,14.26,9.89,24.09,9.89c9.89,0,17.93-3.3,24.09-9.89
		c6.21-6.59,9.29-14.53,9.29-23.82c0-9.18-3.13-17.12-9.4-23.71c-6.27-6.59-14.26-9.94-23.99-9.94c-9.72,0-17.72,3.3-23.99,9.94
		c-6.27,6.64-9.4,14.53-9.4,23.71C114.86,99.31,117.99,107.25,124.15,113.84L124.15,113.84z M159.1,103.47
		c-3.03,3.46-6.64,5.13-10.8,5.13s-7.78-1.73-10.8-5.13c-3.03-3.4-4.54-7.89-4.54-13.45c0-5.51,1.51-9.99,4.59-13.45
		s6.64-5.13,10.75-5.13c4.11,0,7.67,1.73,10.75,5.13c3.08,3.46,4.59,7.89,4.59,13.45C163.58,95.58,162.13,100.07,159.1,103.47
		L159.1,103.47z M192.97,122.05h17.45V92.94c0-6.7,1.19-11.94,3.62-15.77c2.43-3.84,5.94-5.73,10.53-5.73c4.92,0,7.4,3.84,7.4,11.45
		v39.16h17.45V81c0-7.62-1.89-13.61-5.67-18.04c-3.78-4.43-8.86-6.59-15.34-6.59c-8.32,0-14.69,2.81-19.23,8.43l-1.24-6.75
		l-15.07,1.24v62.77H192.97z M313.76,104.5c-6.59,2.76-12.8,4.16-18.58,4.16c-9.94,0-15.72-4.97-17.34-14.96h42.95
		c0-11.4-2.59-20.47-7.83-27.17c-5.24-6.75-12.64-10.1-22.15-10.1c-9.29,0-16.69,3.24-22.15,9.78c-5.46,6.54-8.21,14.53-8.21,23.99
		c0,9.56,3.03,17.5,9.08,23.93c6.05,6.37,14.48,9.62,25.17,9.62c7.94,0,15.5-1.62,22.58-4.92L313.76,104.5z M278.32,82.24
		c1.67-7.18,5.83-10.8,12.42-10.8c3.08,0,5.73,0.7,7.89,2.16c2.16,1.4,3.73,4.32,4.65,8.64H278.32z M327.38,118.54
		c6.54,3.4,13.45,5.13,20.85,5.13c6.59,0,12.26-1.89,16.91-5.62c4.65-3.73,6.97-8.43,6.97-14.1c0-3.67-0.86-6.97-2.59-9.78
		c-1.73-2.86-3.84-5.08-6.27-6.64c-2.48-1.57-4.92-2.97-7.35-4.21c-2.43-1.19-4.48-2.43-6.21-3.67c-1.73-1.24-2.59-2.59-2.59-4
		c0-2.86,1.94-4.27,5.78-4.27c4,0,8.05,0.97,12.15,2.92l5.02-13.45c-6.37-2.92-12.59-4.38-18.58-4.38c-6.37,0-11.72,1.78-15.99,5.4
		c-4.32,3.62-6.48,8.21-6.48,13.83c0,3.94,0.86,7.29,2.59,10.1c1.73,2.81,3.78,4.97,6.21,6.48c2.43,1.51,4.86,2.81,7.35,3.89
		c2.48,1.08,4.54,2.27,6.27,3.51c1.73,1.24,2.59,2.65,2.59,4.16c0,3.35-2.21,5.02-6.64,5.02c-4,0-9.35-1.46-15.94-4.38L327.38,118.54
		z M385.5,102.5c0,7.13,2.05,12.42,6.1,15.94c4.05,3.51,9.67,5.29,16.75,5.29c4.11,0,8.37-0.7,12.8-2.11l-3.03-14.59
		c-3.24,1.08-6.32,1.62-9.18,1.62c-2.27,0-3.84-0.54-4.7-1.67c-0.86-1.13-1.3-3.03-1.3-5.73V69.33h14.05V58.04h-14.05V40.86
		L385.5,44.1v13.94h-8.16v11.29h8.16V102.5L385.5,102.5z M438.82,136.15c-2.43,0-5.4-0.86-8.91-2.65l-5.02,13.29
		c5.02,2.92,10.43,4.38,16.21,4.38c4.43,0,8.48-1.4,12.21-4.16c3.67-2.76,6.37-6.64,8.16-11.67l27.01-77.36h-18.2l-7.89,25.23
		c-1.4,4.7-3.3,11.61-5.67,20.85c-2.54-9.56-4.38-16.48-5.67-20.74l-8.05-25.39H424.5L447.35,122h0.76l-2.27,6.64
		c-0.86,2.59-1.78,4.48-2.76,5.67C442.06,135.56,440.66,136.15,438.82,136.15L438.82,136.15z"/>
</svg>
