<?xml version="1.0" encoding="utf-8"?>
<svg version="1.1" xmlns="http://www.w3.org/2000/svg" viewBox="0 0 140 140">
	<polygon fill="#E0E0E0" points="106,129 98,139 42,139 34,129 34,18 42,5 42,4 98,4 98,5 106,18"/>
	<polygon fill="#ECECEC" points="42,5 42,4 70,4 70,139 42,139 34,129 34,18"/>
	<rect x="42" y="139" fill="#909191" width="56" height="1"/>
	<rect x="42" y="1" fill="#909191" width="56" height="3"/>
	<rect x="77" fill="#485656" width="16" height="1"/>
	<path fill="#CF0C11" d="M34,110c36,6,72-27,72-27v-3c-20,22-52,18-72,13V110z"/>
	<path fill="#DF0814" d="M70,105.15v-8.53C57,97.75,44,95.5,34,93v17C46.5,112.08,59,109.46,70,105.15z"/>
	<path fill="#CF0C11" d="M106,72H69c-1.66,0-3.42-1.08-3-3l12-39c0.42-1.67,1.34-3,3-3h25V72z"/>
	<path fill="#DF0814" d="M70,56l-4,13c-0.42,1.92,1.34,3,3,3h1V56z"/>
	<path fill="#282828" d="M59,72H34V27h37c1.66,0,3.58,1.33,3,3L62,69C61.5,70.67,60.66,72,59,72z"/>
	<path fill="#1E1E1E" d="M71,27h-1v16l4-13C74.58,28.33,72.66,27,71,27z"/>
</svg>
