<?xml version="1.0" encoding="utf-8"?>
<svg version="1.1" xmlns="http://www.w3.org/2000/svg" viewBox="0 0 140 140">
  <rect x="4" y="54" width="132" height="28" fill="#70c129" />
  <rect x="4" y="54" width="66" height="28" fill="#6dcc27" />
  <path d="M136,54V82a4,4,0,0,0,4-4V58A4,4,0,0,0,136,54Z" fill="#ccc" />
  <path d="M0,58V78a4,4,0,0,0,4,4V54A4,4,0,0,0,0,58Z" fill="#ccc" />
  <path d="M68,74c-2.64-1-6.37-1.25-8,1-.59.81-1.69,3-.69,5a3.71,3.71,0,0,0,1.86,2h8.71a2.83,2.83,0,0,0,.3-.44c.56-1.06.5-1.14.5-3.37C70.69,76.38,70.93,75.13,68,74Z" fill="#e0891f" />
  <path d="M70,75.19A5.33,5.33,0,0,0,68,74c-2.64-1-6.37-1.25-8,1-.59.81-1.69,3-.69,5a3.71,3.71,0,0,0,1.86,2h8.71l.12-.17Z" fill="#f39322" />
  <path d="M123.19,81.31c-.06-1.06-4.25-1.81-5.69-1.75s-3.87.75-4.19,1.38a2.61,2.61,0,0,0-.17,1.06h10.09Z" fill="#efd700" />
  <path d="M68.54,56.83c1.18-.88,2.25-1.83,4-1.62a5.25,5.25,0,0,1,3.21,2.08c1,1,0,3.54-1,4.46a4.93,4.93,0,0,1-3.62,1.46,4.54,4.54,0,0,1-3-1.75C67.33,60.58,67.54,57.58,68.54,56.83Z" fill="#cf0c11" />
  <path d="M70,55.8a17.14,17.14,0,0,0-1.46,1c-1,.75-1.21,3.75-.5,4.63a4.89,4.89,0,0,0,2,1.48Z" fill="#df0814" />
  <path d="M120.54,57.13c-.33,1,.08,2.58,2,5.17s6,2.75,7.25,2.58,3.33-2.92,3.92-4.08,0-4.24-3.25-6.17A10.48,10.48,0,0,0,129.2,54h-6.11A8.85,8.85,0,0,0,120.54,57.13Z" fill="#601d5b" />
  <rect x="71.54" y="67.82" width="49.63" height="12.3" rx="3.6" ry="3.6" transform="translate(-6.08 8.68) rotate(-5)" fill="#173216" />
  <path d="M75.44,80a1.61,1.61,0,0,1-1.59-1.46l-.45-5.09a1.6,1.6,0,0,1,1.45-1.73L117.13,68h.14a1.61,1.61,0,0,1,1.59,1.46l.45,5.09a1.6,1.6,0,0,1-1.45,1.73L75.58,80Z" fill="#ececec" />
  <path d="M80.19,55.74a3.11,3.11,0,0,0-2.82,3.36l.5,5.77a3.11,3.11,0,0,0,3.36,2.82l31.67-2.77a3.11,3.11,0,0,0,2.82-3.36l-.5-5.77a3.07,3.07,0,0,0-.79-1.79H100Z" fill="#173216" />
  <path d="M81,65.7a1.11,1.11,0,0,1-1.1-1l-.5-5.77a1.12,1.12,0,0,1,1-1.2L112,55a1.13,1.13,0,0,1,1.19,1l.5,5.77a1.12,1.12,0,0,1-1,1.2L81.06,65.7Z" fill="#ececec" />
  <path d="M58.2,61.26a2.44,2.44,0,0,0-2.44-1.66A153.33,153.33,0,0,0,8.54,67.53a2.39,2.39,0,0,0-1.33,3q1.37,4.75,2.68,9.39a1.86,1.86,0,0,0,2.51,1.4,147.36,147.36,0,0,1,45.31-11.5c1.13-.1,1.92-.89,1.76-1.77Q58.86,64.7,58.2,61.26Z" fill="#1c3f1b" />
  <path d="M11.81,79.35q-1.31-4.65-2.68-9.4a.61.61,0,0,1,.07-.54,151.29,151.29,0,0,1,46.57-7.8.82.82,0,0,1,.48.16q.59,3.07,1.14,6A149.16,149.16,0,0,0,11.82,79.37Z" fill="#fff" />
  <path d="M50.05,54c-.67,2.42-4.79,5.22-4.79,5.22A10.93,10.93,0,0,0,53.66,54Z" fill="#df0814" />
  <path d="M45.61,54a13.17,13.17,0,0,1-.88,4.32s2.61-.66,4.07-4.32Z" fill="#ffe800" />
  <path d="M44.2,56.8a5.2,5.2,0,0,0,.58-2.8h-2A5.72,5.72,0,0,1,44.2,56.8Z" fill="#f39322" />
  <path d="M38.12,55.39C37.91,57,39.57,57.6,40.76,57c1.46-.79,2.24,2.16,2.24,2.16s1.65-2.5-1.44-4.89a1.8,1.8,0,0,0-.39-.22h-2.1A1.69,1.69,0,0,0,38.12,55.39Z" fill="#601d5b" />
</svg>
