<?xml version="1.0" encoding="utf-8"?>
<svg version="1.1" xmlns="http://www.w3.org/2000/svg" viewBox="0 0 140 140">
  <path d="M122.13,98.08l8.09,1.91V40l-7.35,1.74a83.51,83.51,0,0,1-19.12,2.18h-69a71.15,71.15,0,0,1-16.18-1.84L9.78,40v60l10.87-2.57a51.52,51.52,0,0,1,11.81-1.34h72.08A77.12,77.12,0,0,1,122.13,98.08Z" fill="#8eedb4" />
  <path d="M119,42.53a84.69,84.69,0,0,1-15.26,1.38H60V96.08h44.54A78.07,78.07,0,0,1,119,97.43Z" fill="#733923" />
  <rect x="60" y="43.91" width="9.99" height="52.17" fill="#8b462d" />
  <path d="M6.5,40H.18A2.82,2.82,0,0,0,1,42l1.74,1.71A1.68,1.68,0,0,1,3.28,45a1.69,1.69,0,0,1-.51,1.22L.94,48A2.85,2.85,0,0,0,.94,52l1.71,1.68a1.7,1.7,0,0,1,0,2.44L.92,57.86a2.85,2.85,0,0,0,0,4.07L2.7,63.69a1.7,1.7,0,0,1,0,2.44L.86,67.94a2.87,2.87,0,0,0,0,4.1L2.7,73.85a1.7,1.7,0,0,1,0,2.44L.92,78a2.85,2.85,0,0,0,0,4.07l1.73,1.7a1.7,1.7,0,0,1,0,2.44L.94,87.93A2.85,2.85,0,0,0,.94,92l1.83,1.8a1.71,1.71,0,0,1,0,2.44L1,98a2.86,2.86,0,0,0-.85,2h9.6V40Z" fill="#9af7c4" />
  <path d="M133.5,100h6.33a2.82,2.82,0,0,0-.85-2l-1.74-1.71a1.71,1.71,0,0,1,0-2.44l1.83-1.8a2.85,2.85,0,0,0,0-4.07l-1.71-1.68a1.7,1.7,0,0,1,0-2.44l1.73-1.7a2.85,2.85,0,0,0,0-4.07L137.3,76.3a1.7,1.7,0,0,1,0-2.44L139.14,72a2.87,2.87,0,0,0,0-4.1l-1.84-1.81a1.7,1.7,0,0,1,0-2.44l1.78-1.75a2.85,2.85,0,0,0,0-4.07l-1.73-1.7a1.7,1.7,0,0,1,0-2.44l1.71-1.68a2.85,2.85,0,0,0,0-4.07l-1.83-1.8a1.71,1.71,0,0,1,0-2.44L139,42a2.82,2.82,0,0,0,.85-2h-9.61v60h3.28Z" fill="#9af7c4" />
  <path d="M81,70A32.94,32.94,0,0,0,68.2,43.91H34.73c-2.19,0-4.38-.1-6.54-.3A33,33,0,0,0,28,96.28c1.46-.12,2.93-.2,4.41-.2H68.21A32.94,32.94,0,0,0,81,70Z" fill="#282828" />
  <path d="M81,70A32.89,32.89,0,0,0,70,45.42V94.58A32.89,32.89,0,0,0,81,70Z" fill="#1e1e1e" />
  <rect x="22" y="71" width="37" height="12" rx="1.01" ry="1.01" fill="#8eedb4" />
  <path d="M75,60H70v8h5a1,1,0,0,0,1-1V61A1,1,0,0,0,75,60Z" fill="#ececec" />
  <rect x="22" y="60" width="54" height="8" rx="1" ry="1" fill="#fff" />
</svg>
