<svg version="1.1" xmlns="http://www.w3.org/2000/svg" viewBox="0 0 140 140">
  <rect x="44" width="52" height="140" fill="#1e1e1e" />
  <rect x="44" width="26.5" height="140" fill="#282828" />
  <rect x="44" width="6" height="140" fill="#333" />
  <rect x="90" width="6" height="140" fill="#333" />
  <rect x="50" y="124" width="40" height="10" rx="5" ry="5" fill="#39a1b7" />
  <path d="M70.5,124H55a5,5,0,0,0,0,10H70.5Z" fill="#43bdd7" />
  <circle cx="85" cy="117" r="5" fill="#ececec" />
  <path d="M87,102s-14-7-25-4-12,17-12,17,9.76,7.25,18,5C79,117,87,102,87,102Z" fill="#dbaa89" />
  <path d="M70.5,97.36A24.88,24.88,0,0,0,62,98c-11,3-12,17-12,17s9.76,7.25,18,5a17.25,17.25,0,0,0,2.5-.91Z" fill="#e6b38b" />
  <path d="M89.78,76.86A1,1,0,0,0,88.65,76l-1.29.18a10.48,10.48,0,0,0-19.2,2.7l-1.29.18A1,1,0,0,0,66,80.2l.84,5.94A1,1,0,0,0,68,87l1.29-.18a10.48,10.48,0,0,0,19.2-2.7l1.29-.18a1,1,0,0,0,.85-1.13Z" fill="#efd700" />
  <path d="M70.5,74.51a10.51,10.51,0,0,0-2.35,4.38l-1.29.18A1,1,0,0,0,66,80.2l.84,5.94A1,1,0,0,0,68,87l1.29-.18a10.59,10.59,0,0,0,1.23,1.65Z" fill="#ffe800" />
  <path d="M51,83c1.27-3.82,13-6,13-2,0,7.07,9,14,7,14-12,0-15,5-17,5S50,86,51,83Z" fill="#43bdd7" />
  <rect x="71" y="58" width="15" height="8" rx="1" ry="1" fill="#39a1b7" />
  <path d="M69,57a1,1,0,0,1,1-1H85a1,1,0,0,0,1-1V48a1,1,0,0,0-1-1H54a1,1,0,0,0-1,1V65a1,1,0,0,0,1,1H68a1,1,0,0,0,1-1Z" fill="#ececec" />
  <path d="M70.5,47H54a1,1,0,0,0-1,1V65a1,1,0,0,0,1,1H68a1,1,0,0,0,1-1V57a1,1,0,0,1,1-1h.5Z" fill="#fff" />
  <rect x="50" y="2" width="40" height="40" fill="#39a1b7" />
  <rect x="50" y="2" width="20.5" height="40" fill="#43bdd7" />
  <circle cx="70" cy="22" r="14" fill="#1e1e1e" />
  <path d="M70.5,8,70,8a14,14,0,0,0,0,28l.5,0Z" fill="#282828" />
  <rect x="59" y="15" width="22" height="14" rx="2" ry="2" transform="translate(-3.04 15.03) rotate(-12)" fill="#efd700" />
  <path d="M70.5,14.74,59.74,17A2,2,0,0,0,58.2,19.4l2.08,9.78a2,2,0,0,0,2.37,1.54l7.85-1.67Z" fill="#ffe800" />
</svg>
