<?xml version="1.0" encoding="utf-8"?>
<svg version="1.1" xmlns="http://www.w3.org/2000/svg" viewBox="0 0 140 140">
	<path fill="#DF0814" d="M30.11,53.1c-4.89,0-9.75-0.66-14.29-1.93L8.08,49v42l9.6-2.69c3.32-0.93,6.86-1.41,10.43-1.41H70V53.1 H30.11z"/>
	<path fill="#CF0C11" d="M124.78,89l7.14,2V49l-6.49,1.82c-5.37,1.51-11.1,2.28-16.89,2.28H70H30.11c-4.89,0-9.75-0.66-14.29-1.93 L8.08,49v42l9.6-2.69c3.32-0.93,6.86-1.41,10.43-1.41H70h39.24C114.56,86.9,119.83,87.61,124.78,89z"/>
	<path fill="#C60D10" d="M8.08,49H5.37l0,0H0.15c0,0.64,0.25,1.25,0.71,1.7l1.43,1.43c0.27,0.27,0.42,0.64,0.42,1.02 c0,0.39-0.15,0.75-0.42,1.02l-1.52,1.52c-0.94,0.94-0.94,2.47,0,3.41l1.41,1.41c0.57,0.56,0.57,1.48,0,2.05l-1.43,1.43 c-0.94,0.94-0.94,2.47,0,3.41l1.47,1.47c0.57,0.56,0.57,1.48,0,2.05L0.7,72.44C0.23,72.9,0,73.52,0,74.14 c0,0.62,0.23,1.25,0.71,1.72l1.52,1.52c0.57,0.56,0.57,1.48,0,2.05L0.76,80.9c-0.94,0.94-0.94,2.47,0,3.41l1.43,1.43 c0.57,0.56,0.57,1.48,0,2.05L0.78,89.2c-0.5,0.5-0.73,1.16-0.7,1.81h8V49z"/>
	<path fill="#B40F0C" d="M131.92,91h2.71l0,0h5.23c0-0.64-0.25-1.25-0.71-1.7l-1.43-1.43c-0.27-0.27-0.42-0.64-0.42-1.02 c0-0.39,0.15-0.75,0.42-1.02l1.51-1.51c0.94-0.94,0.94-2.47,0-3.41l-1.41-1.41c-0.57-0.56-0.57-1.48,0-2.05l1.43-1.43 c0.94-0.94,0.94-2.47,0-3.41l-1.47-1.47c-0.57-0.56-0.57-1.48,0-2.05l1.52-1.52c0.48-0.47,0.71-1.1,0.71-1.72 c0-0.62-0.23-1.25-0.71-1.72l-1.52-1.52c-0.57-0.56-0.57-1.48,0-2.05l1.47-1.47c0.94-0.94,0.94-2.47,0-3.41l-1.43-1.43 c-0.57-0.56-0.57-1.48,0-2.05l1.41-1.41c0.5-0.5,0.73-1.16,0.7-1.81h-8L131.92,91L131.92,91z"/>
	<path fill="#3D61AA" d="M53.45,79.84c-3.17,0-5.75-2.58-5.75-5.75v-9.15c0-3.17,2.58-5.75,5.75-5.75h62.81 c3.17,0,5.75,2.58,5.75,5.75v9.15c0,3.17-2.58,5.75-5.75,5.75H53.45z"/>
	<path fill="#FFFFFF" d="M116.26,61.2c2.07,0,3.75,1.68,3.75,3.75v9.15c0,2.07-1.68,3.75-3.75,3.75H53.45 c-2.07,0-3.75-1.68-3.75-3.75v-9.15c0-2.07,1.68-3.75,3.75-3.75L116.26,61.2 M116.26,57.2H53.45c-4.27,0-7.75,3.47-7.75,7.75v9.15 c0,4.27,3.47,7.75,7.75,7.75h62.81c4.27,0,7.75-3.47,7.75-7.75v-9.15C124,60.67,120.53,57.2,116.26,57.2L116.26,57.2z"/>
	<path fill="#395A9D" d="M70,61.2h46.73c1.81,0,3.27,1.46,3.27,3.26v10.11c0,1.8-1.46,3.26-3.27,3.26H70"/>
	<path fill="#FFFFFF" d="M53.34,67.25H70v4.53H53.34c-1.25,0-2.26-1.01-2.26-2.26l0,0C51.07,68.26,52.09,67.25,53.34,67.25z"/>
	<path fill="#ECECEC" d="M109.19,71.78H70v-4.53h39.19c1.25,0,2.26,1.01,2.26,2.26l0,0C111.45,70.77,110.44,71.78,109.19,71.78z"/>
	<path fill="#ECECEC" d="M27.19,59.55c-9.21,6.13-16.01,13.66-19.11,20.38V91l9.6-2.69c3.32-0.93,6.86-1.41,10.43-1.41h17.6 c15.76-10.56,24.44-25.19,19.38-32.74c-0.25-0.38-0.54-0.73-0.85-1.05H39.3C35.34,54.71,31.23,56.86,27.19,59.55z"/>
</svg>
