<svg xmlns="http://www.w3.org/2000/svg" viewBox="1259.079 -240 160.943 30.786"><defs><style>.cls-1 { fill: #54b5e4; } .cls-2 { fill: #4ba1cb; } .cls-3 { fill: #b6b6b6; } .cls-4 { fill: #ccc; } .cls-5 { fill: #e6e6f0; } .cls-6 { fill: none; } .cls-7 { fill: #15249b; } .cls-8 { fill: #cdcdd6; } .cls-9 { fill: #000079; } .cls-10 { fill: #c7020f; }</style></defs><g id="Group_71_1_"><g id="Group_70_1_"><path id="Rectangle_133_1_" d="M1263.682-240h151.737v30.786h-151.737z" class="cls-1"/><path id="Rectangle_134_1_" d="M1339.469-240h75.951v30.786h-75.951z" class="cls-2"/><path id="Path_279_1_" d="M1415.419-240v30.786a4.471 4.471 0 0 0 4.6-4.442v-22.056a4.444 4.444 0 0 0-4.6-4.288z" class="cls-3"/><path id="Path_280_1_" d="M1259.079-235.711v22.056a4.569 4.569 0 0 0 4.6 4.442V-240a4.444 4.444 0 0 0-4.6 4.289z" class="cls-4"/></g><g id="Group_86" data-name="Group 86"><g id="Rectangle_135_1_"><path id="Path_345" d="M1277.851-231.98h79.568c4.768 0 8.549 3.523 8.549 7.965s-3.781 7.964-8.549 7.964h-79.568c-4.768 0-8.549-3.523-8.549-7.964.001-4.442 3.782-7.965 8.549-7.965z" data-name="Path 345" class="cls-5"/><path id="Path_346" d="M1277.851-231.214h79.568a7.468 7.468 0 0 1 7.727 7.2 7.468 7.468 0 0 1-7.727 7.2h-79.568a7.468 7.468 0 0 1-7.727-7.2 7.468 7.468 0 0 1 7.727-7.2z" data-name="Path 346" class="cls-6"/></g><path id="Rectangle_142_1_" d="M1277.751-230.468h81.216a6.722 6.722 0 0 1 6.9 6.433 6.722 6.722 0 0 1-6.9 6.433h-81.216a6.722 6.722 0 0 1-6.9-6.433 6.722 6.722 0 0 1 6.9-6.433z" class="cls-7"/><path id="Rectangle_136_1_" d="M1339.569-232h19.07c4.767 0 8.549 3.523 8.549 7.965s-3.781 7.964-8.549 7.964h-19.07V-232z" class="cls-8"/><path id="Rectangle_137_1_" d="M1339.569-230.468h18.412a6.722 6.722 0 0 1 6.9 6.433 6.722 6.722 0 0 1-6.9 6.433h-18.412v-12.866z" class="cls-9"/></g><g id="Group_87" data-name="Group 87"><path id="Rectangle_140_1_" d="M1385.766-231h13.643a7.129 7.129 0 0 1 7.4 6.892 7.129 7.129 0 0 1-7.4 6.892h-13.643a7.129 7.129 0 0 1-7.4-6.892 7.229 7.229 0 0 1 7.4-6.892z" class="cls-10"/><path id="Rectangle_143_1_" d="M1385.764-229.775h13.645a6.042 6.042 0 0 1 6.247 5.82 6.042 6.042 0 0 1-6.247 5.82h-13.645a6.042 6.042 0 0 1-6.247-5.82 6.042 6.042 0 0 1 6.247-5.82z" class="cls-8"/><path id="Rectangle_141_1_" d="M1385.761-228.244h13.155a4.449 4.449 0 0 1 4.6 4.289 4.444 4.444 0 0 1-4.6 4.289h-13.155a4.449 4.449 0 0 1-4.6-4.289 4.668 4.668 0 0 1 4.6-4.289z" class="cls-9"/></g></g></svg>