<?xml version="1.0" encoding="utf-8"?>
<svg version="1.1" xmlns="http://www.w3.org/2000/svg" viewBox="0 0 140 140">
	<path fill="#43BDD7" d="M94,50c0-2,0-7,0-9c0-6.58-8.81-22-14.8-22c-0.01,0,0-3,0-3H63.8c0,0,0.01,3,0,3C57.81,19,49,34.42,49,41 c0,2,0,7,0,9c0,3.53,3,4,3,4v50c0,0-3,3-3,4s1,11,1,12s1.56,14.56,3,16c1.31,1.31,3.5,2,5,2c1.67,0,5-2,5-2s2.68,2.49,4,3 c3.38,1.31,5.94,1.22,9,0c1.31-0.52,4-3,4-3s3.33,2,5,2c1.5,0,3.69-0.69,5-2c1.44-1.44,3-15,3-16s1-11,1-12s-3-4-3-4V54 C91,54,94,53.53,94,50z"/>
	<rect x="52" y="54" fill="#EDAB07" width="39" height="50"/>
	<path fill="#A8ABA4" d="M81,16H62c-1.1,0-2-0.9-2-2v0c0-1.1,0.9-2,2-2h19c1.1,0,2,0.9,2,2v0C83,15.1,82.1,16,81,16z"/>
	<rect x="62" fill="#909191" width="19" height="12"/>
	<polygon fill="#FFCD00" points="54,55 90,55 90,101.83 85.5,61.33"/>
	<polygon fill="#39A1B7" points="80,135.94 82.12,131.12 82.38,137"/>
	<polygon fill="#39A1B7" points="61,136.75 60.94,130.88 62.94,135.81"/>
	<path fill="#39A1B7" d="M55,135.25c0,0-0.13-8.21-0.5-10.75c-0.38-2.64-0.67-8.86-1.42-11.42c-0.58-1.96,0.42-8,0.42-8 s-2.51,2.3-2.12,5.04c0.3,2.11,0.71,12.98,1.38,15C53.47,127.33,55,135.25,55,135.25z"/>
	<path fill="#39A1B7" d="M56.5,52.33c0,0-1.73-3.94-2-5.33c-0.33-1.68-0.58-5.17-0.17-6.83c1.37-5.54,10-20.5,10-20.5 s-11.1,9-12.75,19.92c-0.47,3.14-1.15,9.76,0.92,11.92C53.21,52.24,56.5,52.33,56.5,52.33z"/>
</svg>
