<svg version="1.1" xmlns="http://www.w3.org/2000/svg" viewBox="0 0 140 140">
  <path d="M122.13,112.31,130,117V29l-7.13,4.43a60.89,60.89,0,0,1-19.12,3h-69A51.66,51.66,0,0,1,18.55,33.9L9.78,31,10,117l10.65-5.61a37.54,37.54,0,0,1,11.81-1.88h72.08A55.75,55.75,0,0,1,122.13,112.31Z" fill="#39a1b7" />
  <path d="M34.73,36.49a51.66,51.66,0,0,1-16.18-2.58L10,29v88l10.65-5.61a37.54,37.54,0,0,1,11.81-1.88H70v-73Z" fill="#43bdd7" />
  <path d="M0,29v88H10V29Z" fill="#42ccdb" />
  <path d="M130,29v88h10V29Z" fill="#42ccdb" />
  <rect x="85.5" y="89.03" width="32" height="8" rx="1.5" ry="1.5" transform="translate(-6.24 7.31) rotate(-4)" fill="#ececec" />
  <rect x="31.61" y="92.1" width="52" height="8" rx="1.5" ry="1.5" transform="translate(-6.56 4.25) rotate(-4)" fill="#733923" />
  <path d="M70,91.22,32.89,93.81a1.5,1.5,0,0,0-1.39,1.6l.35,5a1.5,1.5,0,0,0,1.6,1.39L70,99.24Z" fill="#8b462d" />
  <rect x="30.73" y="76.94" width="86" height="12" rx="3" ry="3" transform="translate(-5.61 5.35) rotate(-4)" fill="#733923" />
  <path d="M70,77.19,33.41,79.74a3,3,0,0,0-2.78,3.2l.42,6a3,3,0,0,0,3.2,2.78L70,89.22Z" fill="#8b462d" />
  <rect x="33.73" y="79.94" width="80" height="6" rx="1.5" ry="1.5" transform="matrix(1, -0.07, 0.07, 1, -5.61, 5.35)" fill="#ececec" />
  <rect x="28.13" y="46.07" width="86" height="28" rx="5" ry="5" transform="translate(-4.02 5.11) rotate(-4)" fill="#ececec" />
  <path d="M70,46.11,32.25,48.75a5,5,0,0,0-4.64,5.34l1.26,18a5,5,0,0,0,5.34,4.64L70,74.18Z" fill="#fff" />
  <path d="M130,37.24c-1.3-2-2.67-3.85-4.15-5.67l-3,1.85a60.76,60.76,0,0,1-18,3,53.45,53.45,0,0,1,7.2,73.56,55.21,55.21,0,0,1,10,2.3l7.77,4.63.1-.15Z" fill="#733923" />
  <path d="M130,116.79a71.61,71.61,0,0,0,10-23V60.16a71.64,71.64,0,0,0-10-22.92Z" fill="#642c1b" />
  <path d="M35.1,36.47h-.37A51.66,51.66,0,0,1,18.55,33.9l-4.29-2.46c-1.52,1.85-2.93,3.79-4.26,5.8v79.56l.1.16,10.55-5.56a36.83,36.83,0,0,1,7.1-1.59A53.45,53.45,0,0,1,35.1,36.47Z" fill="#8b462d" />
  <path d="M10,37.23A71.67,71.67,0,0,0,0,60.16V93.84a71.61,71.61,0,0,0,10,23Z" fill="#642c1b" />
  <path d="M70,80.19,35.12,82.63a1.5,1.5,0,0,0-1.39,1.6l.21,3a1.5,1.5,0,0,0,1.6,1.39L70,86.21Z" fill="#fff" />
</svg>
