<?xml version="1.0" encoding="utf-8"?>
<svg version="1.1" xmlns="http://www.w3.org/2000/svg" viewBox="0 0 140 140">
  <path d="M124.78,89l7.14,2V49l-6.49,1.83a62.65,62.65,0,0,1-16.89,2.29H30.11a52.94,52.94,0,0,1-14.29-1.94L8.08,49v42.1l9.6-2.7a38.84,38.84,0,0,1,10.43-1.41h81.13A57.7,57.7,0,0,1,124.78,89Z" fill="#990715" />
  <path d="M30.1,53.07a52.94,52.94,0,0,1-14.29-1.94L8.08,49V91l9.6-2.7A38.84,38.84,0,0,1,28.1,86.94H70V53.07Z" fill="#a5081f" />
  <path d="M26,79.5C26,71.45,16,70,16.28,66c.09-1.3,6.22-4.78,7.49-8.21.69-1.86-.05-3.71-.77-5.19a51.38,51.38,0,0,1-7.19-1.47L8.08,49V91l9.6-2.7A38.55,38.55,0,0,1,26.29,87C26.3,84.43,26,81.27,26,79.5Z" fill="#d31b76" />
  <path d="M8.08,48.95H.15a2.39,2.39,0,0,0,.71,1.71l1.43,1.43a1.45,1.45,0,0,1,.42,1,1.47,1.47,0,0,1-.42,1L.77,55.65a2.43,2.43,0,0,0,0,3.42l1.41,1.41a1.44,1.44,0,0,1,0,2L.75,64a2.43,2.43,0,0,0,0,3.42l1.47,1.47a1.44,1.44,0,0,1,0,2.05L.7,72.42A2.47,2.47,0,0,0,0,74.15a2.4,2.4,0,0,0,.71,1.72l1.52,1.52a1.44,1.44,0,0,1,0,2.05L.76,80.91a2.43,2.43,0,0,0,0,3.42l1.43,1.43a1.44,1.44,0,0,1,0,2.05L.78,89.22A2.39,2.39,0,0,0,.08,91h8Z" fill="#e22496" />
  <path d="M131.92,91.05h7.94a2.39,2.39,0,0,0-.71-1.71l-1.43-1.43a1.45,1.45,0,0,1-.42-1,1.47,1.47,0,0,1,.42-1l1.51-1.51a2.43,2.43,0,0,0,0-3.42l-1.41-1.41a1.44,1.44,0,0,1,0-2.05L139.24,76a2.43,2.43,0,0,0,0-3.42l-1.47-1.47a1.44,1.44,0,0,1,0-2.05l1.52-1.52a2.44,2.44,0,0,0,0-3.44l-1.52-1.52a1.44,1.44,0,0,1,0-2l1.47-1.47a2.43,2.43,0,0,0,0-3.42l-1.43-1.43a1.44,1.44,0,0,1,0-2l1.41-1.41a2.39,2.39,0,0,0,.7-1.81h-8V91.05Z" fill="#a5081f" />
  <rect x="46.52" y="75.82" width="53.43" height="7.46" rx="1.86" ry="1.86" transform="translate(-5.37 5.3) rotate(-4)" fill="#bf1d7e" />
  <path d="M70,76,48.18,77.56a1.86,1.86,0,0,0-1.73,2l.26,3.72a1.86,1.86,0,0,0,2,1.73L70,83.51Z" fill="#d31b76" />
  <rect x="48.38" y="77.68" width="49.7" height="3.73" rx="0.93" ry="0.93" transform="translate(-5.37 5.3) rotate(-4)" fill="#ececec" />
  <path d="M70,77.9,49.24,79.35a.93.93,0,0,0-.86,1l.13,1.86a.93.93,0,0,0,1,.86L70,81.64Z" fill="#fff" />
  <rect x="44.9" y="56.63" width="53.43" height="17.4" rx="3.11" ry="3.11" transform="translate(-4.38 5.15) rotate(-4)" fill="#ececec" />
  <path d="M70,56.73,47.46,58.3a3.11,3.11,0,0,0-2.88,3.32l.78,11.16a3.11,3.11,0,0,0,3.32,2.88L70,74.16Z" fill="#fff" />
</svg>
