<?xml version="1.0" encoding="utf-8"?>
<svg version="1.1" id="pepsi-max-can" xmlns="http://www.w3.org/2000/svg" viewBox="0 0 140 140">
  <polygon points="106 129 98 139 42 139 34 129 34 18 42 5 42 4 98 4 98 5 106 18 106 129" fill="#1e1e1e" />
  <polygon points="42 5 42 4 70 4 70 139 42 139 34 129 34 18 42 5" fill="#282828" />
  <rect x="42" y="139" width="56" height="1" fill="#909191" />
  <rect x="42" y="1" width="56" height="3" fill="#909191" />
  <rect x="77" width="16" height="1" fill="#485656" />
  <rect x="46" y="99" width="48" height="18" rx="3.29" ry="3.29" fill="#cf0c11" />
  <path d="M70,99H49.29A3.3,3.3,0,0,0,46,102.29v11.43A3.3,3.3,0,0,0,49.29,117H70Z" fill="#df0814" />
  <rect x="46" y="87" width="22" height="10" rx="2.9" ry="2.9" fill="#fff" />
  <circle cx="70" cy="55" r="27.5" fill="#ececec" />
  <path d="M42.5,55A27.5,27.5,0,0,0,70,82.5v-55A27.5,27.5,0,0,0,42.5,55Z" fill="#fff" />
  <path d="M85.68,34.76A25.6,25.6,0,0,0,48.9,69.49,71.38,71.38,0,0,0,85.68,34.76Z" fill="#cf0c11" />
  <path d="M44.4,55a25.48,25.48,0,0,0,4.5,14.49A71.2,71.2,0,0,0,70,55.92V29.4A25.6,25.6,0,0,0,44.4,55Z" fill="#df0814" />
  <path d="M70,80.6A25.6,25.6,0,0,0,89.78,38.75c.88,7.77-.33,17.83-6.51,21.94-7.32,4.88-23.41,7.4-33,10.62A25.55,25.55,0,0,0,70,80.6Z" fill="#32467f" />
  <path d="M50.26,71.3A25.55,25.55,0,0,0,70,80.6V66C63.18,67.89,55.69,69.49,50.26,71.3Z" fill="#375391" />
</svg>
