<?xml version="1.0" encoding="utf-8"?>
<svg version="1.1" xmlns="http://www.w3.org/2000/svg" viewBox="0 0 140 140">
  <path d="M112,8H28s3,17,3,24v78c0,5.92-3,22-3,22h84s-3-17.68-3-22V31C109,24.57,112,8,112,8Z" fill="#cc2f8c" />
  <path d="M28,132H70V8H28s3,17,3,24v78C31,115.92,28,132,28,132Z" fill="#d13098" />
  <path d="M104.67,117.67c-3.57.51-2.65.83-5.33.83-2.33,0-4.25.67-5.67.67-1.64,0-4.09.92-9.33-.83-2.5-.83-6.42.92-9.5.17a32.46,32.46,0,0,0-9.17.08c-2.07.42-3.36-1.15-5.73-1.15-1.31,0-3,1.13-5.94.13-2.37-.81-7.5-.12-9.87-.5-3.21-.51-5.5.31-8.44-.37a11.57,11.57,0,0,0-5.3.39C29.51,123.9,28,132,28,132h84s-1.18-7-2.07-13.25C108,118.43,106.86,117.35,104.67,117.67Z" fill="#e0e0e0" />
  <path d="M65.67,118.58c-2.07.42-3.36-1.15-5.73-1.15-1.31,0-3,1.13-5.94.13-2.37-.81-7.5-.12-9.87-.5-3.21-.51-5.5.31-8.44-.37a11.57,11.57,0,0,0-5.3.39h0c-.66,5.11-1.67,10.93-2.14,13.53v0l-.1.53v.06l-.07.39v.06L28,132H70V118.21A23.61,23.61,0,0,0,65.67,118.58Z" fill="#ececec" />
  <rect x="28" y="132" width="84" height="8" fill="#c6c6c6" />
  <rect x="28" y="132" width="42" height="8" fill="#d1d1d1" />
  <rect x="28" width="84" height="8" fill="#d12c96" />
  <rect x="28" width="42" height="8" fill="#d62ba2" />
  <rect x="48" y="9" width="44" height="44" rx="2" ry="2" fill="#ececec" />
  <path d="M70,9H50a2,2,0,0,0-2,2V51a2,2,0,0,0,2,2H70Z" fill="#fff" />
  <rect x="52" y="30" width="36" height="17" rx="2" ry="2" fill="#db9d4b" />
  <path d="M70,30H54a2,2,0,0,0-2,2V45a2,2,0,0,0,2,2H70Z" fill="#e8a84c" />
  <rect x="52" y="16" width="36" height="12" rx="2" ry="2" fill="#1e1e1e" />
  <path d="M70,16H54a2,2,0,0,0-2,2v8a2,2,0,0,0,2,2H70Z" fill="#282828" />
</svg>
