<?xml version="1.0" encoding="utf-8"?>
<svg version="1.1" xmlns="http://www.w3.org/2000/svg" viewBox="0 0 140 140">
  <polygon points="137 88 2 88 0 80 0 60 2 52 137 52 140 60 140 80 137 88" fill="#395a9e" />
  <polygon points="70 88 70 52 2 52 0 60 0 80 2 88 70 88" fill="#3d61aa" />
  <path d="M126.83,52a36,36,0,0,0,0,36H137l3-8V60l-3-8Z" fill="#bf1d7e" />
  <ellipse cx="66.5" cy="83.5" rx="8.5" ry="2.5" fill="#bf1d7e" />
  <path d="M70,81.22A26.69,26.69,0,0,0,66.5,81c-4.69,0-8.5,1.12-8.5,2.5S61.81,86,66.5,86a26.69,26.69,0,0,0,3.5-.22Z" fill="#d31b76" />
  <path d="M89.26,84c-4.67.45-8.35,1.93-8.22,3.3a1,1,0,0,0,.43.68H94.76c2-.65,3.28-1.5,3.2-2.32C97.83,84.31,93.93,83.56,89.26,84Z" fill="#759e28" />
  <path d="M27,52c.11,1.37,4,2.26,8.62,2,3.55-.2,6.55-1,7.76-2Z" fill="#7da82b" />
  <ellipse cx="112.5" cy="85.5" rx="8.5" ry="2.5" fill="#39a1b7" />
  <ellipse cx="36.5" cy="85.5" rx="8.5" ry="2.5" fill="#8b462d" />
  <path d="M56,86c-4.61-.89-8.56-.51-8.82.85a1.3,1.3,0,0,0,.5,1.11H61.92A21.68,21.68,0,0,0,56,86Z" fill="#f39322" />
  <path d="M88.42,52A26.37,26.37,0,0,0,92,53c4.61.89,8.56.51,8.82-.85a.77.77,0,0,0,0-.11Z" fill="#e0891f" />
  <path d="M15.33,85c-4.61.31-8.28,1.64-8.31,3H23.31A1.34,1.34,0,0,0,24,86.93C23.89,85.56,20,84.69,15.33,85Z" fill="#df0814" />
  <ellipse cx="45.5" cy="56.5" rx="8.5" ry="2.5" fill="#d31b76" />
  <ellipse cx="106.5" cy="55.5" rx="8.5" ry="2.5" fill="#efd700" />
  <path d="M65,52c-.65.43-1,.88-1,1.32.13,1.37,4,2.12,8.7,1.66,4.31-.42,7.76-1.71,8.17-3Z" fill="#cf0c11" />
  <path d="M70,52H65c-.65.43-1,.88-1,1.32.11,1.09,2.6,1.79,6,1.79Z" fill="#df0814" />
  <path d="M8,52.76c-.12,1.38,3.57,2.82,8.25,3.23s8.57-.37,8.69-1.75c.07-.8-1.14-1.61-3.08-2.24H8.55A1.1,1.1,0,0,0,8,52.76Z" fill="#43bdd7" />
  <path d="M45.75,59.5c8-.25,28.75-4,36.5-4s26.25-.5,32,2.75,6,17.75,1,21.5S92,83.5,88,83.25s-17.5-2.5-22.5-2.5-18.75,1.21-23.25,1a128,128,0,0,0-16.25,0c-3,.32-18.5,5.25-21.25-.5s1.5-21,8.5-23.5C18.56,55.85,39.21,59.7,45.75,59.5Z" fill="#733923" />
  <path d="M70,56.62c-8.81,1.13-19.13,2.72-24.25,2.88-6.54.2-27.19-3.65-32.5-1.75-7,2.5-11.25,17.75-8.5,23.5s18.25.82,21.25.5a128,128,0,0,1,16.25,0c4.5.21,18.25-1,23.25-1,1.13,0,2.71.12,4.5.3Z" fill="#8b462d" />
  <path d="M11.6,81C8.92,81,7.69,80.45,7.46,80c-1-2.08-.74-7.34,1.4-12.54,1.49-3.6,3.5-6.16,5.4-6.84A12.4,12.4,0,0,1,18,60.22c4.14,0,10.15.67,15.45,1.27,4.84.54,9,1,11.76,1h.63c3.93-.12,10.48-1,17.42-2,7.42-1,15.09-2,19-2h2.82l4.13,0c12.84,0,20.77.8,23.57,2.39,1.55.88,2.75,3.88,3,7.47.29,4.51-1,8-2.3,9-2.35,1.76-11.16,3-21.42,3-1.54,0-3,0-3.84-.09-1.48-.09-4.58-.51-7.87-1A147.72,147.72,0,0,0,65.5,77.75c-2.3,0-6.23.24-10.4.49-4.38.26-8.91.54-11.62.54l-1.09,0c-2.92-.14-6.37-.27-9.79-.27a68.54,68.54,0,0,0-6.92.29c-.74.08-1.79.31-3.23.63A54.88,54.88,0,0,1,11.6,81Z" fill="#ececec" />
  <path d="M70,59.65c-2.19.28-4.48.59-6.74.9-6.94.94-13.49,1.83-17.42,2h-.63c-2.74,0-6.92-.47-11.76-1-5.3-.6-11.3-1.27-15.45-1.27a12.4,12.4,0,0,0-3.74.35c-1.89.68-3.91,3.23-5.4,6.84C6.72,72.62,6.46,77.88,7.46,80,7.69,80.45,8.92,81,11.6,81A54.88,54.88,0,0,0,22.46,79.4c1.45-.32,2.49-.55,3.23-.63a68.54,68.54,0,0,1,6.92-.29c3.41,0,6.86.14,9.79.27l1.09,0c2.71,0,7.24-.27,11.62-.54,4.16-.25,8.09-.49,10.4-.49,1.17,0,2.73.11,4.5.28Z" fill="#fff" />
</svg>
