<?xml version="1.0" encoding="utf-8"?>
<svg version="1.1" xmlns="http://www.w3.org/2000/svg" viewBox="0 0 140 140">
  <rect x="20" y="4" width="100" height="132" fill="#cf0c11" />
  <rect x="20" y="4" width="50" height="132" fill="#df0814" />
  <rect x="43" y="110" width="54" height="16" rx="1.58" ry="1.58" fill="#ececec" />
  <path d="M70,110H44.58A1.58,1.58,0,0,0,43,111.58v12.83A1.58,1.58,0,0,0,44.58,126H70Z" fill="#fff" />
  <rect x="32" y="102" width="76" height="6" rx="1.15" ry="1.15" fill="#ececec" />
  <path d="M70,102H33.15A1.15,1.15,0,0,0,32,103.15v3.7A1.15,1.15,0,0,0,33.15,108H70Z" fill="#fff" />
  <rect x="27" y="84" width="86" height="16" rx="2" ry="2" fill="#efd700" />
  <path d="M70,84H29a2,2,0,0,0-2,2V98a2,2,0,0,0,2,2H70Z" fill="#ffe800" />
  <path d="M43.49,76.5h53a38.75,38.75,0,1,0-53,0Z" fill="#efd700" />
  <path d="M31.25,48.25A38.63,38.63,0,0,0,43.49,76.5H70V9.5A38.75,38.75,0,0,0,31.25,48.25Z" fill="#ffe800" />
  <polygon points="67.63 53.19 59.06 24.75 70.94 19.44 78.44 48.38 67.63 53.19" fill="#e8b187" />
  <polygon points="70 19.86 59.06 24.75 67.63 53.19 70 52.13 70 19.86" fill="#f3bc8c" />
  <path d="M54.5,43.06c1.49-1.32,5.75-2.31,5.75-2.31s3.22,4.7,5.38,5.81a9.54,9.54,0,0,0,7.06.56,3,3,0,0,0,1.94-3.81c-.42-1.23-.56-3-.81-3.06s3.44-.44,4.5.75,9.9,13,11.25,16c.13.29-.64.36-.94.33s-3.68-3-4.87-2.83c-2.12.31-2.54,1.88-2.5,2.25a10.34,10.34,0,0,0,1.38,2.88s-1.5-1.48-2-1.19c-1.12.65-1.17,8.19-1.17,8.19l-16,.06a42.89,42.89,0,0,1-2.94-5.06,48.84,48.84,0,0,0-1.92-4.75c-.53-1.06-4.33-.12-5.08,1.88s-1.63,1.62-1.62,1.13C51.92,57.08,52.38,44.94,54.5,43.06Z" fill="#e0e0e0" />
  <path d="M70,47.54a9.12,9.12,0,0,1-4.37-1c-2.16-1.11-5.37-5.81-5.37-5.81s-4.26,1-5.75,2.31c-2.12,1.88-2.58,14-2.62,16.81,0,.49.88.88,1.63-1.12s4.55-2.94,5.08-1.87a48.85,48.85,0,0,1,1.92,4.75,42.88,42.88,0,0,0,2.94,5.06l6.56,0Z" fill="#ececec" />
  <path d="M44.63,74.19S62.31,78,71.25,77.75s26.63-3.5,26.63-3.5-1.5,3.69-2.44,4.06-15.25,3.25-24,3.25A137.3,137.3,0,0,1,46.5,78.75C45.25,78.38,44.63,74.19,44.63,74.19Z" fill="#733923" />
  <path d="M70,77.76c-9.23-.09-25.37-3.57-25.37-3.57s.63,4.19,1.88,4.56A139.64,139.64,0,0,0,70,81.55Z" fill="#8b462d" />
  <path d="M50.44,75.33a.64.64,0,0,1,.29.05c6,1.09,14.94,2.52,20.52,2.36,8.94-.25,26.63-3.5,26.63-3.5l-.09.22c.59-.32,1.18-.31,1.55-.7,1.36-1.41,1.11-5.55.58-7.44-.6-2.13-4-5.67-6-6.5-1.82-.74-5.87.32-7.83.33-1.8,0-5.49-.14-7.17.5-1.52.58-4,3.16-5.67,3.17-2.74,0-7.3-4-10-4.5s-8.18.47-10.67,1.5c-3.16,1.31-10.22,7.74-10.83,8.33-1.2,1.16-1.8,4.86-1.5,6.5s2.23,5,3.83,5.17a4.39,4.39,0,0,0,3.31-1.9" fill="#70a362" />
  <path d="M70,62.76c-2.35-1.22-5-3.1-6.75-3.43-2.65-.49-8.18.47-10.67,1.5-3.16,1.31-10.22,7.74-10.83,8.33-1.2,1.16-1.8,4.86-1.5,6.5s2.23,5,3.83,5.17a4.39,4.39,0,0,0,3.31-1.9l3-3.6a.64.64,0,0,1,.29.05c5.54,1,13.67,2.31,19.27,2.37Z" fill="#73aa61" />
  <path d="M53.5,58.75c-.06,2.25,1.72,6.72,4.13,9.5,1.17,1.35,3.64,4,4.38,5.63s1.1,5.59,2.44,6.81,7.34,1.78,7.22,1.19c-.46-2.16.78-3.14.09-4.12-1.72-2.47-6.12-6.12-7.87-9s-4.17-9.29-5.29-11.87C58.06,55.67,53.54,57.4,53.5,58.75Z" fill="#e8b187" />
  <path d="M70,75.66c-2-2.2-4.82-4.77-6.12-6.91-1.69-2.78-4.17-9.29-5.29-11.87-.52-1.21-5,.52-5.08,1.88-.06,2.25,1.72,6.72,4.13,9.5,1.17,1.35,3.64,4,4.38,5.63s1.1,5.59,2.44,6.81c.9.82,3.72,1.32,5.56,1.41Z" fill="#f3bc8c" />
  <path d="M81.25,56.75c.5,2,4.55,7.65,6.5,9.88,1.42,1.63,4.91,4.28,6.34,5.88,2.41,2.69-2.64,5.73-1.59,7.13.19.25,3.73-1.38,4.72-2.22s2.05-2.89,1.53-3.91c-.66-1.28-2.95-3.28-5.59-7.31C91,62.9,89.23,59,87.88,57.13c-.73-1-2.83-2.77-4.12-2.62C82.87,54.6,81,55.93,81.25,56.75Z" fill="#e8b187" />
  <path d="M58,39.25c2.4-2.48.11-14.5,3-16.62,3.39-2.49,5.38-4.62,8.63-3s6.75,8,6.75,10.63a7.91,7.91,0,0,1-1,4.13s3.5,3.88,2.88,6.25S75,43,73.88,42.5c-1.53-.72-3.75-3.44-2.56-6.25.93-2.19,3.31-5.5.44-10.81-.74-1.36-5.34-3.82-5.5-2.87-.12.75-2.09,3.57-4.75,5.44-.62.44,2.88,5.31,3.38,8.06.39,2.12,3.13,4.63,2.75,8.19-.1.95.94,2.58.88,4.25A6.35,6.35,0,0,1,67.25,52c-.65,1-1.29,4.12-2.5,4.13-1,0-1.79-2.32-2-3.25-.51-2.21-.85-5.76-1.69-7.87C60.53,43.65,56.87,40.42,58,39.25Z" fill="#733923" />
  <path d="M66.25,22.56c.1-.62,2.16.24,3.75,1.3v-4c-.13-.08-.25-.16-.37-.22-3.25-1.62-5.24.51-8.62,3-2.89,2.12-.6,14.14-3,16.63-1.13,1.17,2.53,4.4,3.06,5.75.84,2.11,1.18,5.66,1.69,7.88.21.93,1,3.26,2,3.25C66,56.12,66.6,53,67.25,52a6.35,6.35,0,0,0,1.25-3.5c.07-1.67-1-3.3-.87-4.25.38-3.56-2.36-6.06-2.75-8.19-.5-2.75-4-7.62-3.37-8.06C64.16,26.14,66.13,23.31,66.25,22.56Z" fill="#8b462d" />
  <path d="M66.08,21c-8.15,2.69-4.92,19.17-4.92,19.17l-2.25-4a3.32,3.32,0,0,1-3.25-.58c-.51-.48-.75-2-1.08-2.58-.51-.94-1.86-2.7-2.08-3.75-.19-.88.23-2.69.17-3.58a12.68,12.68,0,0,1-.25-3.25c.28-1,1.82-2.46,2.33-3.33s1.54-3.12,2.5-3.67,3.55-.21,4.67-.58c.87-.29,2.5-1.42,3.42-1.33s2.36,1.66,3.25,2c.66.25,2.19-.2,2.83.08s1.28,1.71,1.75,2.25c.14.16.57.32.67.5.4.73-.53,2.69,0,3.33,4.35,5.27,4.23,12.46,4.23,12.46l-2.31-1.29S74.78,18.13,66.08,21Z" fill="#cf0c11" />
  <path d="M70,15.53a3.8,3.8,0,0,1-1.42,0c-.89-.34-2.3-1.91-3.25-2s-2.55,1-3.42,1.33c-1.12.37-3.64,0-4.67.58s-1.94,2.71-2.5,3.67-2.05,2.36-2.33,3.33a12.68,12.68,0,0,0,.25,3.25c.06.89-.35,2.71-.17,3.58.22,1,1.57,2.81,2.08,3.75.34.61.57,2.11,1.08,2.58a3.32,3.32,0,0,0,3.25.58l2.25,4S57.94,23.69,66.08,21A5.74,5.74,0,0,1,70,21Z" fill="#df0814" />
</svg>
