<svg version="1.1" xmlns="http://www.w3.org/2000/svg" viewBox="0 0 140 140">
  <path d="M122.13,94.13,130.22,96V38l-7.35,1.68A86.32,86.32,0,0,1,103.75,42h-69a73.54,73.54,0,0,1-16.18-2L9.78,38V96L20.65,93.5A53.26,53.26,0,0,1,32.46,92h72.08A79.71,79.71,0,0,1,122.13,94.13Z" fill="#dac92a" />
  <path d="M34.73,42a73.54,73.54,0,0,1-16.18-2L9.78,38V96L20.65,93.5A53.26,53.26,0,0,1,32.46,92H70V42Z" fill="#e8d62d" />
  <path d="M6.5,38H.18A2.68,2.68,0,0,0,1,40l1.74,1.65a1.62,1.62,0,0,1,0,2.36L.94,45.71a2.69,2.69,0,0,0,0,3.93l1.71,1.62a1.6,1.6,0,0,1,0,2.36L.92,55.27a2.69,2.69,0,0,0,0,3.93L2.7,60.9a1.6,1.6,0,0,1,0,2.36L.86,65a2.71,2.71,0,0,0,0,4L2.7,70.72a1.6,1.6,0,0,1,0,2.36L.92,74.77a2.69,2.69,0,0,0,0,3.93l1.73,1.64a1.6,1.6,0,0,1,0,2.36L.94,84.33a2.69,2.69,0,0,0,0,3.93L2.77,90a1.62,1.62,0,0,1,0,2.36L1,94a2.72,2.72,0,0,0-.85,2h9.6V38Z"
  fill="#dac92a" />
  <path d="M133.5,96h6.33a2.68,2.68,0,0,0-.85-2l-1.74-1.65a1.62,1.62,0,0,1,0-2.36l1.83-1.74a2.69,2.69,0,0,0,0-3.93l-1.71-1.62a1.6,1.6,0,0,1,0-2.36l1.73-1.64a2.69,2.69,0,0,0,0-3.93l-1.78-1.69a1.6,1.6,0,0,1,0-2.36L139.15,69a2.71,2.71,0,0,0,0-4l-1.84-1.75a1.6,1.6,0,0,1,0-2.36l1.78-1.69a2.69,2.69,0,0,0,0-3.93l-1.73-1.64a1.6,1.6,0,0,1,0-2.36l1.71-1.62a2.69,2.69,0,0,0,0-3.93L137.24,44a1.62,1.62,0,0,1,0-2.36L139,40a2.68,2.68,0,0,0,.85-2h-9.61V96h3.28Z"
  fill="#cebb2c" />
  <path d="M.18,38A2.68,2.68,0,0,0,1,40l1.74,1.65a1.62,1.62,0,0,1,0,2.36L.94,45.71a2.69,2.69,0,0,0,0,3.93l1.71,1.62a1.6,1.6,0,0,1,0,2.36L.92,55.27a2.69,2.69,0,0,0,0,3.93L2.7,60.9A1.6,1.6,0,0,1,2.93,63H9.78V38H.18Z" fill="#5f6226" />
  <path d="M58,60c-8-1-24-8-31-9-3.27-.47-10.47-.72-17.22-.85V63H58c8.06,0,39-3,46-3C97,60,66,61,58,60Z" fill="#6c7028" />
  <path d="M103.75,42h-69a73.54,73.54,0,0,1-16.18-2L9.78,38V50.15c6.75.13,13.95.38,17.22.85,7,1,23,8,31,9s39,0,46,0,17-6,25-8c.4-.1.81-.19,1.22-.27V38l-7.35,1.68A86.32,86.32,0,0,1,103.75,42Z" fill="#d6d6d6" />
  <path d="M18.55,40,9.78,38V50.15c6.75.13,13.95.38,17.22.85,7,1,23,8,31,9,2.38.3,6.79.42,12,.44V42H34.73A73.54,73.54,0,0,1,18.55,40Z" fill="#ececec" />
  <path d="M.18,38A2.68,2.68,0,0,0,1,40l1.74,1.65a1.62,1.62,0,0,1,0,2.36L.94,45.71a2.69,2.69,0,0,0,0,3.93l.41.39c2.45,0,5.39.06,8.43.12V38H.18Z" fill="#d6d6d6" />
  <path d="M137.24,44a1.62,1.62,0,0,1,0-2.36L139,40a2.68,2.68,0,0,0,.85-2h-9.61V51.73a37.08,37.08,0,0,1,7.32-.62l1.53-1.45a2.69,2.69,0,0,0,0-3.93Z" fill="#c6c6c6" />
  <rect x="32" y="42" width="76" height="50" fill="#e8bd0c" />
  <rect x="32" y="42" width="38" height="50" fill="#ffcd00" />
  <rect x="39" y="82" width="62" height="5" rx="2.5" ry="2.5" fill="#00713e" />
  <path d="M70,82H41.5a2.5,2.5,0,0,0,0,5H70Z" fill="#007a43" />
  <rect x="40" y="70" width="60" height="8" rx="3" ry="3" fill="#ececec" />
  <rect x="36" y="47" width="68" height="20" rx="3" ry="3" fill="#ececec" />
  <path d="M70,47H39a3,3,0,0,0-3,3V64a3,3,0,0,0,3,3H70Z" fill="#fff" />
  <path d="M70,70H43a3,3,0,0,0-3,3v2a3,3,0,0,0,3,3H70Z" fill="#fff" />
</svg>
