<?xml version="1.0" encoding="utf-8"?>
<svg version="1.1" xmlns="http://www.w3.org/2000/svg" viewBox="0 0 140 140">
	<path fill="#395A9E" d="M123.57,23.09l3.43-8.64H13l3.11,7.85c2.58,6.5,3.9,13.42,3.9,20.41V70v28.91c0,5.92-1.12,11.78-3.3,17.28 L13,125.55h114l-4.61-11.61c-1.59-4.01-2.41-8.29-2.41-12.61V70V41.87C119.98,35.44,121.2,29.06,123.57,23.09z"/>
	<path fill="#3D61AB" d="M13,14.45l3.11,7.85c2.58,6.5,3.9,13.42,3.9,20.41V70v28.91c0,5.92-1.12,11.78-3.3,17.28L13,125.55h57V14.45 H13z"/>
	<rect x="13" y="125.55" fill="#375391" width="114" height="14.45"/>
	<rect x="70" y="125.55" fill="#32467F" width="57" height="14.45"/>
	<rect x="13" fill="#375391" width="114" height="14.45"/>
	<rect x="70" fill="#32467F" width="57" height="14.45"/>
	<ellipse fill="#EFD700" cx="70.71" cy="61.83" rx="29.95" ry="29.96"/>
	<path fill="#FFE800" d="M40.76,61.83c0,16.31,13.03,29.54,29.24,29.92V31.91C53.79,32.29,40.76,45.52,40.76,61.83z"/>
	<path fill="#ECECEC" d="M91.32,110.02H70v-5.68h21.32c1.3,0,2.35,1.05,2.35,2.35v0.98C93.67,108.97,92.62,110.02,91.32,110.02z"/>
	<path fill="#FFFFFF" d="M48.68,104.34H70v5.68H48.68c-1.3,0-2.35-1.05-2.35-2.35v-0.98C46.33,105.39,47.38,104.34,48.68,104.34z"/>
	<path fill="#C60D10" d="M35.6,78.42c23.2-12.5,46.39,11.54,69.59-0.96c-0.23-10.26-0.46-20.53-0.69-30.79 C81.76,58.3,59.02,34.1,36.29,45.72C36.06,56.62,35.83,67.52,35.6,78.42z"/>
	<path fill="#B40F0C" d="M105.19,77.46c-0.23-10.26-0.46-20.53-0.69-30.79c-11.5,5.88-23,2.6-34.5-0.58v31.76 C81.73,80.76,93.46,83.78,105.19,77.46z"/>
</svg>
