<svg xmlns="http://www.w3.org/2000/svg" viewBox="1556.715 -216.276 125.686 47.299"><defs><style>.cls-1 { fill: #ececec; } .cls-2 { fill: #0095d3; } .cls-3 { fill: #0085bc; } .cls-4 { fill: #9fa0a2; } .cls-5 { fill: #1d376d; } .cls-6 { fill: #193161; } .cls-7 { fill: #e0e0e0; }</style></defs><g id="wrigleys"><g id="Group_120" data-name="Group 120"><g id="Group_119" data-name="Group 119"><path id="Path_507" d="M1678.797-169.084l-115.97.031c-1.01-.112-3.646.552-4.984-.68-1.229-1.129-1.122-1.945-1.122-3.792v-35.862c0-.106-.014-3.708 0-3.963.157-3.258 2.827-2.527 4.648-2.741h5.079l112.576-.013v.013c1.877.22 3.376 3.152 3.376 6.7v33.586c0 3.552-1.5 6.483-3.376 6.7v.013z" data-name="Path 507" class="cls-1"/><path id="Path_508" d="M1585.333-216.246l84.453-.03h10.8a2.276 2.276 0 0 1 1.815 2.287v41.539a2.722 2.722 0 0 1-1.218 2.645 4.947 4.947 0 0 1-2.827.712h-9.789l-89.416-.006s-6.511-15.005-5.073-26.786 11.255-20.361 11.255-20.361z" data-name="Path 508" class="cls-2"/><path id="Path_511" d="M1619.528-216.258l50.259-.018h10.8a2.276 2.276 0 0 1 1.815 2.287v41.539a2.722 2.722 0 0 1-1.218 2.645 4.947 4.947 0 0 1-2.827.712h-9.788l-48.926-.032z" data-name="Path 511" class="cls-3"/></g></g><path id="Path_509" d="M1588.807-216.276s-9.207 6.977-11.2 18.774 5.21 28.412 5.21 28.412h17.819s-15.409-11.026-17.819-22.822 7.167-24.364 7.167-24.364z" data-name="Path 509" class="cls-1"/><path id="Path_510" d="M1587.635-216.276s-9.482 6.977-11.475 18.774 5.21 28.412 5.21 28.412h17.819s-15.409-11.026-17.819-22.822 7.617-24.364 7.617-24.364z" data-name="Path 510" class="cls-4"/><path id="Path_512" d="M1610.886-204.564h54.515a7.237 7.237 0 0 1 7.237 7.237v9.163a7.237 7.237 0 0 1-7.237 7.237h-54.515a7.237 7.237 0 0 1-7.237-7.237v-9.163a7.237 7.237 0 0 1 7.237-7.237z" data-name="Path 512" class="cls-5"/><path id="Path_513" d="M1619.592-204.597l45.809.032a7.237 7.237 0 0 1 7.236 7.235v9.166a7.237 7.237 0 0 1-7.236 7.234h-45.831z" data-name="Path 513" class="cls-6"/><path id="Path_516" d="M1605.096-209.389h16.886a1.4475 1.4475 0 1 1 0 2.895h-16.886a1.4475 1.4475 0 1 1 0-2.895z" data-name="Path 516" class="cls-5"/><path id="Path_518" d="M1654.096-178.389h16.886a1.4475 1.4475 0 1 1 0 2.895h-16.886a1.4475 1.4475 0 1 1 0-2.895z" data-name="Path 518" class="cls-6"/><path id="Path_519" d="M1639.096-178.389h16.886a1.4475 1.4475 0 1 1 0 2.895h-16.886a1.4475 1.4475 0 1 1 0-2.895z" data-name="Path 519" class="cls-6"/><path id="Path_517" d="M1619.603-209.389h2.378a1.4475 1.4475 0 1 1 0 2.895h-2.4z" data-name="Path 517" class="cls-6"/><path id="Path_514" d="M1610.826-202.529h49.427c1.958 0 3.918 2.005 3.918 4.479v10.078c0 2.474-1.96 4.479-3.918 4.479 0 0-44.206.074-49.784.074-1.958 0-4.421-2.455-4.421-4.928v-9.115c0-2.474 2.82-5.067 4.778-5.067z" data-name="Path 514" class="cls-1"/><path id="Path_515" d="M1619.557-202.529l45.586.032c2.157 0 4.981 2.068 4.981 4.541v10.078a4.244 4.244 0 0 1-4.048 4.384h-46.474z" data-name="Path 515" class="cls-7"/></g></svg>