<svg xmlns="http://www.w3.org/2000/svg" viewBox="0 0 185.06 58.65">
  <path fill="#d6aa3d" d="M165.08 55.72l9.39 2.79V0l-8.6 2.51a81.11 81.11 0 0 1-22.35 3.2H39.81A67.45 67.45 0 0 1 20.9 3.07L10.71 0v58.65l12.7-3.76a51.31 51.31 0 0 1 13.76-2h107.27a79.31 79.31 0 0 1 20.64 2.83z"/>
  <path fill="#bf9836" d="M165.08 55.72l9.39 2.79V0l-8.6 2.51a81.11 81.11 0 0 1-22.35 3.2H91.91v47.23h52.48a79.31 79.31 0 0 1 20.69 2.78z"/>
  <path fill="#420a7b" d="M30.45 5.38a82.43 82.43 0 0 1-9.55-2.31L10.71 0v58.65l12.7-3.76c4.5-1.25 7-2.09 7-2.09s-9.51-2.71-9.51-23.63 9.55-23.79 9.55-23.79z"/>
  <path fill="#3b086e" d="M151.49 53.25a73.14 73.14 0 0 1 12.8 2.33l10.19 3.07V0L161 3.59a68.51 68.51 0 0 1-9.55 1.8S161 9.12 161 30s-9.51 23.25-9.51 23.25z"/>
  <path fill="#420a7b" d="M10.71 0H.26a3.74 3.74 0 0 0 .93 2.37L3 4.32a1.84 1.84 0 0 1 .53 1.39A2.55 2.55 0 0 1 3 7.1L1 9.33a3.59 3.59 0 0 0 0 4.74l1.85 2a2.2 2.2 0 0 1 0 2.79L1.06 20.9a3.59 3.59 0 0 0 0 4.74l2 2.09a1.93 1.93 0 0 1 .06 2.72l-.12.06-2 2.09a3.28 3.28 0 0 0-1 2.51 3.74 3.74 0 0 0 .93 2.37l2 2.09A1.93 1.93 0 0 1 3 42.29l-.06.06-1.88 2.23a3.59 3.59 0 0 0 0 4.74l1.85 2A1.93 1.93 0 0 1 3 54l-.06.06L1.06 56a3.46 3.46 0 0 0-.93 2.51h10.58z"/>
  <path fill="#3b086e" d="M174.47 58.65h10.45a3.79 3.79 0 0 0-.93-2.39l-1.85-2a1.87 1.87 0 0 1-.53-1.41 2.59 2.59 0 0 1 .53-1.41l2-2.11a3.65 3.65 0 0 0 0-4.78l-1.86-2a2 2 0 0 1 0-2.77l1.85-2.11a3.65 3.65 0 0 0 0-4.78l-2-2.11a2 2 0 0 1 0-2.77l2-2.11a3.65 3.65 0 0 0 0-4.78l-2-2.11a2.24 2.24 0 0 1 0-2.81l2-2.11a3.65 3.65 0 0 0 0-4.78l-1.85-2a2.24 2.24 0 0 1 0-2.81l1.85-2a3.51 3.51 0 0 0 .92-2.5h-10.58z"/>
  <path fill="#fff" d="M43.89 17.32l36.91-.18 59.72-.29c4.85 0 8.77 2.63 8.75 5.92l-.06 13.07c0 3.29-4 6-8.81 6l-96.63.46c-4.86 0-8.77-2.63-8.76-5.92l.06-13.07c.03-3.31 3.93-5.97 8.82-5.99z"/>
  <path fill="#e4e4e4" d="M91.88 17.08l48.64-.23c4.85 0 8.77 2.63 8.75 5.92l-.06 13.07c0 3.29-4 6-8.81 6l-48.46.23z"/>
  <path fill="#d91426" d="M43.55 19.86L68 19.72l16.87-.09 55.34-.31c3.43 0 6.2 1.85 6.19 4.18v11.63c0 2.33-2.79 4.23-6.22 4.25l-96.62.54c-3.43 0-6.2-1.85-6.19-4.18V24.11c-.03-2.33 2.75-4.23 6.18-4.25z"/>
  <path fill="#c21121" d="M91.89 19.63l48.28-.31c3.43 0 6.2 1.85 6.19 4.18v11.63c0 2.33-2.79 4.23-6.22 4.25l-48.2.27z"/>
</svg>
