<?xml version="1.0" encoding="utf-8"?>
<svg version="1.1" xmlns="http://www.w3.org/2000/svg" viewBox="-32.5 0 140 140">
<g fill="#9D66E4" stroke="#8255BD" >
	<polygon points="59,138.36 56.46,125.76 52.32,125.8 55,138.36"/>
	<polygon points="54.98,138.36 52.7,125.76 48.78,125.8	50.92,138.36"/>
	<polygon points="46.02,138.36 50.26,138.36 47.97,125.8 43.89,125.76"/>
	<polygon points="69.53,138.55 73.88,138.87 70.53,125.37	65.79,125.03"/>
	<path d="M40.72,138.44l5.28-0.07l0.07-0.11l-2.13-12.49l-3.37,0.05C40.87,125.9,40.72,138.44,40.72,138.44"/>
	<polygon points="64.29,138.37 61.62,125.77 57.02,125.84 59.4,138.44"/>
	<polygon points="68.78,138.37 66.07,125.78 61.62,125.84 64.29,138.44"/>
	<polygon points="11.91,138.83 14.28,126.17 9.84,126.23 7.41,138.9"/>
	<polygon points="16.8,138.77 18.88,126.11 14.28,126.17 11.91,138.83"/>
	<polygon points="21.25,138.71 23.32,126.05 18.88,126.11 16.8,138.77"/>
	<path d="M40.72,138.44c0,0,0.15-12.54-0.15-12.63l-3.74,0.05l-0.89,12.64L40.72,138.44z"/>
	<polygon points="7.41,138.9 9.84,126.23 5.09,126.3 2.87,138.96"/>
	<polygon points="25.55,138.65 27.47,125.99 23.32,126.04 21.25,138.71"/>
	<polygon points="35.94,138.5 36.83,125.86 32.58,125.92 30.74,138.57"/>
	<polygon points="30.74,138.57 32.58,125.92 27.47,125.99 25.55,138.65"/>
</g>
<g fill="#9D66E4" stroke="#8255BD">
	<polygon points="15.36,1.95 17.73,14.54 22.18,14.48 19.81,1.88"/>
	<polygon points="19.81,1.88 22.18,14.48 26.33,14.43 24.11,1.83"/>
	<polygon points="28.76,1.76 24.11,1.83 26.33,14.43 30.82,14.36 28.69,1.87"/>
	<polygon points="1.53,2.14 3.85,14.74 8.69,14.67 5.97,2.08"/>
	<path d="M34.04,1.69l-5.28,0.07l-0.07,0.11l2.13,12.49l3.37-0.05C33.89,14.23,34.04,1.69,34.04,1.69"/>
	<polygon points="10.47,2.01 13.14,14.61 17.73,14.54 15.36,1.95"/>
	<polygon points="5.97,2.08 8.69,14.67 13.14,14.61 10.47,2.01"/>
	<polygon points="62.85,1.29 60.48,13.95 64.92,13.89 67.34,1.23"/>
	<polygon points="57.96,1.36 55.88,14.02 60.48,13.96 62.85,1.29"/>
	<polygon points="53.51,1.42 51.43,14.08 55.88,14.02 57.96,1.36"/>
	<path d="M34.04,1.69c0,0-0.15,12.54,0.15,12.63l3.74-0.05l0.89-12.64L34.04,1.69z"/>
	<polygon points="67.34,1.23 64.92,13.89 69.67,13.83 71.89,1.17"/>
	<polygon points="49.21,1.48 47.28,14.14 51.43,14.08 53.51,1.42"/>
	<polygon points="38.82,1.62 37.93,14.27 42.17,14.21 44.02,1.55"/>
	<polygon points="44.02,1.55 42.17,14.21 47.28,14.14 49.21,1.48"/>
</g>
<path fill="#9D66E4" d="M37.91,116.89l-0.13-10.97c-8.94-2.63-12.76-13.18-12.76-13.18C4.26,85.06,13.94,64,13.94,64
	C5.06,29.76,36.55,36.29,36.55,36.29c0.14-0.07,0.28-0.11,0.41-0.18l-0.15-12.76c-12.45,0.15-24.74,0.31-32.9,0.45l1.1,93.53
	C13.48,117.19,25.7,117.03,37.91,116.89"/>
<path fill="#8255BD" d="M36.96,36.12c6.75-3.3,14.51-2.23,18.97,2.31c5.92,6.03,5.56,17.68-2.62,24.54
	c16.56,9.24,7.38,34.27,7.38,34.27c-9.83,8.92-17.36,10.33-22.92,8.69l0.13,10.97c12.22-0.14,24.43-0.27,32.9-0.36l-1.1-93.54
	c-8.74,0.09-20.9,0.22-32.9,0.36L36.96,36.12z"/>
<path fill="#85D97A" d="M13.94,64c0,0-9.68,21.05,11.08,28.74c0,0,3.82,10.55,12.76,13.18l-0.82-69.8
	c-0.14,0.07-0.28,0.11-0.41,0.18C36.55,36.29,5.06,29.76,13.94,64"/>
<path fill="#6DB364" d="M60.7,97.23c0,0,9.18-25.03-7.38-34.27c8.18-6.86,8.54-18.51,2.62-24.54
	c-4.46-4.54-12.23-5.61-18.97-2.31l0.82,69.8C43.34,107.56,50.87,106.15,60.7,97.23"/>
<path fill="#FFCD00" d="M36.81,23.35l-0.11-9.07L3.8,14.74l0.11,9.07C12.07,23.66,24.36,23.5,36.81,23.35"/>
<path fill="#EDAB07" d="M36.7,14.28l0.11,9.07c12.01-0.14,24.16-0.27,32.9-0.36l-0.11-9.16L36.7,14.28z"/>
<path fill="#EDAB07" d="M38.02,125.84l32.9-0.45l-0.1-8.86c-8.47,0.09-20.68,0.21-32.9,0.36L38.02,125.84z"/>
<path fill="#FFCD00" d="M5.01,117.33l0.11,8.96l32.9-0.45l-0.11-8.95C25.7,117.03,13.48,117.19,5.01,117.33"/>
</svg>
