<svg xmlns="http://www.w3.org/2000/svg" viewBox="0 0 114 140">
  <path fill="#f6f1e8" d="M110.6 23.1l3.4-8.6H0l3.1 7.8A54.81 54.81 0 0 1 7 42.7v56.2a46.66 46.66 0 0 1-3.3 17.3L0 125.6h114l-4.6-11.6a34 34 0 0 1-2.4-12.6V41.9a50.29 50.29 0 0 1 3.6-18.8z"/>
  <path fill="#dcd7cf" d="M110.6 23.1l3.4-8.6H57.54c-51.85 14.3.1 111.1.1 111.1H114l-4.6-11.6a34 34 0 0 1-2.4-12.6V41.9a50.29 50.29 0 0 1 3.6-18.8z"/>
  <path fill="#00b5de" d="M29.36 13.77h53.18s9.37 8.86 8.73 21.52-9.4 13.52-8.73 29.1 9.56 17.71 11.4 33.22a61.33 61.33 0 0 1-4 28.83H21.63a58.14 58.14 0 0 1-3.73-28.83C20.13 82.1 30.34 80 30.81 64.39s-8.56-15.5-9.18-28.15 7.73-22.47 7.73-22.47z"/>
  <path fill="#00a1c6" d="M58 13.77h24.54s9.37 8.86 8.73 21.52-9.4 13.52-8.73 29.1S92.1 82.1 93.95 97.61a61.33 61.33 0 0 1-4 28.83H57.86z"/>
  <path fill="#006d8b" d="M44 38h27a5 5 0 0 1 0 10H44a5 5 0 0 1 0-10z"/>
  <path fill="#00617c" d="M58 38h13a5 5 0 0 1 0 10H58z"/>
  <path fill="#700f70" d="M44 68h27a5 5 0 0 1 5 5v9a5 5 0 0 1-5 5H44a5 5 0 0 1-5-5v-9a5 5 0 0 1 5-5z"/>
  <path fill="#5b0f61" d="M57.93 68H71a5 5 0 0 1 5 5v9a5 5 0 0 1-5 5H57.9z"/>
  <path fill="#e9e9e9" d="M42.5 93h30a3.5 3.5 0 0 1 0 7h-30a3.5 3.5 0 0 1 0-7z"/>
  <path fill="#d0d0d0" d="M57.89 93H72.5a3.5 3.5 0 0 1 0 7H57.88z"/>
  <path fill="#e9e9e9" d="M42.5 53h30a3.5 3.5 0 0 1 0 7h-30a3.5 3.5 0 0 1 0-7z"/>
  <path fill="#d0d0d0" d="M57.92 53H72.5a3.5 3.5 0 0 1 0 7H57.92z"/>
  <path fill="#00a1c6" d="M0 125.6h114V140H0z"/>
  <path fill="#00a5c9" d="M0 125.6h58V140H0z"/>
  <path fill="#00a1c6" d="M0 0h114v14.4H0z"/>
  <path fill="#00a5c9" d="M0 0h58v14.4H0z"/>
</svg>
