<svg version="1.1" xmlns="http://www.w3.org/2000/svg" viewBox="0 0 140 140">
  <path d="M112,8H28s3,17,3,24v78c0,5.92-3,22-3,22h84s-3-17.68-3-22V31C109,24.57,112,8,112,8Z" fill="#90cedd" />
  <path d="M28,132H70V8H28s3,17,3,24v78C31,115.92,28,132,28,132Z" fill="#94d6e9" />
  <path d="M109,104.7c-3.8,3.85-9.6,8-12,8.3-3.57.51-17.44-3.72-22-6-8-4-2-12-6-17-1-1.28-7.59-3.14-12-7-5.3-4.63-8.72-11.36-12-13-1.74-.87-8.68-1.32-14-1.52V110c0,5.92-3,22-3,22v8h84v-8s-3-17.68-3-22Z" fill="#e0e0e0" />
  <path d="M70,91.79A6.33,6.33,0,0,0,69,90c-1-1.28-7.59-3.14-12-7-5.3-4.63-8.72-11.36-12-13-1.74-.87-8.68-1.32-14-1.52V110c0,5.92-3,22-3,22v8H70Z" fill="#ececec" />
  <rect x="28" y="132" width="84" height="8" fill="#c6c6c6" />
  <rect x="28" y="132" width="42" height="8" fill="#d1d1d1" />
  <rect x="28" width="84" height="8" fill="#7dbcc9" />
  <rect x="28" width="42" height="8" fill="#7fc3d3" />
  <rect x="48" y="9" width="44" height="44" rx="2" ry="2" fill="#ececec" />
  <path d="M70,9H50a2,2,0,0,0-2,2V51a2,2,0,0,0,2,2H70Z" fill="#fff" />
  <rect x="52" y="30" width="36" height="17" rx="2" ry="2" fill="#db9d4b" />
  <path d="M70,30H54a2,2,0,0,0-2,2V45a2,2,0,0,0,2,2H70Z" fill="#e8a84c" />
  <rect x="52" y="16" width="36" height="12" rx="2" ry="2" fill="#1e1e1e" />
  <path d="M70,16H54a2,2,0,0,0-2,2v8a2,2,0,0,0,2,2H70Z" fill="#282828" />
</svg>
