<?xml version="1.0" encoding="utf-8"?>
<svg version="1.1" xmlns="http://www.w3.org/2000/svg" viewBox="0 0 140 140">
	<path fill="#CF0C11" d="M122.13,103.71l8.09,2.29V34l-7.35,2.08c-6.09,1.73-12.57,2.61-19.12,2.61H70H34.73 c-5.54,0-11.03-0.75-16.18-2.21L9.78,34v72l10.87-3.08c3.76-1.07,7.76-1.61,11.81-1.61H70h34.54 C110.56,101.3,116.53,102.12,122.13,103.71z"/>
	<path fill="#DF0814" d="M34.73,38.7c-5.54,0-11.03-0.75-16.18-2.21L9.78,34v72l10.87-3.08c3.76-1.07,7.76-1.61,11.81-1.61H70V38.7 H34.73z"/>
	<path fill="#B40F0C" d="M133.5,106L133.5,106h6.33c0-0.92-0.3-1.79-0.85-2.44l-1.74-2.05c-0.33-0.39-0.51-0.91-0.51-1.47 s0.18-1.08,0.51-1.47l1.83-2.16c1.14-1.35,1.14-3.54,0-4.88l-1.71-2.02c-0.69-0.81-0.69-2.12,0-2.93l1.73-2.05 c1.14-1.35,1.14-3.54,0-4.88l-1.78-2.1c-0.69-0.81-0.69-2.12,0-2.93l1.84-2.17c0.58-0.68,0.86-1.57,0.86-2.46s-0.28-1.78-0.86-2.46 l-1.84-2.17c-0.69-0.81-0.69-2.12,0-2.93l1.78-2.1c1.14-1.35,1.14-3.54,0-4.88l-1.73-2.05c-0.69-0.81-0.69-2.12,0-2.93l1.71-2.02 c1.14-1.35,1.14-3.54,0-4.88l-1.83-2.16c-0.33-0.39-0.51-0.91-0.51-1.47c0-0.56,0.18-1.08,0.51-1.47l1.74-2.05 c0.55-0.65,0.85-1.51,0.85-2.44h-6.33h-3.28v72h3.28V106z"/>
	<path fill="#C60D10" d="M6.5,34L6.5,34H0.18c0,0.92,0.3,1.79,0.85,2.44l1.74,2.05c0.33,0.38,0.51,0.9,0.51,1.46 c0,0.56-0.18,1.08-0.51,1.46l-1.83,2.16c-1.14,1.35-1.14,3.54,0,4.88l1.71,2.02c0.69,0.81,0.69,2.12,0,2.93l-1.73,2.05 c-1.14,1.35-1.14,3.54,0,4.88l1.78,2.1c0.69,0.81,0.69,2.12,0,2.93l-1.84,2.17C0.28,68.22,0,69.11,0,70s0.28,1.78,0.86,2.46 l1.84,2.17c0.69,0.81,0.69,2.12,0,2.93l-1.78,2.1c-1.14,1.35-1.14,3.54,0,4.88l1.73,2.05c0.69,0.81,0.69,2.12,0,2.93l-1.71,2.02 c-1.14,1.35-1.14,3.54,0,4.88l1.83,2.16c0.33,0.39,0.51,0.91,0.51,1.47s-0.18,1.08-0.51,1.47l-1.74,2.05 c-0.55,0.64-0.85,1.51-0.85,2.43H6.5h3.28V34H6.5z"/>
	<g>
		<path fill="#F39322" d="M121.84,103.63c-2.3-26.88-24.64-47.98-51.89-47.98c-27.26,0-49.6,21.11-51.89,48l2.59-0.74 c3.76-1.07,7.76-1.61,11.81-1.61h12.12c3.01-11.29,13.22-19.61,25.37-19.61s22.36,8.32,25.37,19.61h9.22 C110.46,101.3,116.32,102.1,121.84,103.63z"/>
		<path fill="#F5E83C" d="M115.02,102.14c-2.94-22.47-21.98-39.81-45.07-39.81c-23.02,0-42.03,17.26-45.04,39.64 c2.47-0.43,5-0.67,7.55-0.67h12.12c3.01-11.29,13.22-19.61,25.37-19.61s22.36,8.32,25.37,19.61h9.22 C108.07,101.3,111.59,101.59,115.02,102.14z"/>
		<path fill="#8DBF44" d="M108.44,101.43c-3.18-18.54-19.2-32.64-38.49-32.64c-19.26,0-35.25,14.06-38.48,32.55 c0.33-0.01,0.66-0.03,0.99-0.03h12.12C47.59,90.02,57.8,81.7,69.95,81.7s22.36,8.32,25.37,19.61h9.22 C105.85,101.3,107.15,101.35,108.44,101.43z"/>
		<path fill="#1E75BA" d="M69.95,75.01c-15.68,0-28.79,11.24-32.1,26.29h6.84c3.15-11.26,13.26-19.5,25.26-19.5 s22.11,8.24,25.26,19.5h6.84C98.74,86.25,85.63,75.01,69.95,75.01z"/>
	</g>
	<g>
		<path fill="#E0891F" d="M115.02,102.14c2.32,0.37,4.6,0.87,6.82,1.49C119.54,76.77,97.23,55.68,70,55.65v6.68 C93.06,62.36,112.08,79.69,115.02,102.14z"/>
		<path fill="#E3D739" d="M108.44,101.43c2.21,0.13,4.41,0.37,6.57,0.72C112.08,79.69,93.06,62.36,70,62.33v6.45 C89.27,68.81,105.26,82.9,108.44,101.43z"/>
		<path fill="#84B23F" d="M108.44,101.43C105.26,82.9,89.27,68.81,70,68.79v6.22c15.81,0.02,28.99,11.29,32.14,26.29h2.4 C105.85,101.3,107.15,101.35,108.44,101.43z"/>
		<path fill="#1E6DAD" d="M70,75.01v6.79c11.98,0.02,22.06,8.26,25.21,19.5h6.84C98.75,86.27,85.66,75.03,70,75.01z"/>
	</g>
	<path fill="#FFFFFF" d="M110.88,65.75h-82c-2.07,0-3.75-1.68-3.75-3.75V51.92c0-2.07,1.68-3.75,3.75-3.75h82 c2.07,0,3.75,1.68,3.75,3.75v10.09C114.63,64.07,112.95,65.75,110.88,65.75z"/>
</svg>
