<svg xmlns="http://www.w3.org/2000/svg" viewBox="0 0 114 140">
  <path fill="#75bb58" d="M110.6 23.1l3.4-8.6H0l3.1 7.8A54.81 54.81 0 0 1 7 42.7v56.2a46.66 46.66 0 0 1-3.3 17.3L0 125.6h114l-4.6-11.6a34 34 0 0 1-2.4-12.6V41.9a50.29 50.29 0 0 1 3.6-18.8z"/>
  <path fill="#68a74e" d="M110.6 23.1l3.4-8.6H56.53l.08 111.1H114l-4.6-11.6a34 34 0 0 1-2.4-12.6V41.9a50.29 50.29 0 0 1 3.6-18.8z"/>
  <path fill="#5a874d" d="M0 125.6h114V140H0z"/>
  <path fill="#507844" d="M56.96 125.6H114V140H56.96z"/>
  <path fill="#5a874d" d="M0 0h114v14.4H0z"/>
  <path fill="#507844" d="M56.96 0H114v14.4H56.96z"/>
  <path fill="#5a376b" d="M34.16 26.22c12.76-4.15 26.21 2.06 30 13.87S60.81 64.82 48.05 69c-4 1.3-17.79 7.37-21.68 6.77-2.8-.43 4.2-7.16 1.73-8.53A21.4 21.4 0 0 1 18 55.1c-3.83-11.8 3.4-24.73 16.16-28.88z"/>
  <path fill="#50315f" d="M56.51 29.5a21.17 21.17 0 0 1 7.71 10.58c2.94 9-.62 18.75-8.2 24.67-.02-9.9.49-18.47.49-35.25z"/>
  <path fill="#f9f9a8" d="M7.76 111.7c-1.29-.21-2.66 2.52-3.05 1.77a88.83 88.83 0 0 0 2.2-11.18V81.42s2.09 3.4 3.53 3.33a39.54 39.54 0 0 1 7.69 0c4.39 1.44 3.73.91 8 3.77S38.3 91 40 90.56c5.11-1.27 10.51 2.75 12.06 9s-4 11.2-9.1 12.47c-4 1-10.45-1.83-12.15-1.4-8 0-10.14 2.57-16.66 2.54-6.09-.51-4.87-1.23-6.39-1.47z"/>
  <path fill="#dede96" d="M94.51 112.52c-3.09-1.91-4-4.46-4.86-6.83-1.14-3.11-1.77-7.42 0-10.89 3.05-6 5.47-7.8 11.38-7.8 6.11 1.6 6.22 3.41 6.22 3.41v13.41a15.3 15.3 0 0 0 0 1.86c.14 1.19.52 2.29.69 3.22a22.68 22.68 0 0 0 .87 3.6 20.74 20.74 0 0 1-14.3.02z"/>
  <path fill="#507844" d="M80.31 57c8.5 0 14.12 5.31 14.12 11.85 0 4.46-3.89 7.9-8.66 9.95-2.16.93 4.68 4.24 2 4.24-8.5 0-19.52-7.64-19.52-14.18S71.82 57 80.31 57z"/>
</svg>
