<svg xmlns="http://www.w3.org/2000/svg" viewBox="1338.85 -184.214 161.173 31.914"><defs><style>.cls-1 { fill: #d92c1d; } .cls-2 { fill: #c22719; } .cls-3 { fill: #df0814; } .cls-4 { fill: #81c300; } .cls-5 { fill: #193818; } .cls-6 { fill: #e0e0e0; } .cls-7 { fill: #daa500; } .cls-8 { fill: #679709; } .cls-9 { fill: #ce2208; } .cls-10 { fill: #1c3f1b; } .cls-11 { fill: #ececec; }</style></defs><g id="Group_118" data-name="Group 118"><g id="Group_117" data-name="Group 117"><g id="Group_116" data-name="Group 116"><path id="Rectangle_182" d="M1343.18-184.1h152.512v31.792H1343.18z" data-name="Rectangle 182" class="cls-1"/><path id="Rectangle_183" d="M1419.509-184.1h76.184v31.792h-76.184z" data-name="Rectangle 183" class="cls-2"/><path id="Path_495" d="M1495.401-184.1v31.792a4.6 4.6 0 0 0 4.622-4.542v-22.708a4.6 4.6 0 0 0-4.622-4.542z" data-name="Path 495" class="cls-2"/><path id="Path_496" d="M1338.85-179.558v22.708a4.6 4.6 0 0 0 4.622 4.542V-184.1a4.6 4.6 0 0 0-4.622 4.542z" data-name="Path 496" class="cls-1"/><path id="Path_497" d="M1396.329-184.1c-.809 2.725-5.546 5.9-5.546 5.9a12.708 12.708 0 0 0 9.821-5.9z" data-name="Path 497" class="cls-3"/><path id="Path_498" d="M1354.68-181.247c3.04 0 6.988.865 6.988 4.713.412 3.187-3.788 5.921-5.052 8.043a20.582 20.582 0 0 0-1.936 4.774s-5.5-6.713-5.5-10.562 2.465-6.968 5.5-6.968z" data-name="Path 498" class="cls-4"/><path id="Path_499" d="M1427.182-184.214h60.634s7.755 2.916 7.755 16.182-7.755 15.595-7.755 15.595h-60.634s-7.745-1.82-7.745-15.595 7.745-16.182 7.745-16.182z" data-name="Path 499" class="cls-5"/><path id="Path_500" d="M1428.838-184.214h57.177s8.413 2.916 8.413 16.182-9.029 15.595-9.029 15.595h-55.873s-9.058-1.82-9.058-15.595 8.37-16.182 8.37-16.182z" data-name="Path 500" class="cls-6"/><path id="Path_501" d="M1431.278-184.214h51.249s9.131 2.916 9.131 16.182-10.929 15.594-10.929 15.594h-48.575s-9.764-1.82-9.764-15.595 8.888-16.181 8.888-16.181z" data-name="Path 501" class="cls-7"/><path id="Path_502" d="M1442.427-184.214h32.1s12.773 2.8 12.773 15.524c0 7.954-6.457 13.37-14.5 16.39-10.132 0-24.076-.055-30.983-.055-8.058-2.94-14.779-8.327-14.779-16.336.003-13.214 15.389-15.523 15.389-15.523z" data-name="Path 502" class="cls-8"/><path id="Path_503" d="M1446.899-184.011h24.961a13.614 13.614 0 0 1 9.936 13.445c0 11.022-12.854 16.417-22.742 16.563s-24.121-5.118-24.121-16.563 11.966-13.445 11.966-13.445z" data-name="Path 503" class="cls-9"/><path id="Path_504" d="M1364.346-157.004c-.98-3.619-1.962-7.238-2.942-10.974a2.73 2.73 0 0 1 1.417-3.5 152.622 152.622 0 0 1 47.389-9.408 198.818 198.818 0 0 1 31.8.938c8.511.969 16.273 3.313 23.656 4.035a53.48 53.48 0 0 0 12.2 0c1.2-.149 2.35-.364 3.556-.555.753-.12 2.736-.887 3.328-.726.459.132.057 5.883 0 7.473-.148 1.045.232 7.752-.955 7.532a95.082 95.082 0 0 1-15.192 1.423 115.166 115.166 0 0 1-18.91-1.354c-8.119-1.582-15.116-3.616-22.657-4.549-9.209-1.208-8.111-1.012-18-.558a83.286 83.286 0 0 0-20.963 3.626 144.028 144.028 0 0 0-21 8.23c-.109 0-.218.117-.328.117a1.784 1.784 0 0 1-.376.04 2.142 2.142 0 0 1-2.023-1.79z" data-name="Path 504" class="cls-10"/><path id="Path_505" d="M1363.365-168.679a.539.539 0 0 1 .109-.583c16.35-5.837 30.932-10.045 51.669-10.054s21.908.485 32.769 2c12.825 1.787 22.149 5.363 35.271 2.011-.125 3.711-.252 7.421-.406 11.245a.629.629 0 0 1-.224.54 98.466 98.466 0 0 1-40.717-2.261c-12.573-2.96-22.437-4.491-37.359-2.9s-26.389 5.579-38.169 10.974c-.98-3.617-1.962-7.236-2.943-10.972z" data-name="Path 505" class="cls-11"/><path id="Path_506" d="M1419.37-179.31c16.726.06 18.453.586 28.543 1.992 12.825 1.787 22.15 5.363 35.271 2.011-.125 3.711-.251 7.421-.406 11.245a.63.63 0 0 1-.223.54 98.468 98.468 0 0 1-40.718-2.261 114.673 114.673 0 0 0-22.569-3.472c-.001-5.314.102-4.039.102-10.055z" data-name="Path 506" class="cls-6"/></g></g></g></svg>