<svg
		xmlns="http://www.w3.org/2000/svg"
		viewBox="0 0 267.06 241.8">
		<path
			d="M126.46 146.3h33.7v46.9h-33.7z"
			fill="#f28159"
		/>
		<path
			d="M119.26 183.8h48.1v57.5h-48.1z"
			fill="#308a8e"
		/>
		<path
			d="M136.68 183.78h25.5v58h-25.5z"
			fill="#231f20"
			opacity=".4"
		/>
		<path
			d="M124.26 174.9h38v10.9h-38z"
			fill="#e6e7e8"
		/>
		<path
			d="M134.86 179.2a3.32 3.32 0 0 1-1.8 3.2 3.17 3.17 0 0 1-3.6-.5 3.39 3.39 0 0 1-.8-3.6 3.22 3.22 0 0 1 3-2.1 3.18 3.18 0 0 1 3.2 3"
			fill="#43bdd7"
		/>
		<path
			d="M126.46 167.9l18.7-.7 14.9.1v-15.2l-33.6 2.1z"
			fill="#dd603a"
		/>
		<path
			d="M125.26 165.8l-10.9-13.6 1.4-26.5 42.5-24.9 8-.4c4.5 14.5 12.4 28.7 7.8 43.9-2.5 8.3-7.5 20.5-17.2 21.7-3.8.5-8.6-1.5-12.7-1.5-2.8 0-17 3.7-18.9 1.3"
			fill="#f28159"
		/>
		<path
			d="M115.76 125.7l-.6 10.5 9.5 11.7c29.8.6 43.6-14.6 49.1-23.4l-7.4-24.3-8 .4z"
			fill="#dd603a"
		/>
		<path
			d="M140.46 139.9l7.1 6.9s25.3-9.2 25.6-14.7l-32.7 7.8z"
			fill="#dd603a"
		/>
		<path
			d="M149.36 88.2l-.5-1.1-11.8 3.9v-.1l-2.7.9-2.7.8.3.1-11.8 4 .2 1.3-2 7.2 18.9 55.8 6.1 4.1 11.4-3.8 5.2-1.8 11.6-3.8 2.3-6.9-18.6-56z"
			fill="#43bdd7"
		/>
		<path
			d="M143.33 165.07l28.35-9.51.22.66-28.35 9.51z"
			fill="#909191"
		/>
		<path
			d="M149.26 88.4l.6-.1a12 12 0 0 0-2.1-1.3l-1.5.4-.1-.6-12.8 4.4v.5l-14 4.6.7 1.8.3-.1.1.9-1.9 7.1 18.8 56 6 3.9.1.6 21.7-7.3-1.4-4.1-9-1.3-17.7-53-11.6 3.9 1.5-8.4 22.3-7.9z"
			fill="#39a1b7"
		/>
		<path
			d="M132.96 90.27L145.69 86l.45 1.33-12.7 4.26z"
			fill="#485656"
		/>
		<path
			d="M119.19 95.53l29.68-10 .57 1.71-29.68 10z"
			fill="#909191"
		/>
		<path
			d="M173.66 110.7a5.07 5.07 0 0 1 .7 3.8 5 5 0 0 1-2.2 3.1l-6 3.7a5 5 0 0 1-7.7-4 4.82 4.82 0 0 1 2.3-4.4l5.9-3.7a4.66 4.66 0 0 1 3.8-.7 4.35 4.35 0 0 1 3.2 2.2"
			fill="#f28159"
		/>
		<path
			d="M164.96 119.43l3.2-2a3 3 0 0 0 1-4.3 3.21 3.21 0 0 0-4.4-1l-3.2 1.9z"
			fill="#fff"
			opacity=".3"
		/>
		<path
			d="M168.46 96.8a6.77 6.77 0 0 1-2.1 9.3l-7.9 4.9a6.75 6.75 0 0 1-10.4-5.5 7 7 0 0 1 3.2-6l7.9-4.8a6.59 6.59 0 0 1 5.1-.9 6.78 6.78 0 0 1 4.2 3"
			fill="#f28159"
		/>
		<path
			d="M156.7 108.58l4.4-2.7a4.18 4.18 0 0 0 1.3-5.7 4.31 4.31 0 0 0-5.7-1.5l-4.4 2.7z"
			fill="#fff"
			opacity=".3"
		/>
		<path
			d="M176.06 120.1a4.89 4.89 0 0 1 1.9 3.4 4.57 4.57 0 0 1-1.1 3.7l-4.4 5.5a5.02 5.02 0 0 1-7.9-6.2l4.4-5.5a5.12 5.12 0 0 1 7.1-.9"
			fill="#f28159"
		/>
		<path
			d="M170.66 131.25l2.4-3a3.27 3.27 0 0 0-.4-4.5 3.2 3.2 0 0 0-4.5.5l-2.4 3z"
			fill="#fff"
			opacity=".3"
		/>
		<path
			d="M180.86 132.6a4.89 4.89 0 0 1 1.9 3.4 4.57 4.57 0 0 1-1.1 3.7l-4.4 5.5a5.23 5.23 0 0 1-4.7 1.9 5.13 5.13 0 0 1-4-3.1 5 5 0 0 1 .7-5l4.4-5.5a5 5 0 0 1 3.3-2 4.8 4.8 0 0 1 3.9 1.1"
			fill="#f28159"
		/>
		<path
			d="M175.46 143.74l2.4-3a3.195 3.195 0 0 0-4.9-4.1l-2.4 3.1z"
			fill="#fff"
			opacity=".3"
		/>
		<path
			d="M120.86 99.1s4.7 1.8 5.2 8.1l-1.2 11.2.6 9.3 1.8 4.8a22.63 22.63 0 0 1 2.3 12c-.7 7.1-5.1 15.2-9.3 15-2.5-.1-4.2-3.2-5.7-6a32.07 32.07 0 0 1-3.3-19.2c.8-6.4 1.6-12.8 2.3-19.2z"
			fill="#f28159"
		/>
	</svg>
