<?xml version="1.0" encoding="utf-8"?>
<svg version="1.1" xmlns="http://www.w3.org/2000/svg"  width="119" height="119" viewBox="0 0 119 119">
  <path fill="#FFF" fill-rule="evenodd" d="M59.5,45.35637 L101.924726,2.9316441 C105.833786,-0.977415885 112.168006,-0.98103444 116.07452,2.92547989 C119.980176,6.83113548 119.987106,13.1565236 116.068356,17.0752741 L73.64363,59.5 L116.068356,101.924726 C119.977416,105.833786 119.981034,112.168006 116.07452,116.07452 C112.168865,119.980176 105.843476,119.987106 101.924726,116.068356 L59.5,73.64363 L17.0752741,116.068356 C13.1662141,119.977416 6.83199422,119.981034 2.92547989,116.07452 C-0.980175694,112.168865 -0.987106434,105.843476 2.9316441,101.924726 L45.35637,59.5 L2.9316441,17.0752741 C-0.977415885,13.1662141 -0.98103444,6.83199422 2.92547989,2.92547989 C6.83113548,-0.980175694 13.1565236,-0.987106434 17.0752741,2.9316441 L59.5,45.35637 Z"/>
</svg>
